<?xml version="1.0" encoding="utf-8"?>
<!-- Generator: Adobe Illustrator 23.0.1, SVG Export Plug-In . SVG Version: 6.00 Build 0)  -->
<svg version="1.1" xmlns="http://www.w3.org/2000/svg" xmlns:xlink="http://www.w3.org/1999/xlink" x="0px" y="0px"
	 viewBox="0 0 500 212" style="enable-background:new 0 0 500 212;" xml:space="preserve">
<style type="text/css">
	.st0{display:none;}
	.st1{display:inline;fill-rule:evenodd;clip-rule:evenodd;fill:#FFFFFF;}
	.st2{fill:#002E4F;}
	.st3{fill:#00A4E2;}
	.st4{fill:#E1F3F6;}
	.st5{fill:#008DC4;}
	.st6{fill:#00AFE2;}
	.st7{fill:#006091;}
	.st8{fill:#0076AD;}
	.st9{fill:#00D2FD;}
	.st10{fill:#00396A;}
	.st11{fill:none;stroke:#20C6F0;stroke-width:7.6539;stroke-linecap:round;stroke-miterlimit:10;}
	.st12{fill:#0086CF;}
	.st13{fill:#0089E0;}
	.st14{fill:#CDE5E8;}
	.st15{fill:#F6EE9E;}
	.st16{fill:#F8FDFF;}
	.st17{fill:none;stroke:#DDDD67;stroke-width:0.8679;stroke-miterlimit:10;}
	.st18{fill:none;stroke:#DDDD67;stroke-width:0.755;stroke-miterlimit:10;}
	.st19{fill:#009EE7;}
</style>
<g id="BACKGROUND" class="st0">
	<rect y="-160" class="st1" width="500" height="500"/>
</g>
<g id="OBJECTS">
	<g>
		<path class="st2" d="M345.28,189.31c-2.5,3.25-5.44,5.66-4.8,6.75c0,0,1.33,0.97,5.01,0.97c6.3,0,12.5-0.48,11.48-1.12
			c-1.41-0.88-5.49-1.21-9.39-2.55c-0.96-0.33,2.11-2.2,1.27-2.51C347.11,190.22,345.76,189.68,345.28,189.31z"/>
		<path class="st2" d="M410.22,195.88c0,0,0.83,1.16,4.01,1.16c5.45,0,11.13-0.74,10.25-1.29c-1.22-0.76-10.77-2.76-10.77-2.76
			l-2.14-2.66l-3.63,2.01L410.22,195.88z"/>
		<g>
			<path class="st3" d="M392.96,115.55c-3.91,0-6.87-0.78-7.11-0.85c-2.04-0.56-3.24-2.66-2.68-4.7c0.55-2.04,2.65-3.24,4.69-2.69
				c0.13,0.04,8.74,2.24,13.76-2.07c3.36-2.89,4.64-8.32,3.8-16.16l-0.27-2.5l7.74-4.39c1.84-1.04,4.18-0.4,5.22,1.44
				c1.04,1.84,0.4,4.17-1.44,5.22l-3.42,1.94c0.54,9.23-1.7,16.05-6.68,20.29C402.36,114.67,397.12,115.55,392.96,115.55z"/>
		</g>
		<g>
			<path class="st4" d="M406.2,94.31c-0.15,5.57-1.62,9.59-4.43,12c-5.51,4.73-14.95,2.32-15.11,2.28c-2.24-0.6-4.54,0.72-5.15,2.95
				c-0.61,2.24,0.71,4.55,2.95,5.16c0.27,0.07,3.52,1.69,7.81,1.54c16.28-0.58,26.11-14.63,26.29-22.81L406.2,94.31z"/>
		</g>
		<g>
			<path class="st5" d="M383.81,74.84c-1.46-0.65-2.89-1.36-4.3-2.11c-13.49,7.68-30.73,17.53-31.07,17.87
				c0,0,8.57,13.64,9.12,14.19c0.35,0.35,21.6-14.89,36.88-25.93C390.9,77.49,387.27,76.38,383.81,74.84z"/>
			<path class="st6" d="M384.03,74.44c3.53,1.56,7.25,2.69,10.84,4.1c8.42-6.08,14.92-10.81,14.92-10.81l-14.38-4.04
				c0,0-6.92,3.93-15.45,8.78C381.3,73.17,382.65,73.83,384.03,74.44z"/>
			<polygon class="st7" points="359.24,56.53 367.71,79.46 384.26,85.53 363.29,47.23 			"/>
			<polygon class="st7" points="385.16,91.16 372.9,91.16 383.81,110.23 400.45,117.25 			"/>
			<path class="st8" d="M400.45,117.25l-9.76-16.66l-41.77,24.49l-8.21-14.01l5.16-83.3l18.77-11l33.79,57.63l11.37-6.66l9.45,16.13
				l-11.37,6.66l9.76,16.65L400.45,117.25z M362.56,52.61l-1.06,0.62l-2.87,44.49l22.6-13.25L362.56,52.61z"/>
			<polygon class="st5" points="326.82,107.26 340.71,111.07 348.92,125.08 334.25,121.37 			"/>
			<polygon class="st6" points="326.82,107.26 340.71,111.07 345.87,27.77 333.13,24.72 			"/>
			<polygon class="st9" points="333.13,24.72 345.87,27.77 364.64,16.76 351.73,13.01 			"/>
		</g>
		<path class="st2" d="M361.06,140.45c0,0,2.04,22.01,2.04,29.72c0,0-16.03,12.49-19.95,19.03c1.69,1.28,5.02,2.99,7.2,2.92
			c10.7-10.21,22.43-17.5,22.43-17.5s5.06-14.69,6.64-27.13L361.06,140.45z"/>
		<path class="st4" d="M372.49,141.49c3.61,0.03,7.3-0.6,10.4-2.28c-1.04-4.4,1.18-17.37,3.96-24.3c0,0,2.2-4.83,0.66-6.31
			c-5.7-5.48-10.55-5.04-12.06-5.1c-5.23,4.42-14.97,17.46-14.58,34.69C363.55,141.02,369.02,141.47,372.49,141.49z"/>
		<path class="st10" d="M407.84,192.94c2.09-0.58,4.09-1.54,5.37-3.25c-6.19-10.04-28.89-46.91-30.12-49.8
			c-0.03-0.07-0.06-0.16-0.09-0.24c-3.33,1.8-7.31,2.43-11.17,2.28c-3.36-0.13-8.22-0.6-10.96-3.09c0.01,0.18,0.01,0.35,0.02,0.53
			c0.47,9.63,32.4,41.72,44.97,53.99C406.56,193.26,407.23,193.11,407.84,192.94z"/>
		<g>
			<path class="st3" d="M341.94,131.51c-0.89,0-1.74-0.13-2.55-0.4c-1.69-0.56-3.92-1.99-4.98-5.54c-0.6-2.03,0.55-4.16,2.58-4.76
				c2.03-0.6,4.16,0.56,4.76,2.58c0.07,0.24,0.14,0.39,0.18,0.47c0.41,0.02,1.92-0.12,5.61-2.28c3.3-1.94,7.2-4.82,10.97-7.61
				c6.37-4.71,12.39-9.17,17.36-10.74c2.01-0.64,4.17,0.48,4.8,2.49c0.64,2.02-0.48,4.17-2.49,4.8c-3.75,1.19-9.53,5.46-15.12,9.59
				C354.88,126.18,347.67,131.51,341.94,131.51z"/>
		</g>
		<g>
			<path class="st3" d="M349.1,128.65c-0.47-2.25-0.96-4.74-2.39-6.59c-3.09,1.71-4.4,1.82-4.78,1.81
				c-0.05-0.09-0.11-0.24-0.18-0.47c-0.6-2.03-2.73-3.18-4.76-2.58c-2.03,0.6-3.18,2.73-2.58,4.76c1.05,3.56,3.29,4.98,4.98,5.54
				c0.81,0.27,1.67,0.4,2.55,0.4c2.22,0,4.67-0.8,7.31-2.14C349.19,129.13,349.15,128.89,349.1,128.65z"/>
			<path class="st4" d="M380.67,105.73c-0.64-2.01-2.79-3.13-4.8-2.49c-4.97,1.57-10.99,6.02-17.36,10.74
				c-3.77,2.79-7.67,5.67-10.97,7.61c-0.15,0.09-0.29,0.17-0.44,0.25c1.43,1.89,3.91,11.21,3.95,11.43
				c4.06-2.12,23.52-16.94,27.74-21.41C380.25,110.31,381.31,107.74,380.67,105.73z"/>
		</g>
		<path class="st11" d="M331.77,121.37"/>
		<g>
			<path class="st3" d="M336.52,128.42c-0.23,0-0.45-0.07-0.65-0.21c-3-2.15-4.57-6.28-4.63-6.45c-0.22-0.58,0.08-1.23,0.66-1.45
				c0.58-0.21,1.23,0.08,1.45,0.66l0,0c0.01,0.04,1.4,3.67,3.83,5.41c0.51,0.36,0.62,1.06,0.26,1.57
				C337.22,128.26,336.88,128.42,336.52,128.42z"/>
		</g>
		<g>
			<path class="st3" d="M336.53,125.68c-0.35,0-0.7-0.17-0.92-0.48c-1.44-2.04-2.59-6.87-2.71-7.41c-0.14-0.61,0.24-1.21,0.84-1.35
				c0.61-0.14,1.21,0.24,1.35,0.84c0.32,1.36,1.36,5.21,2.36,6.63c0.36,0.51,0.24,1.21-0.27,1.57
				C336.98,125.61,336.75,125.68,336.53,125.68z"/>
		</g>
		<g>
			<path class="st3" d="M338.08,125.04c-0.44,0-0.87-0.26-1.04-0.7c-1.03-2.53-1.43-7.83-1.45-8.05c-0.05-0.62,0.42-1.16,1.04-1.21
				c0.62-0.05,1.16,0.42,1.21,1.04c0.11,1.43,0.54,5.54,1.29,7.37c0.24,0.58-0.04,1.23-0.62,1.47
				C338.36,125.02,338.22,125.04,338.08,125.04z"/>
		</g>
		<g>
			<path class="st3" d="M339.77,124.5c-0.5,0-0.96-0.34-1.09-0.84c-0.71-2.75-0.06-5.55-0.03-5.67c0.14-0.61,0.75-0.98,1.35-0.84
				c0.6,0.14,0.98,0.75,0.84,1.35c-0.01,0.05-0.54,2.41,0.02,4.59c0.16,0.6-0.21,1.22-0.81,1.37
				C339.95,124.49,339.86,124.5,339.77,124.5z"/>
		</g>
		<g>
			<path class="st3" d="M385.02,111.85c-0.52,0-1.04-0.11-1.54-0.35c-1.8-0.85-2.57-3-1.72-4.79c0.89-1.88,2.49-3.81,2.67-4.02
				c1.28-1.52,3.55-1.71,5.08-0.43c1.52,1.28,1.71,3.55,0.43,5.07l0,0c-0.45,0.54-1.3,1.68-1.67,2.46
				C387.66,111.08,386.37,111.85,385.02,111.85z"/>
		</g>
		<g>
			<path class="st12" d="M385.54,109.99c0.43,0.47,0.87,0.91,1.34,1.34c0.59-0.35,1.09-0.88,1.4-1.54c0.37-0.78,1.22-1.92,1.67-2.46
				c1.28-1.52,1.09-3.79-0.43-5.07c-1.52-1.28-3.79-1.09-5.08,0.43c-0.07,0.09-0.36,0.44-0.75,0.95
				C383.73,105.9,383.96,108.26,385.54,109.99z"/>
		</g>
		<g>
			<path class="st3" d="M397.37,106.02c-1.43,3.48-5.41,5.13-8.89,3.7l0,0c-3.48-1.43-5.13-5.41-3.7-8.89l1.8-4.37
				c1.43-3.48,5.42-5.13,8.89-3.7l0,0c3.48,1.43,5.13,5.41,3.7,8.89L397.37,106.02z"/>
		</g>
		<path class="st10" d="M385.54,100.32c-0.55,2.34-3.92,1.59-5.18,0.37c-1.74-1.68-2.78-6.44,1.08-6.19
			c-2.78-4.19,6.64-8.73,7.63-3.89c0.74-1.25,1.49-2.37,3.13-2.48c1.18-0.08,3.24,0.84,3.07,2.28c1.75-1.38,4.3-1.28,6.03,0.12
			c0.55,0.45,1.55,1.44,1.05,2.17c-0.27,0.4-1.69,0.52-2.17,0.67c0.82-0.37,4.17,0.38,3.51,1.77c-0.31,0.65-1.95,0.07-2.43-0.07
			c0,0,0,0.15,0,0.15c1.79,0.98,2.53,1.98,2.32,4.21c-0.1,1.03-0.58,2.96-1.8,3.11c-0.63,0.07-1.35-0.32-1.34-0.97
			c1.5,1.49-0.62,5.49-2.51,3.52c-0.74-0.77-0.38-2.07,0.32-2.74c-1.12-0.64-3.54-4.04-1.82-4.95c-0.81,0.02-4.54-1.25-3.35-2.32
			c0.31,1.25-1.23,2.86-2.46,2.22c0.76,1.66-1.48,2.9-2.86,2.96c0.84,1.06-1.76,2.32-2.55,0.78L385.54,100.32z"/>
	</g>
	<g>
		<path class="st13" d="M257.59,86.73c0,0-2.19-8.37,8.66-10.35l-0.83,10.05L257.59,86.73z"/>
		<g>
			<path class="st14" d="M214.15,107.85c-2.37,0-4.58-0.48-6.62-1.44c-9.85-4.65-10.94-18.64-10.99-19.23
				c-0.15-2.11,1.44-3.94,3.55-4.09c2.1-0.15,3.93,1.44,4.08,3.54c0.21,2.81,1.82,10.6,6.64,12.86c3.98,1.87,10.14-0.03,17.84-5.5
				c1.72-1.22,4.11-0.82,5.34,0.9c1.22,1.72,0.82,4.11-0.91,5.34C225.95,105.31,219.61,107.85,214.15,107.85z"/>
		</g>
		<g>
			<g>
				<path class="st6" d="M234.51,115.04c1.06-2.79,2.05-5.63,3.2-8.39c-0.77-0.06-1.56-0.16-2.35-0.31
					c-3.71-0.71-6.86-2.22-9.43-4.53c-2.58-2.31-4.56-5.24-5.97-8.78c-1.4-3.54-2.22-7.57-2.45-12.09
					c-0.23-4.51,0.13-9.28,1.09-14.3c0.98-5.12,2.4-9.71,4.27-13.77c1.87-4.06,4.11-7.48,6.72-10.26c2.61-2.78,5.54-4.77,8.78-5.97
					c3.24-1.2,6.72-1.45,10.44-0.74c2.94,0.56,5.53,1.67,7.78,3.31c1.08-2.16,2.25-4.29,3.36-6.41c1.31-2.51,2.53-5.06,3.7-7.64
					c0.5-1.1,0.93-2.24,1.38-3.36c-3.76-2.15-7.98-3.67-12.65-4.56c-6.62-1.26-12.86-1.03-18.7,0.72
					c-5.85,1.74-11.11,4.66-15.79,8.76c-4.68,4.1-8.66,9.24-11.92,15.43c-3.26,6.19-5.62,13.1-7.08,20.72
					c-1.46,7.63-1.81,14.92-1.06,21.87c0.75,6.95,2.55,13.2,5.39,18.73c2.84,5.54,6.66,10.19,11.45,13.96
					c4.46,3.52,9.72,5.94,15.77,7.28C231.88,121.52,233.26,118.31,234.51,115.04z"/>
				<path class="st7" d="M286.34,57.5c-0.75-6.95-2.55-13.2-5.39-18.73c-2.84-5.54-6.66-10.19-11.45-13.96
					c-1.29-1.02-2.65-1.94-4.07-2.77c-0.45,1.12-0.88,2.26-1.38,3.35c-1.19,2.57-2.38,5.13-3.7,7.64c-1.12,2.13-2.3,4.27-3.39,6.45
					c0.39,0.3,0.77,0.6,1.13,0.93c2.57,2.31,4.59,5.24,6.04,8.8c1.45,3.55,2.3,7.56,2.54,12.03c0.24,4.47-0.13,9.26-1.11,14.37
					c-0.96,5.02-2.38,9.58-4.25,13.7c-1.88,4.11-4.15,7.55-6.81,10.32c-2.66,2.77-5.61,4.75-8.86,5.95
					c-2.39,0.88-4.88,1.25-7.47,1.11c-1.27,3.02-2.35,6.13-3.51,9.19c-1.15,3.03-2.44,5.99-3.77,8.94c0.3,0.06,0.6,0.13,0.9,0.18
					c6.62,1.27,12.85,1.03,18.7-0.72c5.84-1.74,11.11-4.66,15.79-8.76c4.68-4.1,8.65-9.24,11.92-15.43
					c3.26-6.19,5.62-13.09,7.08-20.72C286.74,71.74,287.09,64.45,286.34,57.5z"/>
			</g>
			<g>
				<path class="st8" d="M243.49,128.97c-6.62-1.27-12.33-3.79-17.12-7.56c-4.79-3.77-8.61-8.43-11.45-13.96
					c-2.84-5.54-4.64-11.78-5.39-18.73c-0.75-6.95-0.4-14.24,1.06-21.87c1.46-7.62,3.81-14.53,7.08-20.72
					c3.26-6.19,7.23-11.33,11.92-15.43c4.68-4.1,9.94-7.02,15.79-8.76c5.84-1.74,12.08-1.98,18.7-0.72
					c6.62,1.26,12.33,3.79,17.12,7.56c4.79,3.78,8.61,8.43,11.45,13.96c2.84,5.54,4.64,11.78,5.39,18.74
					c0.75,6.96,0.4,14.25-1.06,21.87c-1.46,7.63-3.82,14.53-7.08,20.72c-3.26,6.19-7.23,11.33-11.92,15.43
					c-4.68,4.1-9.95,7.02-15.79,8.76C256.34,129.99,250.11,130.24,243.49,128.97z M247.06,110.31c3.61,0.69,7.04,0.44,10.29-0.77
					c3.24-1.2,6.2-3.18,8.86-5.95c2.66-2.77,4.93-6.21,6.81-10.32c1.88-4.11,3.3-8.68,4.25-13.7c0.98-5.12,1.35-9.91,1.11-14.37
					c-0.24-4.46-1.09-8.48-2.54-12.03c-1.45-3.55-3.47-6.49-6.04-8.8c-2.58-2.31-5.67-3.81-9.28-4.5
					c-3.71-0.71-7.19-0.46-10.44,0.74c-3.25,1.2-6.17,3.19-8.78,5.97c-2.61,2.78-4.85,6.2-6.72,10.26
					c-1.87,4.06-3.29,8.65-4.27,13.77c-0.96,5.02-1.32,9.78-1.09,14.3c0.23,4.52,1.04,8.54,2.45,12.09c1.4,3.54,3.39,6.47,5.97,8.78
					C240.2,108.09,243.34,109.6,247.06,110.31z"/>
			</g>
		</g>
		<g>
			<path class="st10" d="M311,72.77l0.29,14.07c0,0-4.02,3.6-7.62,0L305,71L311,72.77z"/>
			<path class="st2" d="M294.43,185c-0.23-0.18-1.8-0.91-2.01-1.09c-0.84,1.26-1.43,1.96-2.44,3c2.48,2.16,1.84,4.79,1.84,4.79
				s-1.75,1.51-2.44,1.85c-2.19,1.08-6.23,2.58-6.23,2.58l10.17,0.8l7.54-7.72C298.18,187.71,296.14,186.35,294.43,185z"/>
			<path class="st2" d="M254.6,185.55c-1.62-0.28-3.66,0.96-4.98,0c-0.31,2.83-0.25,4.37-0.25,4.37l-15.04,6.2h19.21
				c0.17-2.05-0.19-4.01,0.08-5.91C253.76,189.25,254.42,186.49,254.6,185.55z"/>
			<path class="st14" d="M272.11,117.28l-17,32.3c0,0,6.89,5.83,13.67,7.77l12.74-38.05L272.11,117.28z"/>
			<path class="st2" d="M290.72,187.72c1.02-1.04,1.86-2.29,2.7-3.55c-4.4-3.77-6.55-7.65-12.52-14.33
				c-2.47-2.77,4.08-18.6,5.67-21.26c2.86-4.77,3.3-8.23,5.53-16.4l-16.6,6.2c-3.95,14.15-8.55,28.31-3.94,35.06
				c4.88,7.14,13.53,12.89,17.71,15.76C289.42,189.31,290.58,187.62,290.72,187.72z"/>
			<g>
				<path class="st3" d="M262.77,85.06c-0.23,0-0.46-0.07-0.66-0.21c-0.5-0.36-0.62-1.07-0.26-1.57c1.34-1.86,1.63-3.4,1.63-3.41
					c0.11-0.61,0.69-1.02,1.31-0.91c0.61,0.11,1.02,0.69,0.91,1.3c-0.01,0.08-0.36,2.02-2.02,4.33
					C263.46,84.9,263.12,85.06,262.77,85.06z"/>
			</g>
			<path class="st15" d="M290.92,135.6c4.94-13.57,9.16-34.86,10.74-43.35c-0.88-0.37-1.75-0.64-2.44-0.83
				c-1.47-0.4-3.22-0.88-4.73-0.41c-0.76,0.24-1.44,0.63-2.11,1.05c-0.62,1.84-0.87,3.4-0.87,3.4s-10.61,20.29-17.53,34.12
				C279.86,130.89,285.6,132.82,290.92,135.6z"/>
			<path class="st10" d="M273.79,129.99C273.79,129.99,273.78,129.99,273.79,129.99c-0.62,1.22-1.2,2.4-1.74,3.5c0,0,0,0,0,0
				c-1.36,2.41-2.83,4.64-4.25,6.78c-13.66,20.59-18.81,37-19.73,44.77c1.3,1.02,6.24,1.59,7.88,1.88
				c2.52-12.88,9.08-21.09,20.82-30.8c3.93-3.25,6.87-7.38,9.46-10.81c1.54-2.04,3.07-5.32,4.54-9.29
				C285.44,133.23,279.67,131.3,273.79,129.99z"/>
			<g>
				<path class="st3" d="M260.54,135.65c-1.59,0-3.07-0.99-3.62-2.57c-0.69-2,0.37-4.18,2.36-4.87c4.64-1.61,11.76-7.96,16.57-14.77
					c9.74-13.82,16.58-21.48,16.87-21.8c1.41-1.57,3.83-1.7,5.4-0.29c1.57,1.41,1.7,3.83,0.29,5.4l0,0
					c-0.07,0.08-6.85,7.68-16.31,21.1c-4.74,6.72-13.12,15.09-20.31,17.59C261.37,135.58,260.95,135.65,260.54,135.65z"/>
			</g>
			<g>
				<path class="st3" d="M298.97,93.52c-0.09,0-0.18,0-0.27-0.01c-1.98-0.15-3.47-1.87-3.33-3.86c0.15-2.07,0.96-4.45,1.05-4.71
					c0.65-1.88,2.7-2.88,4.58-2.23c1.88,0.65,2.88,2.7,2.23,4.58c-0.23,0.66-0.61,2.03-0.67,2.89
					C302.42,92.07,300.84,93.51,298.97,93.52z"/>
			</g>
			<g>
				<path class="st12" d="M300.02,89.72c0.64,0.73,1.33,1.38,2.07,1.98c0.26-0.45,0.42-0.97,0.47-1.52
					c0.06-0.86,0.45-2.23,0.67-2.89c0.65-1.88-0.35-3.93-2.23-4.58c-1.56-0.54-3.23,0.06-4.13,1.35
					C297.2,86.09,298.86,88.38,300.02,89.72z"/>
			</g>
			<g>
				<path class="st3" d="M309.3,81.92c-0.08,3.76-3.2,6.74-6.96,6.65l0,0c-3.76-0.08-6.74-3.2-6.65-6.96l0.11-4.73
					c0.08-3.76,3.2-6.74,6.96-6.66l0,0c3.76,0.08,6.74,3.2,6.66,6.96L309.3,81.92z"/>
			</g>
			<g>
				<path class="st3" d="M255.13,134.6c-1.57,0-3.37-0.42-5.38-1.27c-0.57-0.24-0.84-0.9-0.6-1.47c0.24-0.57,0.9-0.84,1.47-0.6
					c2.96,1.25,5.32,1.42,6.82,0.52c0.53-0.32,1.22-0.15,1.55,0.38c0.32,0.53,0.15,1.22-0.38,1.54
					C257.62,134.29,256.46,134.6,255.13,134.6z"/>
			</g>
			<g>
				<path class="st3" d="M256.48,136.23c-1.79,0-3.23-0.35-4.86-0.74l-0.51-0.12c-0.6-0.14-0.98-0.75-0.83-1.36
					c0.14-0.6,0.75-0.98,1.36-0.83l0.51,0.12c2.73,0.66,4.53,1.1,8.53,0.07c0.61-0.15,1.22,0.21,1.37,0.81
					c0.16,0.6-0.21,1.22-0.81,1.37C259.31,136.04,257.8,136.23,256.48,136.23z"/>
			</g>
			<g>
				<path class="st3" d="M255.05,132.38c-3.53,0-5.95-2.17-6.08-2.29c-0.46-0.42-0.49-1.13-0.07-1.59c0.42-0.46,1.13-0.49,1.59-0.07
					c0.11,0.1,2.7,2.38,6.18,1.49c0.61-0.16,1.22,0.21,1.37,0.81c0.16,0.6-0.21,1.22-0.81,1.37
					C256.48,132.29,255.74,132.38,255.05,132.38z"/>
			</g>
			<g>
				<path class="st3" d="M257.41,131.17c-0.04,0-0.09,0-0.13-0.01c-3.83-0.45-5.39-3.21-5.46-3.33c-0.3-0.54-0.1-1.23,0.45-1.53
					c0.54-0.3,1.22-0.1,1.52,0.44c0.05,0.09,1.12,1.87,3.75,2.18c0.62,0.07,1.06,0.63,0.99,1.25
					C258.46,130.75,257.98,131.17,257.41,131.17z"/>
			</g>
			<g>
				<path class="st3" d="M270.86,86.69c-0.06,0-0.12,0-0.18-0.02c-1.86-0.31-6.96-1.11-8.14-1.11c-0.62,0-1.13-0.5-1.13-1.13
					c0-0.62,0.5-1.13,1.13-1.13c1.58,0,7.81,1.02,8.51,1.14c0.61,0.1,1.03,0.68,0.93,1.29C271.88,86.3,271.41,86.69,270.86,86.69z"
					/>
			</g>
			<g>
				<path class="st3" d="M270.14,89.05c-0.1,0-0.2-0.01-0.3-0.04c-0.05-0.01-5.41-1.47-7.9-1.61c-0.62-0.04-1.09-0.57-1.06-1.19
					c0.04-0.62,0.57-1.11,1.19-1.06c2.73,0.16,8.13,1.63,8.36,1.69c0.6,0.16,0.95,0.78,0.79,1.38
					C271.09,88.72,270.64,89.05,270.14,89.05z"/>
			</g>
			<g>
				<path class="st3" d="M269.6,91.53c-0.12,0-0.23-0.02-0.35-0.05c-5.07-1.64-6.32-1.74-6.99-1.79c-0.29-0.02-0.56-0.05-0.94-0.14
					c-0.6-0.16-0.96-0.77-0.8-1.38c0.16-0.6,0.78-0.96,1.38-0.8c0.18,0.05,0.31,0.06,0.54,0.08c0.82,0.07,2.18,0.18,7.5,1.89
					c0.59,0.19,0.92,0.83,0.73,1.42C270.52,91.22,270.08,91.53,269.6,91.53z"/>
			</g>
			<g>
				<path class="st3" d="M267.38,93.33c-0.03,0-0.05,0-0.08,0c-5.08-0.36-5.29-3.12-5.29-3.43l2.25-0.05c0,0,0-0.03-0.01-0.07
					c0,0.01,0.23,1.1,3.21,1.31c0.62,0.04,1.09,0.58,1.04,1.2C268.45,92.88,267.96,93.33,267.38,93.33z"/>
			</g>
			<path class="st3" d="M263.13,91.98c0,0-0.98-0.45-2.5-0.45c-1.28,0-3.02-2.17-3.02-4.43c0,0-0.63-6.65,6.39-3.64L263.13,91.98z"
				/>
			<path class="st14" d="M285.22,111.73l-9.84,48.43c0,0,15.23,3.67,24.58-1.71l2.36-67.29C302.32,91.16,291.87,87.51,285.22,111.73
				z"/>
			<path class="st4" d="M287.5,138.38l9.42-0.51c0,0,0.23,14.41-5.4,13.85C291.52,151.72,283.81,153.4,287.5,138.38z"/>
			<path class="st4" d="M299.33,90.01c-1.03-0.93-2.37-1.44-3.76-1.44c-1.6,0-3.13,0.68-4.19,1.87c-0.29,0.32-7.17,8.02-17,21.96
				c-0.64,0.91-1.35,1.84-2.11,2.77l-1,1.23l1.09,1.15c1.16,1.23,2.38,2.42,3.55,3.58c0.64,0.63,1.28,1.25,1.91,1.89l1.39,1.39
				l1.26-1.51c1.13-1.35,2.17-2.69,3.1-4c9.4-13.33,16.12-20.86,16.18-20.93C301.83,95.65,301.63,92.08,299.33,90.01z"/>
			
				<rect x="273.69" y="111.98" transform="matrix(0.6683 -0.7439 0.7439 0.6683 3.4687 245.052)" class="st16" width="5.69" height="13.31"/>
			<path class="st10" d="M288.85,84.62l8.65,3.39c0,0,3.68-17.91,0.99-20.59C298.5,67.42,288.85,66.51,288.85,84.62z"/>
			<path class="st10" d="M299,70.54c0.31,0.46,7.02,4.94,12.29,3.7c0,0-0.9-7.92-13.21-6.77L299,70.54z"/>
			<path class="st17" d="M304.19,78.98c0,2.08-1.69,3.76-3.76,3.76c-2.08,0-3.76-1.68-3.76-3.76c0-2.08,1.68-3.76,3.76-3.76
				C302.5,75.22,304.19,76.9,304.19,78.98z"/>
			<path class="st18" d="M312.68,79.72c0,1.81-1.46,3.27-3.27,3.27c-1.81,0-3.27-1.47-3.27-3.27c0-1.81,1.47-3.27,3.27-3.27
				C311.22,76.45,312.68,77.91,312.68,79.72z"/>
			<path class="st17" d="M304.19,78.98c0,0,1.25-0.49,1.99,0.26"/>
		</g>
		<g>
			<g>
				<path class="st12" d="M194.7,85.57c-0.09,0-0.18,0-0.27-0.01c-1.98-0.14-3.47-1.87-3.33-3.85c0.15-2.07,0.96-4.45,1.05-4.71
					c0.65-1.88,2.7-2.88,4.58-2.23c1.88,0.65,2.88,2.7,2.23,4.58c-0.23,0.66-0.61,2.03-0.67,2.89
					C198.15,84.13,196.57,85.57,194.7,85.57z"/>
			</g>
			<g>
				<path class="st2" d="M192.56,185.53c5.97,2.75,10.86,2.7,11.26,2.75c3.89-6.92,15.61-25.67,4.95-41.05l-15.08-8.1
					C193.68,139.13,208.76,154.87,192.56,185.53z"/>
				<path class="st2" d="M200.36,191.66c0,0,1.39-2.83,2.48-4.72c-0.82-0.1-4.47-0.25-5.97-0.82c-1.41,2.88-4.48,7.09-6.64,9.98
					h20.26L200.36,191.66z"/>
				<path class="st10" d="M225.42,148.14c-2.52-4.89-20.82-19.62-22.48-28.08c-0.15-0.75-0.27-1.52-0.38-2.3
					c-2.94,1.55-6.75,1.98-9.78,2.13c-3.43,0.17-5.48,0.39-8.8-1.23c0.28,5.25-0.57,10.32,2.49,15.64
					c6.08,10.55,26.27,19.59,28.53,23.07c4.44,6.88,5.98,21.81,7.49,30.92c2.38,0,8.02-0.1,10.33-0.93
					C232.05,182.69,233.32,163.46,225.42,148.14z"/>
				<path class="st2" d="M231.73,190.84c0,0-0.66-2.66-0.85-3.91c-2.32,0.81-3.67-0.01-6.05,0c0.36,2.26,0.09,6.48,0.3,8.96h19.21
					L231.73,190.84z"/>
				<path class="st14" d="M192.93,122.65c2.93-0.13,9.07-0.95,11.54-3.41c-0.5-4.02-2.3-10.48-1.67-15.68
					c2.14-17.63-6.46-22.91-6.46-22.91s-3.96-2.77-7.17,0.54c-4.84,4.99-9.57,19.09-9.09,39.94
					C183.4,122.85,189.42,122.81,192.93,122.65z"/>
			</g>
			<g>
				<path class="st3" d="M237.07,128.21c-0.29,0-0.58-0.03-0.87-0.1c-13.87-3.22-25.62-11.53-33.97-24.04
					c-6.26-9.37-8.42-17.78-8.51-18.13c-0.52-2.05,0.73-4.13,2.78-4.64c2.05-0.52,4.13,0.72,4.64,2.77
					c0.04,0.15,2.03,7.72,7.6,15.97c7.34,10.89,17.17,17.82,29.19,20.62c2.06,0.48,3.34,2.53,2.86,4.59
					C240.39,127.02,238.81,128.21,237.07,128.21z"/>
			</g>
			<path class="st4" d="M228.64,116.72c-7.64-3.62-14.15-9.36-19.34-17.05c-5.5-8.15-7.49-15.69-7.5-15.76c-0.51-2-2.3-3.4-4.36-3.4
				c-0.37,0-0.74,0.05-1.1,0.14c-1.17,0.29-2.15,1.02-2.76,2.06c-0.62,1.03-0.79,2.24-0.5,3.41l0.02,0.08
				c0.59,2.58,2.96,11.64,8.59,20.06c6.74,10.09,15.88,17.63,26.43,21.83c0.08,0.03,0.17,0.05,0.25,0.05c0.13,0,0.27-0.04,0.38-0.12
				c0.18-0.13,0.3-0.33,0.3-0.56v-10.13C229.03,117.06,228.88,116.83,228.64,116.72z"/>
			<g>
				<path class="st3" d="M239.91,128.49c-1.23,0-2.53-0.14-3.9-0.41c-0.61-0.12-1-0.71-0.88-1.32c0.12-0.61,0.71-1.01,1.33-0.88
					c3.35,0.67,6.15,0.43,8.31-0.73c0.55-0.29,1.23-0.08,1.52,0.46c0.29,0.55,0.08,1.23-0.46,1.52
					C244.12,128.04,242.14,128.49,239.91,128.49z"/>
			</g>
			<g>
				<path class="st3" d="M240.07,125.97c-0.54,0-1.09-0.04-1.65-0.12c-0.62-0.09-1.04-0.66-0.95-1.28c0.09-0.62,0.66-1.04,1.28-0.95
					c3.6,0.53,6.93-1.34,6.97-1.36c0.54-0.31,1.23-0.12,1.54,0.42c0.31,0.54,0.12,1.22-0.41,1.54
					C246.7,124.29,243.74,125.97,240.07,125.97z"/>
			</g>
			<g>
				<path class="st3" d="M239.07,123.75c-0.17,0-0.35-0.01-0.54-0.02c-0.62-0.04-1.09-0.57-1.05-1.19c0.04-0.62,0.57-1.09,1.19-1.05
					c2.66,0.16,4.06-1.45,4.07-1.47c0.39-0.48,1.1-0.56,1.58-0.16c0.48,0.39,0.56,1.1,0.16,1.58
					C244.42,121.54,242.58,123.75,239.07,123.75z"/>
			</g>
			<g>
				<path class="st3" d="M235.18,121.86c-0.62,0-1.13-0.5-1.13-1.13c0-0.62,0.5-1.12,1.12-1.13c0.1,0,2.32-0.05,3.59-1.88
					c0.35-0.51,1.06-0.64,1.57-0.28c0.51,0.35,0.64,1.05,0.28,1.57C238.66,121.82,235.32,121.86,235.18,121.86z"/>
			</g>
			<g>
				<path class="st3" d="M231.5,96.45c-0.35,0-0.7-0.16-0.92-0.47c-1.66-2.31-2.01-4.25-2.02-4.34c-0.11-0.61,0.31-1.19,0.92-1.3
					c0.61-0.11,1.19,0.3,1.3,0.92c0,0.01,0.3,1.54,1.63,3.4c0.36,0.51,0.25,1.21-0.26,1.57C231.96,96.38,231.73,96.45,231.5,96.45z"
					/>
			</g>
			<g>
				<path class="st3" d="M231.74,96.95c-0.07,0-0.14-0.01-0.21-0.02c-2.46-0.47-7.35-0.48-7.4-0.48c-0.62,0-1.13-0.5-1.13-1.13
					s0.5-1.13,1.13-1.13c0.21,0,5.15,0.01,7.82,0.52c0.61,0.12,1.01,0.7,0.89,1.32C232.74,96.57,232.27,96.95,231.74,96.95z"/>
			</g>
			<g>
				<path class="st3" d="M223.51,99.29c-0.56,0-1.04-0.42-1.12-0.99c-0.08-0.62,0.36-1.18,0.98-1.26c0.71-0.09,7.04-0.86,9.08-0.5
					c0.61,0.11,1.02,0.69,0.91,1.3c-0.11,0.61-0.69,1.02-1.3,0.91c-1.29-0.23-5.84,0.2-8.41,0.51
					C223.6,99.29,223.55,99.29,223.51,99.29z"/>
			</g>
			<g>
				<path class="st3" d="M224.97,101.84c-0.53,0-1-0.37-1.1-0.91c-0.12-0.61,0.28-1.2,0.89-1.32c2.73-0.53,3.45-0.76,4.77-1.18
					c0.62-0.2,1.39-0.45,2.54-0.78c0.6-0.17,1.22,0.17,1.39,0.77c0.17,0.6-0.17,1.22-0.77,1.39c-1.12,0.32-1.84,0.56-2.47,0.76
					c-1.36,0.44-2.18,0.7-5.04,1.25C225.11,101.83,225.04,101.84,224.97,101.84z"/>
			</g>
			<g>
				<path class="st3" d="M227.4,103.63c-0.54,0-1.01-0.39-1.11-0.94c-0.1-0.61,0.31-1.2,0.92-1.3c3.65-0.63,4.37-1.98,4.38-2
					c0.2-0.59,0.83-0.91,1.42-0.72c0.59,0.2,0.91,0.83,0.72,1.42c-0.14,0.44-1.12,2.65-6.13,3.51
					C227.52,103.62,227.46,103.63,227.4,103.63z"/>
			</g>
			<path class="st3" d="M231.74,102.27l-0.86-9.17c0,0,4.02,0.29,4.02,4.51C234.89,99.02,234.48,100.58,231.74,102.27z"/>
			<g>
				<path class="st3" d="M206.41,72.39c1.02,3.84-1.27,7.78-5.12,8.79l0,0c-3.84,1.02-7.78-1.27-8.8-5.11l-1.28-4.83
					c-1.02-3.84,1.27-7.78,5.12-8.79l0,0c3.84-1.02,7.78,1.27,8.8,5.11L206.41,72.39z"/>
			</g>
			<g>
				<path class="st10" d="M205.73,69.83c-0.55,1.52-1.32,3.03-2.51,4.06c-2.9,2.5-7.34,3.17-10.86,1.67l0.13,0.5
					c1.02,3.84,4.95,6.13,8.8,5.11c3.84-1.02,6.13-4.95,5.12-8.79L205.73,69.83z"/>
			</g>
			<path class="st10" d="M192.47,75.8c-2.7-1.73-5.62-8.33-1.35-9.77c2.64-0.89,1.58,7.25,1.58,9.55L192.47,75.8z"/>
			<path class="st10" d="M190.3,66.57c-3.27-2.37,0.78-9.06,8.85-9.06c4.99,0,4.95,3.82,1.5,5.88c-2.86,1.71-7.3,0.71-9.45,3.63
				L190.3,66.57z"/>
			<path class="st10" d="M205.73,71.31c-1.14-1.73-3.4-5.25-4.27-7.22c-0.56-1.26-1.32-3.4,1.2-1.88c2.11,1.27,3.25,5.76,3.05,8.04
				L205.73,71.31z"/>
		</g>
	</g>
	<g>
		<g>
			<path class="st7" d="M148.71,87.31c-1.24,1.15-2.61,2.22-3.73,3.5l-16.25,33.94l12.1-15.61l12.85-26.56
				C152.03,84.18,150.38,85.76,148.71,87.31z"/>
			<path class="st7" d="M139.07,81.74c1.18-1.61,2.31-3.51,3.65-5.17l-28.44-13.89l-26.98,2.7l47.28,21.8
				C136.13,85.42,137.69,83.63,139.07,81.74z"/>
			<path class="st6" d="M143.13,76.77c-1.51,1.89-2.74,4.12-4.19,5.88c-1.3,1.59-2.61,3.17-3.95,4.73l21.49,9.91l7.8-10.19
				L143.13,76.77z"/>
			<path class="st8" d="M110.76,116.16l8.34-17.41L75.43,77.84l7.01-14.65l71.92-42.35l19.63,9.4l-28.85,60.26l11.89,5.69
				l-8.07,16.86l-11.89-5.69l-8.34,17.41L110.76,116.16z M143.11,48.58l-1.11-0.53l-38.47,22.52l23.63,11.31L143.11,48.58z"/>
			<polygon class="st7" points="157.02,96.17 164.29,87.1 158.59,99.75 148.68,113.58 			"/>
			<path class="st7" d="M154.24,82.08l28.36-62.17l-8.62,10.31l-28.85,60.26C145.94,89.71,153.78,82.54,154.24,82.08z"/>
			<polygon class="st19" points="82.44,63.19 95.25,52.03 165.53,11.7 154.36,20.83 			"/>
			<polygon class="st9" points="154.36,20.83 173.98,30.23 182.6,19.91 165.53,11.7 			"/>
		</g>
		<path class="st3" d="M130.27,66.24c-2.41-1.72-4.08-0.96-5.24-0.79c-1.27,0.2-2.21-0.5-2.21-0.5c-0.52-0.34-1.22-0.19-1.56,0.33
			c-0.34,0.52-0.19,1.22,0.33,1.56c0.05,0.03,1.04,0.66,2.75,1.11c-1.87,1.71-3.78,3.77-3.89,3.88c-0.42,0.46-0.39,1.17,0.06,1.59
			c0.22,0.2,0.49,0.3,0.76,0.3c0.3,0,0.61-0.12,0.83-0.36c0.02-0.02,1.35-1.46,2.84-2.89c-1.38,1.73-2.67,3.52-2.91,3.85
			c-0.36,0.51-0.25,1.21,0.26,1.57c0.2,0.14,0.43,0.21,0.66,0.21c0.35,0,0.7-0.16,0.92-0.47c0.74-1.03,1.78-2.42,2.77-3.67
			c-0.37,0.73-0.84,1.56-1.78,3.07c-0.33,0.53-0.17,1.22,0.36,1.55c0.18,0.11,0.39,0.17,0.59,0.17c0.38,0,0.74-0.19,0.96-0.53
			c0.39-0.62,0.7-1.14,0.96-1.58c-0.2,0.49-0.03,1.06,0.43,1.36c0.19,0.12,0.4,0.18,0.61,0.18c0.37,0,0.73-0.18,0.94-0.51
			c1.05-1.62,1.57-2.95,1.79-3.99l0.05,0.03C132.18,68.56,131.42,67.06,130.27,66.24z M128.02,74.16c0.37-0.65,0.63-1.15,0.87-1.64
			C128.68,73,128.4,73.54,128.02,74.16z"/>
		<path class="st10" d="M95.8,79.01c-3.56-0.2-8.73,6.77-3.44,8.67c-4.79-0.11-5.96,6.66-1.57,8.53c-7.69-1.5-6.79,8.47-3.16,12.07
			c-2.46-0.39-4.96,1.96-4.58,4.53c0.38,2.58,1.4,6.16,7.79,8.08c6.39,1.92,10.29-1.67,13.47-5.06c2.04,4.16,12.09-1.46,10.98-6.44
			c3.8,1.35,7.2-2.96,7.27-6.4c0.07-3.36-2.28-5.92-4.52-8.11c1.58-1.44,1.88-4.12,1.46-6.16c-0.69-3.4-4.94-3.74-4.94-6.44
			c0-0.95,0.18-3.89-0.63-5.18c-1.28-2.05-3.52-4.09-6.33-3.08C95.8,68.41,95.8,79.01,95.8,79.01z"/>
		<path class="st2" d="M102.68,188.29c-3.25-0.57-3.77-0.4-6.98-1.19l-7.43,9.08h28.81l-16.73-4.5L102.68,188.29z"/>
		<path class="st2" d="M156.34,190.89l-1.7-2.24c-1.54,0.99-3.14,1.84-4.87,2.45l4.55,5.08h16.88L156.34,190.89z"/>
		<path class="st2" d="M92.65,188.32c3.23,0.79,6.46,1.61,9.72,2.17l23.79-29.27l-4.05-11.63l-16.66-19.21l4.8,27.22L92.65,188.32z"
			/>
		<path class="st10" d="M125.01,122.31c-6.53-1.73-15.38,0.46-21.73,2.86c0,0,3.9,15.51,6.45,20.14
			c7.45,13.47,39.66,47.09,39.66,47.09c1.77-0.6,5.18-3.1,6.74-4.11L125.01,122.31z"/>
		<path class="st14" d="M102.42,131.23c6.3-2.37,18.95-6.36,25.44-4.74c0,0-8.59-20.19-12.49-24.64c-2.63-3-17.01-11.46-17.01-0.4
			C98.36,116.6,102.42,131.23,102.42,131.23z"/>
		<g>
			<path class="st3" d="M108.02,100.51c-0.08,0.03-0.17,0.05-0.26,0.08c-1.92,0.52-3.9-0.62-4.42-2.54
				c-0.54-2.01-0.57-4.52-0.57-4.79c-0.01-1.99,1.6-3.61,3.59-3.62c1.99-0.01,3.61,1.6,3.62,3.58c0,0.7,0.1,2.12,0.32,2.95
				C110.8,98.01,109.79,99.89,108.02,100.51z"/>
		</g>
		<g>
			<path class="st12" d="M110.43,96.95c-0.01-0.26-0.05-0.52-0.12-0.78c-0.22-0.83-0.31-2.25-0.32-2.95
				c-0.01-1.99-1.63-3.59-3.62-3.58c-1.99,0.01-3.6,1.63-3.59,3.62c0,0.04,0,0.15,0,0.3C104.56,95.56,107.49,96.51,110.43,96.95z"/>
		</g>
		<g>
			<path class="st3" d="M113.95,86.15c1.16,3.58-0.8,7.42-4.37,8.58l0,0c-3.58,1.16-7.42-0.8-8.58-4.37l-1.46-4.5
				c-1.16-3.58,0.8-7.42,4.37-8.58l0,0c3.58-1.16,7.42,0.79,8.58,4.37L113.95,86.15z"/>
		</g>
		<path class="st3" d="M154.06,82.53c-0.14-0.12-0.31-0.19-0.48-0.23c0.16-0.18,0.34-0.37,0.54-0.59c0.42-0.46,0.39-1.17-0.07-1.59
			c-0.06-0.05-0.12-0.1-0.18-0.13c0.31-0.45,0.26-1.07-0.15-1.46c-0.32-0.3-0.77-0.37-1.15-0.23c0.51-0.52,0.83-0.88,0.87-0.92
			c0.41-0.47,0.37-1.18-0.1-1.59c-0.47-0.41-1.18-0.37-1.59,0.1c-0.03,0.03-2.47,2.79-4.99,4.22c-1.09-1.65-2.56-2.23-2.64-2.26
			c-0.58-0.22-1.21,0.07-1.44,0.65c-0.22,0.57,0.06,1.22,0.63,1.46c0.05,0.02,0.91,0.38,1.58,1.41c-0.09,0.25-0.2,0.62-0.26,1.04
			c-16.56,22.42-38.53,14.46-39.52,14.08c-1.97-0.75-4.18,0.22-4.94,2.19c-0.76,1.97,0.21,4.19,2.18,4.95
			c0.27,0.1,5.64,2.15,13.31,2.15c1.54,0,3.18-0.08,4.88-0.28c8.27-0.96,20.5-5.72,30.27-18.32c0.16-0.09,0.39-0.23,0.69-0.45
			c0.2-0.13,0.4-0.27,0.61-0.44l-0.03-0.02c0.58-0.49,1.29-1.17,2.1-2.14C154.6,83.64,154.53,82.93,154.06,82.53z"/>
		<path class="st4" d="M123.56,96.54l-0.93,0.2c-2.27,0.49-4.63,0.74-7,0.74c-5.81,0-9.84-1.46-10.28-1.63
			c-0.52-0.2-1.06-0.3-1.61-0.3c-1.87,0-3.52,1.13-4.2,2.88c-0.43,1.12-0.51,2.4,0.08,3.44c2.2,3.9,8.23,5.48,16.05,5.48
			c1.66,0,3.33-0.1,4.96-0.28c1-0.12,2.04-0.29,3.11-0.51l0.66-0.17c0,0-0.94-2.84-1.14-5.73
			C123.18,99.55,123.56,96.54,123.56,96.54z"/>
		<path class="st10" d="M99.38,89.48c2.36-1.5,3.18-4.32,2.92-7.13c2.07,1.39,3.71,0.54,5.01-1.85c3.93,5.5,9.91-2.68,1.75-5.65
			c-6.53-2.37-12.93,4.09-11.26,10.58L99.38,89.48z"/>
	</g>
</g>
<g id="DESIGNED_BY_FREEPIK" class="st0">
</g>
</svg>
