<svg xmlns="http://www.w3.org/2000/svg" xmlns:xlink="http://www.w3.org/1999/xlink" viewBox="0 0 495.26 442.55"><defs><style>.cls-1{fill:#edf6ff;}.cls-2{fill:url(#linear-gradient);}.cls-3{fill:url(#linear-gradient-2);}.cls-4{isolation:isolate;}.cls-5{clip-path:url(#clip-path);}.cls-6{fill:#2265b2;}.cls-7{fill:#0073aa;opacity:0.4;}.cls-7,.cls-9{mix-blend-mode:multiply;}.cls-8{clip-path:url(#clip-path-2);}.cls-33,.cls-9{fill:#f0caa4;}.cls-10{fill:#475269;}.cls-11{fill:url(#linear-gradient-4);}.cls-12{fill:#fff;}.cls-13{fill:url(#linear-gradient-5);}.cls-14{fill:#ef8a1a;}.cls-15{fill:url(#linear-gradient-6);}.cls-16{fill:url(#linear-gradient-7);}.cls-17,.cls-24,.cls-27,.cls-28,.cls-35{fill:none;stroke-miterlimit:10;}.cls-17,.cls-24{stroke:#56627e;}.cls-18{fill:url(#linear-gradient-8);}.cls-19{fill:#0d2168;}.cls-20{fill:#0c1a42;}.cls-21{fill:url(#linear-gradient-9);}.cls-22{clip-path:url(#clip-path-3);}.cls-23{fill:url(#linear-gradient-11);}.cls-24{stroke-width:0.75px;}.cls-25{fill:url(#linear-gradient-12);}.cls-26{fill:url(#linear-gradient-13);}.cls-27,.cls-28,.cls-35{stroke:#8296be;}.cls-27,.cls-28{stroke-width:0.5px;}.cls-28{stroke-dasharray:5.96 5.96;}.cls-29{fill:url(#linear-gradient-14);}.cls-30{fill:#edf7ff;}.cls-31{fill:url(#linear-gradient-15);}.cls-32{fill:url(#linear-gradient-16);}.cls-34{fill:url(#linear-gradient-17);}</style><linearGradient id="linear-gradient" x1="303.09" y1="276.08" x2="353" y2="276.08" gradientUnits="userSpaceOnUse"><stop offset="0.02" stop-color="#f0caa4"/><stop offset="0.35" stop-color="#f0cea8"/><stop offset="0.65" stop-color="#f2d8b3"/><stop offset="0.94" stop-color="#f4eac5"/><stop offset="1" stop-color="#f5efca"/></linearGradient><linearGradient id="linear-gradient-2" x1="468" y1="311.83" x2="508.47" y2="271.35" gradientUnits="userSpaceOnUse"><stop offset="0" stop-color="#f5efca"/><stop offset="0.06" stop-color="#f4eac5"/><stop offset="0.35" stop-color="#f2d8b3"/><stop offset="0.65" stop-color="#f0cea8"/><stop offset="0.98" stop-color="#f0caa4"/></linearGradient><clipPath id="clip-path" transform="translate(-141.92 -31.13)"><path class="cls-1" d="M585.29,349.19c1.16-28.14-5.62-55.71-14.74-82C562.18,243,550.41,227.4,552.3,200c1.27-18.39,5.18-36.8,3.27-55.11-4-38.53-41.05-56.87-74.29-66.56C393,52.57,294.19,64.69,214,111.05c-20.71,12-40.55,26.48-54.51,46s-21.41,44.68-15.65,67.83c7.17,28.81,32.45,49,46.32,75.14,14.09,26.56,15.74,57.86,23.53,87s25.6,59.33,55,65.51c24.73,5.21,49.24-8.14,73.92-14,39-9.32,79.46.09,119.38,2.13s85.27-6.36,108-39.65C580.28,385.89,584.55,367.38,585.29,349.19Z"/></clipPath><clipPath id="clip-path-2" transform="translate(-141.92 -31.13)"><path class="cls-2" d="M304.27,249.53l-1.18,50.81c0,13,1.83,16.83,17.83,17.89,10.95.72,28.79-4,28.79-17L353,233.86Z"/></clipPath><linearGradient id="linear-gradient-4" x1="299.79" y1="219.97" x2="347.78" y2="267.97" gradientUnits="userSpaceOnUse"><stop offset="0.02" stop-color="#f0caa4"/><stop offset="0.49" stop-color="#f3deb8"/><stop offset="1" stop-color="#f5efca"/></linearGradient><linearGradient id="linear-gradient-5" x1="272.64" y1="231.89" x2="289.63" y2="231.89" gradientUnits="userSpaceOnUse"><stop offset="0.01" stop-color="#ffce0c"/><stop offset="0.34" stop-color="#ffc90b"/><stop offset="0.97" stop-color="#ffc50b"/></linearGradient><linearGradient id="linear-gradient-6" x1="301.57" y1="202.36" x2="363.67" y2="202.36" xlink:href="#linear-gradient-5"/><linearGradient id="linear-gradient-7" x1="356.47" y1="239.29" x2="373.48" y2="239.29" xlink:href="#linear-gradient-5"/><linearGradient id="linear-gradient-8" x1="265.17" y1="202.75" x2="347" y2="202.75" gradientUnits="userSpaceOnUse"><stop offset="0" stop-color="#697a9c"/><stop offset="0.34" stop-color="#677899"/><stop offset="0.58" stop-color="#617090"/><stop offset="0.79" stop-color="#566480"/><stop offset="0.99" stop-color="#48536a"/><stop offset="0.99" stop-color="#475269"/></linearGradient><linearGradient id="linear-gradient-9" x1="434.87" y1="239.26" x2="529.72" y2="239.26" gradientUnits="userSpaceOnUse"><stop offset="0" stop-color="#697a9c"/><stop offset="0.3" stop-color="#5b6a88"/><stop offset="0.73" stop-color="#4c5871"/><stop offset="0.99" stop-color="#475269"/></linearGradient><clipPath id="clip-path-3" transform="translate(-141.92 -31.13)"><path class="cls-3" d="M508.85,271.73l.93,40.09c0,10.25-1.44,13.29-14.07,14.13-8.65.56-22.73-3.13-22.73-13.38l-2.59-53.21Z"/></clipPath><linearGradient id="linear-gradient-11" x1="442.09" y1="263.44" x2="528.41" y2="263.44" gradientUnits="userSpaceOnUse"><stop offset="0" stop-color="#f5efca"/><stop offset="0.51" stop-color="#f3deb8"/><stop offset="0.98" stop-color="#f0caa4"/></linearGradient><linearGradient id="linear-gradient-12" x1="307.65" y1="458.4" x2="500.39" y2="458.4" gradientUnits="userSpaceOnUse"><stop offset="0.01" stop-color="#bfceed"/><stop offset="0.22" stop-color="#bbcae9"/><stop offset="0.44" stop-color="#afbfde"/><stop offset="0.65" stop-color="#9cabcc"/><stop offset="0.86" stop-color="#8090b2"/><stop offset="1" stop-color="#697a9c"/></linearGradient><linearGradient id="linear-gradient-13" x1="367.73" y1="412.89" x2="527" y2="412.89" gradientUnits="userSpaceOnUse"><stop offset="0" stop-color="#d0e4f5"/><stop offset="0.2" stop-color="#cde0f5"/><stop offset="1" stop-color="#c6d6f6"/></linearGradient><linearGradient id="linear-gradient-14" x1="204.68" y1="45.14" x2="290.55" y2="45.14" gradientUnits="userSpaceOnUse"><stop offset="0" stop-color="#c6d6f6"/><stop offset="0.8" stop-color="#cde0f5"/><stop offset="1" stop-color="#d0e4f5"/></linearGradient><linearGradient id="linear-gradient-15" x1="519.16" y1="119.99" x2="596.76" y2="119.99" xlink:href="#linear-gradient-13"/><linearGradient id="linear-gradient-16" x1="142.64" y1="258.06" x2="195.36" y2="258.06" xlink:href="#linear-gradient-11"/><linearGradient id="linear-gradient-17" x1="142.64" y1="160" x2="257.87" y2="160" xlink:href="#linear-gradient-13"/></defs><title>contact</title><g class="cls-4"><g id="OBJECTS"><path class="cls-1" d="M585.29,349.19c1.16-28.14-5.62-55.71-14.74-82C562.18,243,550.41,227.4,552.3,200c1.27-18.39,5.18-36.8,3.27-55.11-4-38.53-41.05-56.87-74.29-66.56C393,52.57,294.19,64.69,214,111.05c-20.71,12-40.55,26.48-54.51,46s-21.41,44.68-15.65,67.83c7.17,28.81,32.45,49,46.32,75.14,14.09,26.56,15.74,57.86,23.53,87s25.6,59.33,55,65.51c24.73,5.21,49.24-8.14,73.92-14,39-9.32,79.46.09,119.38,2.13s85.27-6.36,108-39.65C580.28,385.89,584.55,367.38,585.29,349.19Z" transform="translate(-141.92 -31.13)"/><g class="cls-5"><path class="cls-6" d="M434.87,473.67l-2.16-88.46c0-63.76-43.89-95.66-107.64-95.66-70,0-75.13,34.63-76.3,116.62l-8.56,67.5Z" transform="translate(-141.92 -31.13)"/><path class="cls-7" d="M383.06,473.67V383.6h-.84c-21.75,37.77-54.66,69.06-94.59,90.07Z" transform="translate(-141.92 -31.13)"/><path class="cls-2" d="M304.27,249.53l-1.18,50.81c0,13,1.83,16.83,17.83,17.89,10.95.72,28.79-4,28.79-17L353,233.86Z" transform="translate(-141.92 -31.13)"/><g class="cls-8"><path class="cls-9" d="M349.06,236.83c0,30.83-22.45,55.84-50.16,55.84s-50.15-25-50.15-55.84S271.2,181,298.9,181,349.06,206,349.06,236.83Z" transform="translate(-141.92 -31.13)"/></g><path class="cls-10" d="M344.57,176.27c-17.41-7.26-26.47,4.92-40.18,11.41-5.29,2.5-14.69,6-21.17,6.37-5.7.32-15.93-11.05-16.47-5.55-1.82,18.7,13.64,23.52,18.81,37,3.91,10.21,5.73,35.47,5.73,35.47s42,4.77,50.79,4.26A17.19,17.19,0,0,0,353.7,260s18.77-17.2,20.4-38.91C375.88,197.32,368.7,186.34,344.57,176.27Z" transform="translate(-141.92 -31.13)"/><path class="cls-11" d="M347,205.7c-5.45,5.57-14.79,9.14-23.55,13.54-11.46,5.77-23.18,9.39-32.27,9.39l-2.88,21.71c-1,24.62,9.53,32.86,26.61,35.25,10.2.51,32.86-9.54,35.25-26.63l3.62-26C357,218,353.86,213.89,347,205.7Z" transform="translate(-141.92 -31.13)"/><path class="cls-10" d="M308.46,233.82a2.71,2.71,0,1,1-2.1-3.21A2.7,2.7,0,0,1,308.46,233.82Z" transform="translate(-141.92 -31.13)"/><path class="cls-10" d="M338.65,238.18a2.71,2.71,0,1,1-2.1-3.21A2.7,2.7,0,0,1,338.65,238.18Z" transform="translate(-141.92 -31.13)"/><path class="cls-12" d="M314.85,263.1a21.53,21.53,0,0,1-10.37-3.67,4.67,4.67,0,0,0-.2,1.27c-.26,7.34,6.21,13.68,16.55,8.38a9,9,0,0,0,4.75-5.79,6.82,6.82,0,0,0,.14-1.93A21.64,21.64,0,0,1,314.85,263.1Z" transform="translate(-141.92 -31.13)"/><path class="cls-10" d="M308.7,266.15a21.88,21.88,0,0,1-21.86-21.85h1.79a20.09,20.09,0,0,0,20.07,20.06Z" transform="translate(-141.92 -31.13)"/><path class="cls-10" d="M312.7,264.61a3.36,3.36,0,1,1-3.35-3.36A3.36,3.36,0,0,1,312.7,264.61Z" transform="translate(-141.92 -31.13)"/><path class="cls-13" d="M288.87,217.64l.76.14L286,246.26c-.26,0-.51,0-.78,0a14.4,14.4,0,0,1,3.67-28.57Z" transform="translate(-141.92 -31.13)"/><path class="cls-14" d="M281.92,244a3.57,3.57,0,0,0,3.08,4h0a3.57,3.57,0,0,0,4-3.08l3.21-25a3.56,3.56,0,0,0-3.08-4h0a3.55,3.55,0,0,0-4,3.07Z" transform="translate(-141.92 -31.13)"/><path class="cls-15" d="M363.61,226.48h-2.3c.75-19-4.63-33.62-17-40.59-11.78-6.63-22.65-7.33-39.75-.86l-3,.46c13.93-8.22,30.59-9.82,43-2.84C357.59,190,364.39,206.7,363.61,226.48Z" transform="translate(-141.92 -31.13)"/><path class="cls-16" d="M360.93,225l-.77-.06-3.69,28.48c.24,0,.5.11.75.14A14.4,14.4,0,0,0,360.93,225Z" transform="translate(-141.92 -31.13)"/><path class="cls-14" d="M361,252.22a3.57,3.57,0,0,1-4,3.08h0a3.56,3.56,0,0,1-3.07-4l3.25-25a3.55,3.55,0,0,1,4-3.07h0a3.55,3.55,0,0,1,3.06,4Z" transform="translate(-141.92 -31.13)"/><path class="cls-17" d="M319.77,229.16c-1.2,2.17-1.74,4.87-2.89,7.2-1.45,2.95-3.14,5.78-4.65,8.72-.67,1.32-2.82,3.77-1.66,5s5.44.94,6.88,1.45" transform="translate(-141.92 -31.13)"/><path class="cls-18" d="M301.56,182.49c-6.13,3.82-14.08,9.8-21.63,6-5.57-2.77-12.27-7.94-14.39,1.55-1.33,5.89,1.16,13,3.86,18.25,7.49,14.45,24.19,22.19,40,20.72,15.41-1.43,35.9-6.57,37.56-23.36.6-6-4.41-17.38-8.26-22.21C329.7,172.23,312.09,175.93,301.56,182.49Z" transform="translate(-141.92 -31.13)"/><path class="cls-17" d="M332.93,227.08c2.37,1,8.18.73,10.57.52" transform="translate(-141.92 -31.13)"/><path class="cls-19" d="M564.27,449.22l-6-59.42c.5-26.67,11.93-86.07-68.16-87.39-44.46-.73-73.87,33.07-73.87,80.11v67.79Z" transform="translate(-141.92 -31.13)"/><path class="cls-20" d="M564.27,449.22l-5.13-50.64c-13.75,23.88-41.35,37.51-66.59,50.79Z" transform="translate(-141.92 -31.13)"/><path class="cls-21" d="M489.17,199.21a71.64,71.64,0,0,0-10.9.82,22.31,22.31,0,0,0-21.08-14.64,22.08,22.08,0,0,0-22.32,21.83,21.61,21.61,0,0,0,8,16.73c-3.38,7.16-5,16-4.18,26.84,2.09,27.27,18.78,42.34,45.95,42.34s45.09-15.47,45.09-42.82S519.59,199.21,489.17,199.21Z" transform="translate(-141.92 -31.13)"/><path class="cls-3" d="M508.85,271.73l.93,40.09c0,10.25-1.44,13.29-14.07,14.13-8.65.56-22.73-3.13-22.73-13.38l-2.59-53.21Z" transform="translate(-141.92 -31.13)"/><g class="cls-22"><path class="cls-9" d="M473.51,261.7c0,24.34,17.71,44.07,39.57,44.07S552.67,286,552.67,261.7,535,217.64,513.08,217.64,473.51,237.36,473.51,261.7Z" transform="translate(-141.92 -31.13)"/></g><path class="cls-23" d="M528.3,256.6c-.84-5.05-6-8.38-11.62-7.46a10.87,10.87,0,0,0-1.52.37c-2.36-13.92-9.29-21.69-26.74-21.71s-32.69,13.16-32,31.93a11.14,11.14,0,0,0-1.66-.38c-6.1-.92-11.71,2.82-12.54,8.34s3.44,10.73,9.55,11.64a11.56,11.56,0,0,0,9.25-2.52c8.19,15.54,24.89,21.66,32.87,22.22,13.13.94,21.66-12.17,22.3-31.6a11.19,11.19,0,0,0,3.56,0C525.29,266.49,529.13,261.65,528.3,256.6Z" transform="translate(-141.92 -31.13)"/><path class="cls-9" d="M519.43,257.07A7.91,7.91,0,0,1,520,262l0,0c2-.86,2.84-3.53,1.8-6s-3.52-3.7-5.54-2.84l-.1.05A7.78,7.78,0,0,1,519.43,257.07Z" transform="translate(-141.92 -31.13)"/><path class="cls-9" d="M450.25,268.36a7.15,7.15,0,0,1,1.61-4.13h0c-2-.16-3.7,1.62-3.89,4s1.25,4.39,3.21,4.54h.09A7.06,7.06,0,0,1,450.25,268.36Z" transform="translate(-141.92 -31.13)"/><path class="cls-10" d="M473.27,258.21a2.34,2.34,0,1,0,1.82-2.76A2.33,2.33,0,0,0,473.27,258.21Z" transform="translate(-141.92 -31.13)"/><path class="cls-10" d="M502,257a2.33,2.33,0,1,0,1.81-2.76A2.34,2.34,0,0,0,502,257Z" transform="translate(-141.92 -31.13)"/><path class="cls-12" d="M494,278.75a25.25,25.25,0,0,0,10.53-4.54,4.12,4.12,0,0,1,.38,1.12c1.22,6.49-3.95,14.72-15.61,11.25-2.61-.77-5.83-4.29-6.67-6.37a5.44,5.44,0,0,1-.4-1.7A27.39,27.39,0,0,0,494,278.75Z" transform="translate(-141.92 -31.13)"/><path class="cls-10" d="M472.08,253.28l-1.26-1a6.66,6.66,0,0,1,9.34-1l-1,1.25A5.07,5.07,0,0,0,472.08,253.28Z" transform="translate(-141.92 -31.13)"/><path class="cls-10" d="M499.23,251.28l-1.25-1c3.9-5,9.11-1.23,9.34-1.05l-1,1.25A5.06,5.06,0,0,0,499.23,251.28Z" transform="translate(-141.92 -31.13)"/><path class="cls-24" d="M493.62,257.7c.15,4.84,4.44,3.75,6.7,6,2.57,2.54-2.05,5.37-4.13,4.83" transform="translate(-141.92 -31.13)"/></g><path class="cls-25" d="M307.65,458.4a4.71,4.71,0,0,0,4.45,4.94H496a4.71,4.71,0,0,0,4.44-4.94h0a4.71,4.71,0,0,0-4.44-4.93H312.1a4.71,4.71,0,0,0-4.45,4.93Z" transform="translate(-141.92 -31.13)"/><path class="cls-26" d="M367.73,458.26a5.08,5.08,0,0,0,5.08,5.08h126a5.08,5.08,0,0,0,5.07-5.08L527,367.5a5.08,5.08,0,0,0-5.08-5.07h-126a5.07,5.07,0,0,0-5.07,5.07Z" transform="translate(-141.92 -31.13)"/><polygon class="cls-12" points="321.73 373.05 313.52 357.5 304.56 373.05 321.73 373.05"/><path class="cls-12" d="M354.81,125.85C353,115.54,343.5,107.66,332,107.66a23.43,23.43,0,0,0-19.92,10.7,20.92,20.92,0,0,0-9.85-2.41c-8.52,0-15.72,4.92-18.16,11.71a14.06,14.06,0,0,0-8-2.47c-7.37,0-13.34,5.44-13.34,12.15s6,12.16,13.34,12.16h26.19c5.23,0,70,7.94,70-11.4C372.25,126.92,364.94,127.55,354.81,125.85Z" transform="translate(-141.92 -31.13)"/><path class="cls-12" d="M422.51,144.35c1.55-9,9.87-15.86,19.89-15.86a20.4,20.4,0,0,1,17.37,9.34,18.23,18.23,0,0,1,8.59-2.11c7.43,0,13.72,4.29,15.85,10.21a12.35,12.35,0,0,1,7-2.15c6.42,0,11.63,4.75,11.63,10.6S497.64,165,491.22,165H468.36c-4.56,0-61.08,6.94-61.07-9.94C407.29,145.29,413.67,145.84,422.51,144.35Z" transform="translate(-141.92 -31.13)"/><path class="cls-12" d="M421.76,273.49a10.8,10.8,0,0,0-10.83-8.64,11.11,11.11,0,0,0-9.47,5.09,9.91,9.91,0,0,0-4.68-1.15,9,9,0,0,0-8.64,5.57,6.64,6.64,0,0,0-3.81-1.18,5.8,5.8,0,1,0,0,11.56h12.45c2.49,0,33.28,3.77,33.27-5.42C430.05,274,426.58,274.3,421.76,273.49Z" transform="translate(-141.92 -31.13)"/><path class="cls-12" d="M560.36,292.16a6.4,6.4,0,0,0-6.42-5.12,6.6,6.6,0,0,0-5.61,3,5.91,5.91,0,0,0-2.77-.67,5.34,5.34,0,0,0-5.12,3.29,4,4,0,0,0-2.26-.7,3.44,3.44,0,1,0,0,6.85h7.38c1.47,0,19.72,2.24,19.72-3.21C565.27,292.46,563.22,292.64,560.36,292.16Z" transform="translate(-141.92 -31.13)"/><path class="cls-12" d="M252.85,260a10.19,10.19,0,0,0-10.24-8.16,10.51,10.51,0,0,0-8.94,4.8,9.4,9.4,0,0,0-4.43-1.09,8.51,8.51,0,0,0-8.15,5.26,6.39,6.39,0,0,0-3.61-1.1,5.48,5.48,0,1,0,0,10.91h11.76c2.35,0,31.46,3.57,31.45-5.11C260.69,260.46,257.4,260.75,252.85,260Z" transform="translate(-141.92 -31.13)"/><path class="cls-27" d="M384.05,63.27l-3,.51" transform="translate(-141.92 -31.13)"/><path class="cls-28" d="M375.23,64.88C233.86,92.94,138.11,221.38,157.52,357.64" transform="translate(-141.92 -31.13)"/><path class="cls-27" d="M158,360.59c.16,1,.31,2,.48,3" transform="translate(-141.92 -31.13)"/><polygon class="cls-29" points="209.28 26.38 204.68 74.24 290.55 18.92 288.92 16.04 209.28 26.38"/><polygon class="cls-30" points="194.3 0 288.92 16.04 216.26 38.67 194.3 0"/><polygon class="cls-12" points="245.78 90.64 290.55 18.92 223.81 51.97 245.78 90.64"/><path class="cls-19" d="M498.28,90.73A29.26,29.26,0,1,1,469,61.46,29.26,29.26,0,0,1,498.28,90.73Z" transform="translate(-141.92 -31.13)"/><path class="cls-12" d="M475.16,96.11A2.8,2.8,0,0,0,472,97.44c-.31.64-.36,1.53-1,1.82a1.7,1.7,0,0,1-1.46-.27c-2.23-1.25-6.68-10.09-6.34-12.62a1.71,1.71,0,0,1,.65-1.34c.63-.35,1.37.14,2.07.29a2.86,2.86,0,0,0,3-1.77,6.58,6.58,0,0,0,.28-3.66,7.69,7.69,0,0,0-1.54-4c-2.73-3.1-6.75,0-8.35,2.63a14.16,14.16,0,0,0-1.87,5.56C456.8,88.2,464.23,103,467.91,105a14.17,14.17,0,0,0,5.56,1.81c3,.27,8-1.08,7.11-5.12a7.61,7.61,0,0,0-2.3-3.63A6.51,6.51,0,0,0,475.16,96.11Z" transform="translate(-141.92 -31.13)"/><path class="cls-31" d="M593.73,135A38.79,38.79,0,1,1,573,84.22,38.77,38.77,0,0,1,593.73,135Z" transform="translate(-141.92 -31.13)"/><polygon class="cls-12" points="437.22 83.26 405.18 69.82 417.04 86.47 437.22 83.26"/><polygon class="cls-12" points="415.04 91.26 400.29 70.6 390.97 92.83 430.77 109.52 440.09 87.28 415.04 91.26"/><path class="cls-6" d="M637.18,195a29.27,29.27,0,1,1-29.27-29.26A29.26,29.26,0,0,1,637.18,195Z" transform="translate(-141.92 -31.13)"/><path class="cls-12" d="M592.1,194.4h8.06a24.39,24.39,0,0,1,1.11-6.88,24.7,24.7,0,0,1-5.74-2.38A15.77,15.77,0,0,0,592.1,194.4Z" transform="translate(-141.92 -31.13)"/><path class="cls-12" d="M600.16,195.59H592.1a15.69,15.69,0,0,0,3.43,9.25,25.56,25.56,0,0,1,5.74-2.37A24.27,24.27,0,0,1,600.16,195.59Z" transform="translate(-141.92 -31.13)"/><path class="cls-12" d="M607.32,195.59h-6a23.87,23.87,0,0,0,1.09,6.6,24.57,24.57,0,0,1,4.88-.6Z" transform="translate(-141.92 -31.13)"/><path class="cls-12" d="M607.32,194.4v-6a25.32,25.32,0,0,1-4.88-.59,23.92,23.92,0,0,0-1.09,6.59Z" transform="translate(-141.92 -31.13)"/><path class="cls-12" d="M607.32,202.79a24.45,24.45,0,0,0-4.49.53,23.83,23.83,0,0,0,4.49,7.48Z" transform="translate(-141.92 -31.13)"/><path class="cls-12" d="M613.38,187.81a25.72,25.72,0,0,1-4.86.59v6h6A23.14,23.14,0,0,0,613.38,187.81Z" transform="translate(-141.92 -31.13)"/><path class="cls-12" d="M608.52,187.21a25,25,0,0,0,4.47-.53,23.59,23.59,0,0,0-4.47-7.49v8Z" transform="translate(-141.92 -31.13)"/><path class="cls-12" d="M607.32,187.21v-8a24.11,24.11,0,0,0-4.49,7.49A25,25,0,0,0,607.32,187.21Z" transform="translate(-141.92 -31.13)"/><path class="cls-12" d="M601.65,186.38a25.25,25.25,0,0,1,4-7,15.78,15.78,0,0,0-9.3,4.89A23.77,23.77,0,0,0,601.65,186.38Z" transform="translate(-141.92 -31.13)"/><path class="cls-12" d="M601.65,203.61a23.3,23.3,0,0,0-5.32,2.16,15.78,15.78,0,0,0,9.3,4.89A25,25,0,0,1,601.65,203.61Z" transform="translate(-141.92 -31.13)"/><path class="cls-12" d="M608.52,202.79v8a23.33,23.33,0,0,0,4.47-7.48A25,25,0,0,0,608.52,202.79Z" transform="translate(-141.92 -31.13)"/><path class="cls-12" d="M614.17,203.61a25.06,25.06,0,0,1-4,7,15.79,15.79,0,0,0,9.32-4.88A23.4,23.4,0,0,0,614.17,203.61Z" transform="translate(-141.92 -31.13)"/><path class="cls-12" d="M614.17,186.38a24.86,24.86,0,0,0,5.36-2.16,15.86,15.86,0,0,0-9.33-4.89A25.2,25.2,0,0,1,614.17,186.38Z" transform="translate(-141.92 -31.13)"/><path class="cls-12" d="M608.52,195.59v6a24.93,24.93,0,0,1,4.86.59,23.57,23.57,0,0,0,1.1-6.59Z" transform="translate(-141.92 -31.13)"/><path class="cls-12" d="M623.74,195.59h-8a25.29,25.29,0,0,1-1.15,6.88,25.67,25.67,0,0,1,5.78,2.37A15.74,15.74,0,0,0,623.74,195.59Z" transform="translate(-141.92 -31.13)"/><path class="cls-12" d="M615.69,194.4h8a15.77,15.77,0,0,0-3.42-9.25,24.78,24.78,0,0,1-5.78,2.37A26,26,0,0,1,615.69,194.4Z" transform="translate(-141.92 -31.13)"/><path class="cls-32" d="M171.38,289.57c3.53-3.39-2.23-10.27,2.17-11.65s4.48-4.54,10.65-8.81,9.84-4.92,10.87-7.83-.61-6.58-6-5.22-8.57,2.27-11.57,6.6c0,0-2.54-7.6.73-13.15s7.39-16.66,3.06-19.67-5.36.39-6.91,4.74-4.68,15.5-4.68,15.5,1.38-21.16.47-24.59-6.77-3.05-7.58,1.31-.43,22.4-.43,22.4-3.61-15.17-4-18.59-6.53-2.55-6.58.61,2.35,17.1,2.35,17.1-3.73-9.33-5.84-13-5.82-1.58-5.4,1.84,4.65,11.78,4.59,15.19-.82,17,.34,20.22,1.79,8.08,1.68,13.68S164.43,296.26,171.38,289.57Z" transform="translate(-141.92 -31.13)"/><path class="cls-6" d="M176.54,280.89a87.41,87.41,0,0,1-18.41,4.37c-5.78.9-6.43-.38-12-.05.36,4.37,5.41,116.53,5.41,116.53a26.61,26.61,0,0,0,52.59-8.2S177.19,283,176.54,280.89Z" transform="translate(-141.92 -31.13)"/><path class="cls-6" d="M182.65,407.77c3.86,7,5.26,14.89,7,13.73l59.41-35.94s-1.34-11.76,4.52-37.72c3.6-15.93,57.13-65.47,2.07-37.06l-60.32,46.69C193.19,358.9,174.63,393.24,182.65,407.77Z" transform="translate(-141.92 -31.13)"/><path class="cls-7" d="M191.15,421.71s39.32-34.9,51.13-52.89,6.81,16.74,6.81,16.74Z" transform="translate(-141.92 -31.13)"/><path class="cls-33" d="M607.52,285.92c-1.12-2,2-4.44-.46-6.67s-6.46-9.72-8.62-11.78-5.16-3.51-4.91-5.28,3.43-3.71,5.93-2,4.36,3.47,4.64,4.29S606,240.86,606,238s5.07-3.49,5.23-.4-.54,15.33-.54,15.33,1.76-2.82,3.86.53c0,0,4.62-1.71,6.21,1.94,0,0,2.17-1.18,4.28,1.84s.21,17.82-1,19.71a7.06,7.06,0,0,0-1.42,5.48c.19,2.71.78,3.71-.38,4.3S610.93,291.92,607.52,285.92Z" transform="translate(-141.92 -31.13)"/><path class="cls-19" d="M606.15,282.37c6.6,1.21,13.26.49,17.65.19.16,3.48,12,92.13,12,92.13a21.15,21.15,0,0,1-42.29-1.1S605.85,284.09,606.15,282.37Z" transform="translate(-141.92 -31.13)"/><path class="cls-19" d="M622.71,384.35c-2.11,4.28-13,5.67-14.56,9.91-1.43-.43-47.69-22.47-47.69-22.47-10.78-5.3-18.32-18-20.88-29.69-2.3-10.54-5.07-27.89,2.36-23.8L617.29,367C619,367.86,626.05,377.54,622.71,384.35Z" transform="translate(-141.92 -31.13)"/><path class="cls-34" d="M251.08,170c9-6.31,7-11.52,5.36-22.38S244.82,101,237.6,98.36s-7.82-2.13-29.67,3.47-60.07,20.51-60.07,20.51-7,3.59-4.79,15,15,58.06,24.41,61.41,6.2,2,25.18-3.72a341.36,341.36,0,0,0,33.42-12.57c2.39,7.56,5.79,17,9.63,23.32,7.36,12.22,14.94,17.36,14.94,17.36s-5.44-44.06-4.42-50.3C248.18,171.81,249.85,170.81,251.08,170Z" transform="translate(-141.92 -31.13)"/><line class="cls-35" x1="19.39" y1="112.22" x2="87.78" y2="88.84"/><line class="cls-35" x1="27.08" y1="128.87" x2="94.16" y2="105.64"/><line class="cls-35" x1="33.4" y1="148.06" x2="98.82" y2="124.16"/></g></g></svg>