<?xml version="1.0" encoding="utf-8"?>
<!-- Generator: Adobe Illustrator 23.0.1, SVG Export Plug-In . SVG Version: 6.00 Build 0)  -->
<svg version="1.1" xmlns="http://www.w3.org/2000/svg" xmlns:xlink="http://www.w3.org/1999/xlink" x="0px" y="0px"
	 viewBox="0 0 500 500" style="enable-background:new 0 0 500 500;" xml:space="preserve">
<style type="text/css">
	.st0{fill:#F0F0F0;}
	.st1{fill:#E0E0E0;}
	.st2{fill:#2265B2;}
	.st3{opacity:0.6;}
	.st4{opacity:0.3;}
	.st5{opacity:0.5;}
	.st6{fill:#263238;}
	.st7{opacity:0.7;}
	.st8{fill:#FAFAFA;}
	.st9{opacity:0.4;}
	.st10{fill:#FFFFFF;}
	.st11{opacity:0.15;}
	.st12{opacity:0.5;fill:#FFFFFF;}
	.st13{fill:#455A64;}
	.st14{fill:#37474F;}
	.st15{opacity:0.4;fill:#FFFFFF;}
	.st16{opacity:0.2;}
	.st17{opacity:0.1;}
	.st18{fill:#E6E6E6;}
	.st19{fill:#FFA8A7;}
	.st20{fill:#F28F8F;}
	.st21{fill:#27DEBF;}
	.st22{opacity:0.15;fill:none;stroke:#000000;stroke-miterlimit:10;}
</style>
<g id="Floor">
	<ellipse id="Floor_4_" class="st0" cx="249.05" cy="350.02" rx="235.61" ry="136.03"/>
</g>
<g id="Shadow">
	<path id="Shadow_43_" class="st1" d="M384.36,397.22c-15.45-8.92-15.45-23.38,0-32.3c15.45-8.92,40.5-8.92,55.95,0
		c15.45,8.92,15.45,23.38,0,32.3C424.86,406.14,399.81,406.14,384.36,397.22z"/>
	<path id="Shadow_4_" class="st1" d="M70.12,398.46L29.48,375c-2.29-1.32-2.29-3.47,0-4.79l236.39-136.48c2.29-1.32,6.01-1.32,8.3,0
		l40.64,23.46c2.29,1.32,2.29,3.47,0,4.79L78.42,398.46C76.12,399.78,72.41,399.78,70.12,398.46z"/>
</g>
<g id="Device">
	<g id="Device_1_">
		<g id="XMLID_1341_">
			<g id="XMLID_1346_">
				<path id="XMLID_1347_" class="st2" d="M216.2,356.64l34.94-20.2c3.6-2.08,5.4-4.8,5.4-7.53c0-2.73,0.02-4.86,0.02-4.86
					l-36.25-20.44c-1.92-1.11-3.48-3.81-3.48-6.02v-43.07l-61.02,35.26l0,43.07c0,2.22,1.56,4.91,3.48,6.02l30.84,17.77
					C197.32,360.8,209,360.8,216.2,356.64z"/>
			</g>
			<g id="XMLID_1608_" class="st3">
				<path id="XMLID_1609_" d="M216.2,356.64l34.94-20.2c3.6-2.08,5.4-4.8,5.4-7.53c0-2.73,0.02-4.86,0.02-4.86l-36.25-20.44
					c-1.92-1.11-3.48-3.81-3.48-6.02v-43.07l-61.02,35.26l0,43.07c0,2.22,1.56,4.91,3.48,6.02l30.84,17.77
					C197.32,360.8,209,360.8,216.2,356.64z"/>
			</g>
			<path id="XMLID_1345_" class="st4" d="M170.45,340.48v4.84l-11.18-6.45c-1.91-1.1-3.47-3.8-3.47-6.02v-43.07l11.63-6.71
				c0.24,2.95,0.5,6,0.74,8.98l-8.15,4.72v33.65c0,2.23,1.55,4.92,3.47,6.02L170.45,340.48z"/>
			<path id="XMLID_1344_" class="st2" d="M160.01,330.43c0,2.22,1.56,4.91,3.48,6.02l26.62,15.33c7.2,4.16,18.88,4.16,26.09,0
				l34.95-20.2c7.2-4.16,7.2-10.9,0-15.06l-26.64-15.35c-1.92-1.11-3.48-3.81-3.48-6.02l0-33.66l-61.02,35.26V330.43z"/>
			<path id="XMLID_1607_" class="st4" d="M160.01,330.43c0,2.22,1.56,4.91,3.48,6.02l26.62,15.33c7.2,4.16,18.88,4.16,26.09,0
				l34.95-20.2c7.2-4.16,7.2-10.9,0-15.06l-26.64-15.35c-1.92-1.11-3.48-3.81-3.48-6.02l0-33.66l-61.02,35.26V330.43z"/>
			<path id="XMLID_1343_" class="st5" d="M231.6,305.28L231.6,305.28l-7.08-4.09c-1.92-1.11-3.48-3.81-3.48-6.02l0-33.66
				l-61.02,35.26v33.66c0,2.22,1.56,4.91,3.48,6.02l6.96,4.02L231.6,305.28z"/>
			<path id="XMLID_1342_" class="st2" d="M256.55,324.06c0,0,0,2.13,0,4.86c0,2.73-1.81,5.44-5.4,7.53l-34.94,20.19
				c-3.45,2.01-7.93,3.01-12.45,3.09v-4.84c4.52-0.06,9-1.1,12.45-3.09l34.94-20.21C254.74,329.52,256.55,326.79,256.55,324.06z"/>
			<path id="XMLID_1610_" class="st5" d="M256.55,324.06c0,0,0,2.13,0,4.86c0,2.73-1.81,5.44-5.4,7.53l-34.94,20.19
				c-3.45,2.01-7.93,3.01-12.45,3.09v-4.84c4.52-0.06,9-1.1,12.45-3.09l34.94-20.21C254.74,329.52,256.55,326.79,256.55,324.06z"/>
		</g>
		<path id="XMLID_1340_" class="st2" d="M62.03,372.26c2.25,1.3,6.02,1.23,8.43-0.16c30-17.32,206-118.93,236-136.25
			c2.4-1.39,4.35-4.76,4.35-7.53V37.41c0-2.77-1.83-6.07-4.08-7.37c-2.25-1.3-6.02-1.23-8.43,0.16L62.3,166.45
			c-2.4,1.39-4.35,4.76-4.35,7.53l0,190.91C57.95,367.66,59.78,370.96,62.03,372.26z"/>
		<path id="XMLID_1339_" class="st2" d="M70.46,372.1l236-136.25c2.4-1.39,4.35-4.76,4.35-7.53V37.41c0-2.77-1.95-3.9-4.35-2.51
			L70.46,171.15c-2.4,1.39-4.35,4.76-4.35,7.53l0,190.91C66.11,372.36,68.06,373.49,70.46,372.1z"/>
		<path id="XMLID_1338_" class="st5" d="M70.46,372.1l236-136.25c2.4-1.39,4.35-4.76,4.35-7.53V37.41c0-2.77-1.95-3.9-4.35-2.51
			L70.46,171.15c-2.4,1.39-4.35,4.76-4.35,7.53l0,190.91C66.11,372.36,68.06,373.49,70.46,372.1z"/>
		<path id="XMLID_1337_" class="st2" d="M69.82,377.06c-2.41,1.06-5.74,1.02-7.79-0.16c-2.25-1.31-4.08-4.6-4.08-7.39v-17.38
			l8.15,4.72v17.38C66.1,376.76,67.71,377.91,69.82,377.06z"/>
		<path id="XMLID_1606_" class="st5" d="M69.82,377.06c-2.41,1.06-5.74,1.02-7.79-0.16c-2.25-1.31-4.08-4.6-4.08-7.39v-17.38
			l8.15,4.72v17.38C66.1,376.76,67.71,377.91,69.82,377.06z"/>
		<path id="XMLID_1336_" class="st2" d="M66.1,356.85l0.01,17.38c0,2.77,1.95,3.9,4.35,2.51l236-136.25
			c2.4-1.39,4.35-4.76,4.35-7.53v-17.41L66.1,356.85z"/>
		<path id="XMLID_1335_" class="st4" d="M66.11,356.81l0,17.41c0,2.77,1.95,3.9,4.35,2.51l236-136.25c2.4-1.39,4.35-4.76,4.35-7.53
			v-17.41L66.11,356.81z"/>
		<path id="XMLID_1334_" class="st2" d="M74.26,335.04l0-153.66c0-1.66,1.17-3.69,2.61-4.52L300.03,48.03
			c1.44-0.83,2.61-0.16,2.61,1.51l0.01,153.66c0,1.66-1.17,3.69-2.61,4.52L76.87,336.55C75.43,337.38,74.26,336.7,74.26,335.04z"/>
		<path id="XMLID_1333_" class="st6" d="M74.26,335.04l0-153.66c0-1.66,1.17-3.69,2.61-4.52L300.03,48.03
			c1.44-0.83,2.61-0.16,2.61,1.51l0.01,153.66c0,1.66-1.17,3.69-2.61,4.52L76.87,336.55C75.43,337.38,74.26,336.7,74.26,335.04z"/>
		<path id="XMLID_1332_" class="st2" d="M188.45,291.73c-2.25,1.3-4.08,4.46-4.08,7.07c0,2.6,1.83,3.66,4.08,2.35
			c2.25-1.3,4.08-4.46,4.08-7.07C192.53,291.48,190.7,290.43,188.45,291.73z"/>
		<path id="XMLID_1331_" class="st7" d="M67.39,174.38c-0.78,1.37-1.26,2.91-1.28,4.3v178.17l-8.15-4.72l0-178.16
			c0-1.39,0.5-2.93,1.28-4.3L67.39,174.38z"/>
		<path id="XMLID_1544_" class="st4" d="M310.76,36.69c-0.31-2.24-2.12-3.05-4.31-1.8L70.46,171.15c-1.19,0.69-2.27,1.86-3.07,3.23
			l-8.15-4.71c0.79-1.35,1.87-2.54,3.07-3.23L298.3,30.2c2.41-1.39,6.17-1.46,8.43-0.15C308.78,31.22,310.48,34.09,310.76,36.69z"/>
	</g>
</g>
<g id="Window_1_">
	<g id="Window">
		<g id="Window_2_">
			<g id="Window_3_">
				<g id="XMLID_1920_">
					<path class="st2" d="M323.49,60.19c-0.57-0.34-1.34-0.33-2.22,0.18L98.59,188.95c-1.68,0.97-3.05,3.33-3.05,5.27l0,152.72
						c0,1.18,0.51,2.23,1.28,2.65c0.5,0.27,3.11,1.79,3.89,2.21c0.5,0.27,1.11,0.28,1.77-0.1l222.68-128.64
						c1.68-0.97,3.05-3.33,3.05-5.27V64.33c0-1-0.36-1.7-0.94-2C326.72,62.04,324.05,60.52,323.49,60.19z"/>
				</g>
				<g id="XMLID_1917_">
					<g id="XMLID_1919_">
						<path class="st8" d="M101.48,351.49c-0.85,0-1.54-1.05-1.54-2.34V196.43c0-1.75,1.28-3.97,2.8-4.84L325.42,63
							c0.4-0.23,0.78-0.35,1.11-0.35c0.74,0,1.19,0.63,1.19,1.67v153.46c0,1.75-1.28,3.97-2.8,4.84L102.23,351.26
							C101.97,351.41,101.72,351.49,101.48,351.49z"/>
						<path class="st1" d="M326.53,63.15L326.53,63.15c0.6,0,0.69,0.74,0.69,1.17v153.46c0,1.59-1.17,3.61-2.55,4.41L101.98,350.83
							c-0.19,0.11-0.36,0.16-0.51,0.16c-0.56,0-1.04-0.86-1.04-1.84V196.43c0-1.59,1.17-3.61,2.55-4.41L325.67,63.44
							C326.07,63.2,326.36,63.15,326.53,63.15 M326.53,62.15c-0.41,0-0.87,0.13-1.36,0.42L102.48,191.16
							c-1.68,0.97-3.05,3.33-3.05,5.28v152.72c0,1.54,0.85,2.84,2.04,2.84c0.32,0,0.65-0.09,1.01-0.29l222.68-128.64
							c1.68-0.97,3.05-3.33,3.05-5.27V64.33C328.21,62.95,327.53,62.15,326.53,62.15L326.53,62.15z"/>
					</g>
					<path id="XMLID_1918_" class="st0" d="M96.82,349.59c0.33,0.18,2.7,1.53,3.74,2.12c-0.7-0.5-1.07-1.36-1.12-2.56V206.4
						l-3.9-2.28v142.83C95.54,348.12,96.05,349.18,96.82,349.59z"/>
				</g>
				<g id="XMLID_1913_">
					<path id="XMLID_1916_" class="st2" d="M328.21,64.3c-0.01-1.92-1.37-2.7-3.04-1.74L102.48,191.16
						c-1.68,0.97-3.05,3.33-3.05,5.28l0,9.96L328.21,74.3V64.3z"/>
					<g id="XMLID_1915_" class="st9">
						<path class="st10" d="M325.17,62.57L102.48,191.15c-0.83,0.49-1.6,1.31-2.15,2.26l-3.87-2.24c0.55-0.94,1.3-1.76,2.12-2.22
							L321.27,60.36c0.87-0.51,1.65-0.52,2.21-0.18c0.55,0.34,3.08,1.77,3.72,2.12C326.67,62.04,325.95,62.12,325.17,62.57z"/>
					</g>
					<path id="XMLID_1914_" class="st11" d="M95.54,204.13l0-9.9c0-0.99,0.36-2.08,0.93-3.05l3.88,2.23
						c-0.57,0.96-0.91,2.04-0.91,3.03v9.96L95.54,204.13z"/>
				</g>
			</g>
		</g>
		<g id="XMLID_985_">
			<g id="XMLID_639_">
				<path id="XMLID_645_" class="st2" d="M281.25,179.42l-133.37,77c-1.23,0.71-2.23,2.44-2.23,3.86v38.24c0,1.42,1,3.14,2.23,3.85
					l3.9,2.24c1.23,0.71,3.22,0.71,4.45,0l133.36-76.99c1.23-0.71,2.23-2.44,2.23-3.86l0.02-38.25c0-1.42-1-3.14-2.23-3.85
					l-3.9-2.24C284.47,178.71,282.48,178.71,281.25,179.42z"/>
				<path id="XMLID_717_" class="st12" d="M291.81,185.15c-0.15-1.15-1.09-1.57-2.21-0.93l-133.37,77
					c-0.62,0.35-1.17,0.97-1.57,1.67l-8.35-4.82c0.4-0.69,0.96-1.3,1.56-1.64l133.38-77c1.22-0.71,3.22-0.72,4.45-0.01l3.9,2.24
					C290.73,182.31,291.67,183.82,291.81,185.15z"/>
				<path id="XMLID_730_" class="st6" d="M155.85,304.79c-1.23,0.52-2.96,0.46-4.07-0.17l-3.9-2.24c-1.23-0.71-2.23-2.44-2.23-3.86
					v-38.23c0-0.72,0.26-1.51,0.66-2.21l8.35,4.82c-0.41,0.7-0.66,1.48-0.66,2.19v38.24C154,304.6,154.8,305.19,155.85,304.79z"/>
				<path id="XMLID_644_" class="st2" d="M156.23,261.23l133.37-77c1.23-0.71,2.23-0.13,2.22,1.29l-0.02,38.25
					c0,1.42-1,3.15-2.23,3.86l-133.36,76.99c-1.23,0.71-2.23,0.13-2.23-1.29v-38.24C154,263.67,155,261.94,156.23,261.23z"/>
				<path id="XMLID_647_" class="st13" d="M245.89,199.84l-98.02,56.59c-0.61,0.35-1.16,0.96-1.56,1.64l8.35,4.82
					c0.4-0.7,0.96-1.32,1.57-1.67l98-56.58L245.89,199.84z"/>
				<path id="XMLID_652_" class="st14" d="M254.23,204.65l-98,56.58c-1.23,0.71-2.23,2.44-2.23,3.86v38.24c0,1.42,1,1.99,2.23,1.29
					l98-56.58V204.65z"/>
			</g>
			<g id="XMLID_640_">
				<path id="XMLID_1663_" class="st2" d="M178.83,256.58l50.57-29.2c2.1-1.21,3.8-0.35,3.8,1.92c0,2.27-1.7,5.09-3.8,6.3
					l-50.56,29.19c-2.1,1.21-3.8,0.35-3.8-1.92C175.03,260.61,176.73,257.79,178.83,256.58z"/>
			</g>
			<g id="XMLID_646_">
				<path id="XMLID_986_" class="st8" d="M189.19,266.24c0.06-0.03,0.11-0.02,0.15,0.03c0.04,0.05,0.06,0.12,0.06,0.23v5.69
					c0,0.57-0.05,1.12-0.14,1.64c-0.09,0.52-0.23,1-0.42,1.44c-0.19,0.44-0.42,0.83-0.7,1.18c-0.28,0.34-0.61,0.62-0.98,0.83
					c-0.38,0.22-0.7,0.32-0.98,0.3c-0.28-0.02-0.51-0.14-0.7-0.37c-0.19-0.22-0.33-0.54-0.42-0.95c-0.09-0.41-0.14-0.9-0.14-1.48
					v-5.69c0-0.1,0.02-0.2,0.06-0.3c0.04-0.1,0.09-0.16,0.15-0.2l0.63-0.37c0.06-0.03,0.11-0.03,0.15,0.03
					c0.04,0.05,0.06,0.13,0.06,0.23v5.63c0,0.38,0.03,0.69,0.09,0.92c0.06,0.24,0.14,0.41,0.24,0.52c0.1,0.11,0.23,0.16,0.38,0.16
					c0.15-0.01,0.31-0.06,0.48-0.16c0.17-0.1,0.33-0.23,0.48-0.4c0.15-0.16,0.28-0.36,0.38-0.59c0.1-0.23,0.19-0.5,0.25-0.8
					c0.06-0.3,0.09-0.64,0.09-1.02v-5.62c0-0.1,0.02-0.2,0.06-0.3c0.04-0.1,0.09-0.16,0.15-0.2L189.19,266.24z"/>
				<path id="XMLID_988_" class="st8" d="M193.11,271.62c0-0.1-0.02-0.17-0.06-0.22c-0.04-0.04-0.1-0.07-0.19-0.07
					c-0.09,0-0.21,0.01-0.36,0.04c-0.15,0.03-0.34,0.07-0.58,0.11c-0.23,0.04-0.42,0.03-0.57-0.02c-0.15-0.05-0.27-0.14-0.36-0.28
					c-0.09-0.13-0.15-0.31-0.19-0.52c-0.04-0.21-0.05-0.46-0.05-0.74c0-0.28,0.04-0.57,0.11-0.88c0.07-0.31,0.18-0.61,0.32-0.9
					c0.14-0.29,0.31-0.55,0.5-0.8c0.2-0.24,0.42-0.44,0.68-0.59c0.25-0.15,0.48-0.23,0.68-0.24c0.2-0.02,0.37,0.02,0.51,0.11
					c0.14,0.09,0.25,0.21,0.33,0.39c0.08,0.17,0.12,0.37,0.13,0.58c0.01,0.1-0.01,0.2-0.06,0.3s-0.1,0.17-0.15,0.2l-0.6,0.35
					c-0.08,0.05-0.14,0.05-0.18,0.03c-0.04-0.03-0.08-0.06-0.13-0.1c-0.05-0.04-0.11-0.06-0.19-0.06c-0.08-0.01-0.19,0.04-0.35,0.13
					c-0.16,0.09-0.29,0.21-0.41,0.36c-0.12,0.15-0.18,0.34-0.18,0.55c0,0.1,0.02,0.18,0.04,0.23c0.03,0.05,0.08,0.08,0.16,0.09
					c0.08,0.01,0.19,0,0.34-0.02c0.14-0.02,0.33-0.06,0.56-0.11c0.46-0.09,0.79-0.01,0.98,0.26c0.19,0.27,0.29,0.68,0.29,1.23
					c0,0.28-0.04,0.57-0.12,0.88c-0.08,0.31-0.19,0.61-0.34,0.9c-0.15,0.29-0.33,0.57-0.55,0.82c-0.22,0.25-0.46,0.45-0.73,0.61
					c-0.28,0.16-0.52,0.24-0.73,0.25c-0.21,0.01-0.39-0.04-0.53-0.14c-0.15-0.1-0.26-0.24-0.34-0.43c-0.08-0.19-0.12-0.39-0.13-0.61
					c-0.01-0.1,0.01-0.2,0.06-0.3c0.04-0.1,0.09-0.17,0.15-0.2l0.6-0.35c0.08-0.04,0.14-0.05,0.18,0c0.04,0.04,0.08,0.09,0.13,0.15
					c0.05,0.06,0.12,0.09,0.21,0.1c0.09,0.01,0.22-0.03,0.4-0.13c0.08-0.05,0.16-0.1,0.24-0.17c0.08-0.07,0.16-0.14,0.23-0.22
					c0.07-0.08,0.13-0.17,0.18-0.27C193.09,271.83,193.11,271.73,193.11,271.62z"/>
				<path id="XMLID_990_" class="st8" d="M195.15,268.91c0-0.52,0.04-1.03,0.13-1.54c0.09-0.51,0.22-0.98,0.38-1.42
					c0.17-0.43,0.37-0.82,0.61-1.15c0.24-0.33,0.5-0.58,0.79-0.75c0.29-0.17,0.56-0.23,0.79-0.17c0.24,0.05,0.44,0.19,0.61,0.42
					c0.17,0.22,0.3,0.52,0.39,0.9c0.09,0.38,0.14,0.8,0.14,1.28v0.62c0,0.1-0.02,0.2-0.06,0.3c-0.04,0.1-0.09,0.16-0.15,0.2
					l-2.61,1.51c0,0.21,0.03,0.39,0.08,0.52c0.05,0.13,0.12,0.23,0.2,0.3c0.08,0.06,0.18,0.09,0.29,0.08
					c0.11-0.01,0.22-0.05,0.34-0.11c0.17-0.1,0.3-0.2,0.41-0.32c0.1-0.12,0.19-0.24,0.26-0.38c0.06-0.11,0.1-0.18,0.14-0.23
					c0.04-0.05,0.09-0.09,0.15-0.13l0.63-0.36c0.06-0.03,0.11-0.03,0.15,0.02c0.04,0.05,0.06,0.13,0.06,0.23
					c-0.01,0.13-0.05,0.32-0.12,0.57c-0.08,0.25-0.19,0.51-0.34,0.79c-0.15,0.28-0.34,0.56-0.56,0.82
					c-0.22,0.27-0.48,0.48-0.77,0.65c-0.29,0.17-0.56,0.23-0.79,0.19c-0.24-0.04-0.44-0.18-0.61-0.42
					c-0.17-0.24-0.29-0.56-0.38-0.97C195.19,269.94,195.15,269.46,195.15,268.91z M197.07,265.72c-0.15,0.09-0.28,0.2-0.39,0.34
					c-0.11,0.14-0.2,0.29-0.27,0.46c-0.07,0.17-0.13,0.34-0.17,0.51c-0.04,0.18-0.06,0.34-0.08,0.48l1.77-1.02
					c-0.01-0.13-0.03-0.27-0.06-0.4c-0.03-0.14-0.08-0.25-0.14-0.34c-0.07-0.09-0.15-0.14-0.26-0.16
					C197.37,265.58,197.23,265.62,197.07,265.72z"/>
				<path id="XMLID_1008_" class="st8" d="M202.13,262.93c-0.31,0.18-0.54,0.43-0.68,0.76c-0.14,0.33-0.21,0.77-0.21,1.32v3.61
					c0,0.1-0.02,0.2-0.06,0.3c-0.04,0.1-0.09,0.16-0.15,0.2l-0.59,0.34c-0.06,0.03-0.11,0.02-0.15-0.03
					c-0.04-0.05-0.06-0.13-0.06-0.23v-6.47c0-0.1,0.02-0.2,0.06-0.3c0.04-0.1,0.09-0.16,0.15-0.2l0.59-0.34
					c0.06-0.03,0.11-0.03,0.15,0.03c0.04,0.05,0.06,0.13,0.06,0.23v0.32c0.14-0.3,0.28-0.56,0.43-0.76
					c0.15-0.21,0.35-0.39,0.61-0.53l0.35-0.2c0.06-0.03,0.11-0.02,0.15,0.03c0.04,0.05,0.06,0.13,0.06,0.23v0.92
					c0,0.1-0.02,0.2-0.06,0.3c-0.04,0.1-0.09,0.16-0.15,0.2L202.13,262.93z"/>
				<path id="XMLID_1013_" class="st8" d="M209.59,262.45c0.06-0.03,0.11-0.02,0.15,0.03c0.04,0.05,0.06,0.13,0.06,0.23v0.99
					c0,0.1-0.02,0.2-0.06,0.3c-0.04,0.1-0.09,0.16-0.15,0.2l-3.42,1.98c-0.06,0.03-0.11,0.02-0.15-0.03
					c-0.04-0.05-0.06-0.13-0.06-0.23v-8.97c0-0.1,0.02-0.2,0.06-0.3c0.04-0.1,0.09-0.16,0.15-0.2l0.63-0.37
					c0.06-0.03,0.11-0.02,0.15,0.03c0.04,0.05,0.06,0.12,0.06,0.23v7.61L209.59,262.45z"/>
				<path id="XMLID_1017_" class="st8" d="M212.66,255.05c0.29-0.17,0.55-0.24,0.78-0.21c0.23,0.02,0.43,0.12,0.6,0.31
					c0.17,0.18,0.31,0.42,0.41,0.74c0.1,0.31,0.16,0.68,0.18,1.09c0.01,0.08,0.01,0.18,0.01,0.32c0,0.13,0,0.26,0,0.39
					c0,0.13,0,0.26,0,0.38c0,0.12,0,0.23-0.01,0.32c-0.02,0.44-0.08,0.87-0.18,1.3c-0.1,0.43-0.23,0.83-0.4,1.2
					c-0.17,0.37-0.37,0.7-0.6,0.99c-0.23,0.29-0.49,0.52-0.78,0.68c-0.29,0.16-0.55,0.24-0.78,0.21c-0.23-0.02-0.43-0.12-0.6-0.3
					c-0.17-0.17-0.3-0.42-0.4-0.73c-0.1-0.31-0.16-0.68-0.18-1.09c0-0.08-0.01-0.18-0.01-0.31c0-0.12,0-0.25,0-0.38
					c0-0.13,0-0.26,0-0.39c0-0.13,0.01-0.24,0.01-0.33c0.02-0.44,0.08-0.87,0.18-1.3c0.1-0.43,0.24-0.83,0.41-1.21
					c0.17-0.38,0.37-0.71,0.6-1C212.11,255.44,212.37,255.22,212.66,255.05z M213.6,257.63c-0.02-0.28-0.05-0.49-0.11-0.65
					c-0.06-0.15-0.13-0.26-0.22-0.32c-0.09-0.06-0.18-0.08-0.29-0.06c-0.1,0.02-0.21,0.06-0.32,0.12c-0.11,0.06-0.21,0.15-0.32,0.25
					c-0.1,0.1-0.2,0.23-0.29,0.4c-0.09,0.16-0.16,0.36-0.22,0.58c-0.06,0.22-0.1,0.48-0.11,0.78c-0.01,0.08-0.01,0.17-0.01,0.29
					c0,0.11-0.01,0.23-0.01,0.35c0,0.12,0,0.24,0.01,0.35c0,0.11,0.01,0.2,0.01,0.27c0.02,0.28,0.05,0.49,0.11,0.65
					c0.06,0.16,0.13,0.26,0.22,0.32c0.09,0.06,0.18,0.08,0.29,0.06c0.1-0.02,0.21-0.06,0.32-0.12c0.11-0.06,0.22-0.14,0.32-0.25
					c0.1-0.1,0.2-0.23,0.29-0.4c0.09-0.16,0.16-0.36,0.22-0.58c0.06-0.22,0.1-0.48,0.11-0.78c0-0.07,0.01-0.16,0.01-0.28
					c0-0.12,0-0.23,0-0.36c0-0.12,0-0.23,0-0.35C213.61,257.79,213.61,257.7,213.6,257.63z"/>
				<path id="XMLID_1020_" class="st8" d="M217.68,260.9c0.11-0.06,0.22-0.16,0.34-0.28c0.11-0.13,0.22-0.28,0.31-0.46
					c0.09-0.18,0.17-0.39,0.23-0.63c0.06-0.23,0.09-0.48,0.09-0.75v-0.51c-0.04,0.11-0.1,0.23-0.16,0.37
					c-0.07,0.14-0.15,0.28-0.25,0.41c-0.1,0.14-0.21,0.27-0.34,0.4c-0.13,0.13-0.27,0.24-0.43,0.33c-0.26,0.15-0.5,0.2-0.71,0.14
					c-0.21-0.06-0.39-0.2-0.54-0.41c-0.15-0.21-0.27-0.49-0.35-0.84c-0.09-0.34-0.13-0.73-0.15-1.15c-0.01-0.14-0.01-0.3-0.01-0.48
					c0-0.18,0-0.35,0.01-0.49c0.01-0.43,0.06-0.87,0.15-1.31c0.09-0.44,0.2-0.86,0.35-1.24c0.15-0.39,0.33-0.73,0.54-1.03
					c0.21-0.3,0.45-0.53,0.71-0.68c0.16-0.09,0.31-0.15,0.43-0.17c0.13-0.02,0.24-0.01,0.34,0.01c0.1,0.03,0.18,0.07,0.25,0.13
					c0.07,0.06,0.12,0.12,0.16,0.18v-0.32c0-0.1,0.02-0.2,0.06-0.3c0.04-0.1,0.09-0.16,0.15-0.2l0.59-0.34
					c0.06-0.03,0.11-0.02,0.15,0.03c0.04,0.05,0.06,0.13,0.06,0.23v6.51c0,1.12-0.18,2.07-0.53,2.84c-0.35,0.77-0.84,1.34-1.46,1.69
					c-0.26,0.15-0.51,0.23-0.74,0.24c-0.23,0.01-0.42-0.05-0.59-0.16c-0.17-0.11-0.3-0.27-0.4-0.48c-0.1-0.21-0.15-0.45-0.16-0.72
					c-0.01-0.1,0.01-0.2,0.06-0.3c0.04-0.1,0.09-0.17,0.15-0.2l0.53-0.31c0.07-0.04,0.13-0.03,0.19,0.02
					c0.05,0.06,0.1,0.11,0.13,0.17c0.07,0.12,0.16,0.19,0.28,0.23C217.25,261.1,217.43,261.04,217.68,260.9z M216.74,256.05
					c-0.02,0.27-0.02,0.53,0,0.78c0.03,0.58,0.14,0.96,0.31,1.12c0.18,0.16,0.39,0.17,0.65,0.02c0.26-0.15,0.47-0.41,0.64-0.78
					c0.17-0.37,0.28-0.81,0.3-1.33c0.01-0.14,0.02-0.32,0.02-0.54c0-0.21-0.01-0.39-0.02-0.52c-0.03-0.47-0.13-0.79-0.3-0.97
					c-0.17-0.18-0.39-0.19-0.64-0.04c-0.25,0.15-0.47,0.4-0.65,0.77C216.88,254.94,216.77,255.43,216.74,256.05z"/>
				<path id="XMLID_1023_" class="st8" d="M221.98,247.17c0.06-0.03,0.11-0.03,0.15,0.02c0.04,0.05,0.06,0.13,0.06,0.23v1.08
					c0,0.1-0.02,0.2-0.06,0.3c-0.04,0.1-0.09,0.16-0.15,0.2l-0.67,0.39c-0.06,0.03-0.11,0.02-0.15-0.03
					c-0.04-0.05-0.06-0.13-0.06-0.23v-1.08c0-0.1,0.02-0.2,0.06-0.3c0.04-0.1,0.09-0.16,0.15-0.2L221.98,247.17z M222.15,256.56
					c0,0.1-0.02,0.2-0.06,0.3c-0.04,0.1-0.09,0.16-0.15,0.2l-0.59,0.34c-0.06,0.03-0.11,0.02-0.15-0.03
					c-0.04-0.05-0.06-0.12-0.06-0.23v-6.47c0-0.1,0.02-0.2,0.06-0.3c0.04-0.1,0.09-0.16,0.15-0.2l0.59-0.34
					c0.06-0.03,0.11-0.02,0.15,0.03c0.04,0.05,0.06,0.12,0.06,0.23V256.56z"/>
				<path id="XMLID_1026_" class="st8" d="M227.43,253.51c0,0.1-0.02,0.2-0.06,0.3c-0.04,0.1-0.09,0.16-0.15,0.2l-0.59,0.34
					c-0.06,0.03-0.11,0.02-0.15-0.03c-0.04-0.05-0.06-0.13-0.06-0.23v-3.53c0-0.56-0.07-0.96-0.22-1.21
					c-0.15-0.25-0.37-0.29-0.67-0.11c-0.28,0.16-0.49,0.45-0.65,0.88c-0.16,0.42-0.24,0.92-0.24,1.47v3.53c0,0.1-0.02,0.2-0.06,0.3
					c-0.04,0.1-0.09,0.16-0.15,0.2l-0.59,0.34c-0.06,0.03-0.11,0.02-0.15-0.03c-0.04-0.05-0.06-0.13-0.06-0.23v-6.47
					c0-0.1,0.02-0.2,0.06-0.3c0.04-0.1,0.09-0.16,0.15-0.2l0.59-0.34c0.06-0.03,0.11-0.03,0.15,0.03c0.04,0.05,0.06,0.13,0.06,0.23
					v0.32c0.14-0.32,0.29-0.61,0.48-0.87c0.18-0.26,0.4-0.47,0.65-0.61c0.32-0.18,0.58-0.25,0.8-0.2c0.21,0.05,0.39,0.19,0.51,0.41
					c0.13,0.22,0.22,0.51,0.28,0.87c0.05,0.36,0.08,0.76,0.08,1.2V253.51z"/>
			</g>
			<g id="XMLID_641_">
				<path id="XMLID_716_" class="st13" d="M277.87,224.4l-9.71,5.61l1.51-13.62c-1.16-0.61-1.9-2.13-1.9-4.3
					c0-3.87,2.35-8.36,5.25-10.04c2.9-1.67,5.25,0.1,5.25,3.97c0,2.17-0.74,4.54-1.9,6.49L277.87,224.4z"/>
				<polygon id="XMLID_715_" class="st14" points="277.87,224.4 269.33,219.47 268.16,230.01 				"/>
				<path id="XMLID_643_" class="st14" d="M273.02,202.05c-1.9,1.1-3.56,3.4-4.48,5.95l7.83,4.52l0,0c1.16-1.96,1.9-4.32,1.9-6.49
					C278.27,202.15,275.92,200.38,273.02,202.05z"/>
			</g>
		</g>
		<g id="XMLID_979_">
			<g id="XMLID_1560_">
				<g id="XMLID_1570_">
					<path id="XMLID_2351_" class="st2" d="M225.8,156.7c-3.32-1.92-7.91-1.65-12.99,1.28c-10.14,5.85-18.36,20.09-18.36,31.8
						c0,5.87,2.07,9.99,5.42,11.9c0.87,0.5,5.59,3.24,6.47,3.75c3.32,1.92,7.91,1.65,12.98-1.28c10.14-5.85,18.36-20.09,18.36-31.8
						c0-5.85-2.05-9.96-5.37-11.88"/>
					<path id="XMLID_2399_" class="st2" d="M219.32,161.75c-10.14,5.86-18.36,20.09-18.36,31.8c0,11.71,8.22,16.45,18.36,10.6
						c10.14-5.85,18.37-20.09,18.36-31.8C237.67,160.65,229.45,155.9,219.32,161.75z"/>
					<path id="XMLID_999_" class="st2" d="M229.45,187.73v1.34c-2.61,4.46-6.19,8.35-10.14,10.62c-3.95,2.28-7.52,2.53-10.14,1.07
						v-2.77c0-5.35,3.63-11.63,8.26-14.31l2.67-1.53c2.37-1.37,4.66-1.54,6.46-0.5C228.41,182.71,229.45,184.92,229.45,187.73z"/>
					<path id="XMLID_1014_" class="st15" d="M225.8,156.7l6.51,3.77c-3.32-1.92-7.91-1.65-12.98,1.28
						c-6.64,3.84-12.45,11.27-15.68,19.23l-6.51-3.77c3.22-7.96,9.04-15.39,15.68-19.22C217.89,155.06,222.48,154.78,225.8,156.7z"
						/>
					<path id="XMLID_1016_" class="st16" d="M206.1,205.29c-1.15-0.66-5.42-3.15-6.23-3.61c-3.34-1.91-5.42-6.03-5.42-11.9
						l6.51,3.77C200.96,199.26,202.92,203.32,206.1,205.29z"/>
					<path id="XMLID_995_" class="st17" d="M197.13,177.21l6.51,3.77c-1.7,4.2-2.68,8.54-2.68,12.57v0l-6.51-3.77
						C194.45,185.74,195.44,181.4,197.13,177.21z"/>
				</g>
			</g>
			<g id="XMLID_738_">
				<g id="XMLID_980_">
					<path id="XMLID_983_" class="st10" d="M217.01,181.52c-0.64,0-1.23-0.15-1.77-0.46c-1.24-0.71-1.92-2.13-1.92-3.98
						c0-3.39,2.3-7.38,5.24-9.08v0c1.6-0.93,3.16-1.04,4.41-0.33c1.24,0.71,1.92,2.13,1.92,3.98c0,3.39-2.3,7.38-5.24,9.08
						C218.74,181.26,217.84,181.52,217.01,181.52z"/>
				</g>
				<g id="XMLID_764_">
					<path id="XMLID_765_" class="st10" d="M226.57,181.65c-1.8-1.04-4.1-0.87-6.46,0.5l-2.67,1.53c-4.63,2.68-8.26,8.97-8.26,14.31
						v2.77c2.61,1.45,6.19,1.2,10.14-1.07c3.94-2.27,7.52-6.16,10.14-10.62v-1.34C229.45,184.92,228.41,182.71,226.57,181.65z"/>
				</g>
			</g>
		</g>
	</g>
</g>
<g id="Plants">
	<g id="Plants_10_">
		<g id="XMLID_860_">
			<g id="XMLID_864_">
				<path id="XMLID_866_" class="st2" d="M432.15,354.65c0,0,1.33-11.68,7.14-20.74c5.81-9.06,13.79-14.72,21.24-15.31
					s13.46,6.26,5.49,10.97c-7.97,4.71-22.13,9.51-28.64,27.11L432.15,354.65z"/>
				<path id="XMLID_865_" class="st17" d="M432.15,354.65c0,0,1.33-11.68,7.14-20.74c5.81-9.06,13.79-14.72,21.24-15.31
					s13.46,6.26,5.49,10.97c-7.97,4.71-22.13,9.51-28.64,27.11L432.15,354.65z"/>
			</g>
			<g id="XMLID_862_">
				<path id="XMLID_863_" class="st10" d="M434.34,351.61c-0.03,0-0.05-0.01-0.08-0.02c-0.2-0.08-0.3-0.31-0.22-0.52
					c7.86-19.36,22.82-27.44,29.64-29.01c0.21-0.05,0.43,0.08,0.48,0.3c0.05,0.21-0.08,0.43-0.3,0.48
					c-6.68,1.54-21.34,9.48-29.08,28.53C434.71,351.55,434.52,351.65,434.34,351.61z"/>
			</g>
		</g>
		<g id="XMLID_259_">
			<g id="XMLID_857_">
				<g id="XMLID_858_">
					<path id="XMLID_859_" class="st2" d="M474.12,351.84c-0.67,1.52-2.33,2.31-3.88,2.93c-1.54,0.62-3.22,1.29-4.05,2.73
						c-1.68,2.9,1.08,6.99-0.73,9.81c-0.76,1.19-2.17,1.81-3.55,2.06c-1.15,0.22-2.32,0.21-3.49,0.31
						c-0.56-0.01-1.12-0.05-1.66-0.13c-1.6-0.23-3.34-0.31-4.8,0.51c-2.31,1.3-3.02,4.21-4.42,6.46c-1.68,2.69-4.65,4.45-7.77,4.88
						c-1.04,0.14-2.97,0.32-4.02-0.27c-0.08-0.05-0.15-0.09-0.22-0.14c-0.01,0-0.01-0.01-0.02-0.02c-0.14-0.16-0.33-0.37-0.41-0.49
						c-0.02-0.02-0.03-0.04-0.04-0.07c-0.41-1.51,0.26-3.07,0.29-4.63c0-0.1,0-0.19,0-0.28c-0.06-1.81-0.12-3.61-0.16-5.41
						c-0.08-3.32-0.12-6.64-0.1-9.96c0.02-2.16-0.24-4.52,0.68-6.55c1.01-2.23,3.52-2.28,4.47-4.48c0.38-0.87,0.58-1.81,0.95-2.69
						c1.1-2.59,3.76-4.46,6.58-4.59c4.39-0.22,8.32,3.33,12.71,3.01c1.13-0.09,2.24-0.43,3.36-0.64c3.55-0.67,7.66,0.35,9.66,3.35
						C474.33,348.81,474.73,350.46,474.12,351.84z"/>
				</g>
			</g>
			<g id="XMLID_737_">
				<path id="XMLID_855_" class="st10" d="M434.7,373.52c-0.01,0-0.02,0-0.03-0.01c-0.2-0.05-0.32-0.26-0.26-0.46
					c6.06-22.74,30.03-26.03,35.63-25.63c0.2,0.02,0.36,0.19,0.35,0.4c-0.01,0.21-0.19,0.36-0.4,0.35
					c-5.48-0.4-28.92,2.82-34.86,25.07C435.08,373.44,434.89,373.55,434.7,373.52z"/>
			</g>
			<g id="XMLID_733_">
				<path id="XMLID_736_" class="st10" d="M461.33,361.99c-0.07-0.01-0.14-0.05-0.2-0.1c-0.06-0.06-6.17-6.09-16.31-4.59
					c-0.2,0.03-0.39-0.11-0.43-0.32c-0.03-0.2,0.11-0.4,0.32-0.43c10.53-1.55,16.89,4.74,16.95,4.81c0.15,0.15,0.14,0.38,0,0.53
					C461.57,361.98,461.45,362.02,461.33,361.99z"/>
			</g>
		</g>
	</g>
</g>
<g id="Clouds">
	<g id="Clouds_1_">
		<path id="XMLID_1526_" class="st18" d="M377.12,80.01l3.18,1.22v-7.01c0-5.56,4.43-6.89,9.25-4.11l0,0
			c4.81,2.78,8.71,9.54,8.71,15.09v1.02c1.09-0.44,2.5-0.27,4.04,0.62h0c3.46,2,6.27,6.86,6.27,10.86v0.46l4.44,2.56
			c2.28,1.32,4.13,4.52,4.13,7.15c0,2.63-1.85,3.7-4.13,2.38l-35.9-20.73c-2.28-1.32-4.13-4.52-4.13-7.15
			C372.99,79.76,374.83,78.69,377.12,80.01z"/>
		<path id="XMLID_1523_" class="st18" d="M419.71,74.46l5.77,3.33c-0.03-0.26-0.05-0.51-0.05-0.76v-1.67c0-2.97,2.09-4.18,4.66-2.69
			c1.04,0.6,2,1.56,2.78,2.67c0.42-3.74,3.36-5.13,6.92-3.08c3.85,2.22,6.98,7.64,6.98,12.09v2.5c0,1.15-0.21,2.12-0.59,2.9
			l4.79,2.77c1.43,0.83,2.59,2.83,2.59,4.48c0,1.65-1.16,2.32-2.59,1.49l-31.26-18.05c-1.43-0.82-2.59-2.83-2.59-4.48
			C417.12,74.31,418.28,73.64,419.71,74.46z"/>
	</g>
</g>
<g id="Character">
	<g id="Character_3_">
		<g id="XMLID_729_">
			<g id="XMLID_1087_">
				<path id="XMLID_1144_" class="st19" d="M397.37,226.23c-4.2,7.1-8.24,13.27-11.08,16.23c-5.39,2.51-18.05,6.36-23,7
					c-0.88,0.11-1.76-0.11-2.49-0.59c-1.95-1.28-3.45-1.48-5.51-2.19c-1.61-0.56-2.29-1.32-2.59-1.03
					c-0.39,0.38-0.81,1.44,0.17,2.55c0.49,0.56,1.39,1.16,2.54,1.9c0,0-3.54,0.94-6.7,0.11c-4.29-1.13-6.31,0.94-3.41,5.59
					c1.04,1.67,5.13,4.34,13.41,3.62c2.39-0.21,5.83-0.41,8.8-1.04c7.95-1.7,16.78-3.34,22.21-4.96c1.37-0.41,3.82-1.99,5.27-3.66
					c9.13-10.41,12.16-17.83,16.16-24.57l-0.35-11.02C404.34,213.98,400.88,220.29,397.37,226.23z"/>
				<path id="XMLID_1143_" class="st13" d="M411.93,213.98c0,0-5.65-1.2-9.9,4.23c-4.45,5.69-12.31,19.35-12.31,19.35
					s2.58,6.85,9.52,7.98l11.15-15.06C410.39,230.48,415.67,220.06,411.93,213.98z"/>
				<g id="XMLID_1136_">
					<rect id="XMLID_1142_" x="428.77" y="367.54" class="st19" width="7.27" height="12.96"/>
					<polygon id="XMLID_1141_" class="st19" points="410.84,366.84 403.58,367.1 403.21,353.39 410.84,353.13 					"/>
					<path id="XMLID_1140_" class="st14" d="M437.06,255.35c0,7.23-1.06,65.4-1.06,65.4c0.17,2.08,2.04,5.91,1.64,13.9
						c-0.55,10.85-1.28,39.37-1.28,39.37s-3.53,2.15-8.09,0.17c0,0-5.89-39.96-7.19-50.71c-1.14-9.39-4.05-40.52-4.05-40.52
						l-3.94,36.74c0,0,1.34,5.6,0.9,12.03c-0.34,4.97-2.68,30.88-2.68,30.88s-3.42,2.42-8.39,0.67c0,0-4.13-39.01-4.22-43.58
						c-0.1-5.2,2.42-64.42,2.42-64.42L437.06,255.35z"/>
					<path id="XMLID_1139_" class="st6" d="M428.77,376.76v-1.08c-0.7,0.32-2.31,6.74-5.19,9.47c-2.29,2.18-5.42,4.69-6.21,7.12
						c-0.83,2.53,4.35,3.92,6.5,3.52c2.49-0.46,6.8-2.28,7.88-3.98c1.08-1.69,1.59-4.19,2.47-5.43c0.88-1.24,2.91-2.62,3.38-4.06
						c0.26-0.79-0.05-2.51-0.42-3.97c-0.34-1.34-0.7-2.81-1.14-2.68c0,0.16,0,0.83,0,0.83c-0.53,0.61-1.99,1.21-3.63,1.28
						C431.34,377.82,428.76,377.6,428.77,376.76z"/>
					<path id="XMLID_1138_" class="st6" d="M403.5,364.77c-0.38,0.01-0.68,0.57-1.52,1.51c-1.01,1.13-2.65,2.36-4.28,3.2
						c-2.72,1.42-8.01,3.6-10.41,4.72c-1.5,0.7-1.43,2.58,0.12,3.65s5.28,1.84,9.76,0.8c2.44-0.57,5.62-2.92,7.63-2.79
						c2.01,0.13,5.78,0.1,7.26-0.97c1.49-1.07,0.89-3.34,0.47-5.3c-0.46-2.14-1.03-5.47-1.71-5.32v0.74
						c-0.87,1.38-5.38,1.94-7.3,0.92L403.5,364.77z"/>
					<path id="XMLID_1137_" class="st6" d="M417.01,282.95c0,0-5.81-1.7-10.12-6.04c0,0,1.95,3.81,7.76,7.35l-1.24,32.81
						L417.01,282.95z"/>
				</g>
				<g id="XMLID_1122_">
					<path id="XMLID_1124_" class="st2" d="M432.99,215.06c0,0,5.98,1.38,5.57,12.22l-1.26,17.26l0.03,25.9
						c-5.34,6.06-29.04,5.61-37.15-0.48c0,0,0.92-30.65,1.47-42.44c0.39-8.38,2.32-12.61,10.56-13.53l10.13,0.45L432.99,215.06z"/>
				</g>
				<g id="XMLID_1094_">
					<path id="XMLID_1116_" class="st6" d="M425.36,192.54c0,6.22-4.84,11.27-10.82,11.27c-5.98,0-9.51-5.18-10.82-11.27
						c-2.39-11.13,4.84-11.27,10.82-11.27C420.51,181.27,425.36,186.31,425.36,192.54z"/>
					<g id="XMLID_1102_">
						<path id="XMLID_1115_" class="st6" d="M430.88,197.09c0,0-1.66,8.12-2.32,9.45c-0.67,1.33-2.04,1.71-2.04,1.71l0.12-5.71
							L430.88,197.09z"/>
						<path id="XMLID_1108_" class="st6" d="M428.79,185.46c0,0,1.19-0.3,2.45,1.68c1.08,1.69,1.33,5.5-0.37,9.96l-3.13,0.37
							L428.79,185.46z"/>
						<path id="XMLID_1330_" class="st6" d="M429.94,187.11l3.83,0.07c0.09-1.1-0.69-2.01-1.75-2.03
							C430.97,185.13,430.04,186.01,429.94,187.11z"/>
						<path id="XMLID_1286_" class="st6" d="M430.41,186.2l2.84-2.73c-0.7-0.81-1.9-0.86-2.69-0.11
							C429.78,184.11,429.71,185.38,430.41,186.2z"/>
						<path id="XMLID_1107_" class="st19" d="M426.81,197.47c0.63,0.39,1.52-0.86,2.29-1.71c0.77-0.84,3.2-1.64,4.46,1.12
							c1.28,2.82-0.89,5.49-2.69,6.39c-3.23,1.6-4.25-0.73-4.25-0.73l-0.26,12.86c-4.55,7.03-14.84,6.78-11.14-0.34l0.01-3.91
							c0,0-3.1,0.49-4.62,0.25c-2.52-0.41-4.1-2.47-4.87-5.31c-1.23-4.56-1.69-8.24-0.65-17.21c1.14-9.83,12.12-9.93,18.04-6.04
							C429.07,186.72,426.81,197.47,426.81,197.47z"/>
						<path id="XMLID_1106_" class="st6" d="M413.13,187.35c2.62-0.26,5.21-0.8,7.84-0.99c0.57-0.04,1.15-0.07,1.7,0.08
							c2.01,0.54,1.75,2.88,2.07,4.52c0.55,2.82,1.01,7.59,2.07,7.61c0.32,0.01,1.51-2.07,2.29-2.8c0.51-0.48,0.59-1.51,0.7-2.15
							c0.2-1.17,0.31-2.35,0.4-3.53c0.08-1,0.18-2.01,0.17-3.02c0-1.12,0.02-2.27-0.26-3.37c-0.25-1-0.72-1.74-1.4-2.52
							c-0.07-0.07-0.13-0.15-0.2-0.22c-1.29-1.39-2.94-2.44-4.69-3.16c-2.51-1.04-5.24-1.45-7.94-1.73
							c-2.7-0.28-5.43-0.43-8.09-0.97c-0.16-0.03-0.32-0.06-0.47-0.01c-0.23,0.09-0.33,0.36-0.38,0.6
							c-0.24,1.23,0.32,2.58,1.36,3.29c-1.81,0.14-3.89-0.8-5.64-1.27c-0.29-0.08-0.63-0.15-0.89,0c-0.18,0.11-0.29,0.31-0.35,0.51
							c-0.15,0.46-0.12,0.97-0.05,1.45c0.19,1.43,0.68,2.84,1.56,3.98c1.27,1.64,3.35,3.12,5.4,3.53
							C409.96,187.51,411.47,187.51,413.13,187.35z"/>
						<path id="XMLID_1103_" class="st20" d="M415.24,211.16c0,0,5.62-1.18,7.59-2.27c1.32-0.73,2.4-1.99,2.72-2.8
							c0,0-0.37,1.74-1.54,3.3c-1.44,1.91-8.76,3.32-8.76,3.32L415.24,211.16z"/>
					</g>
					<g id="XMLID_1095_">
						<path id="XMLID_1101_" class="st6" d="M416.59,196.01c0,0.67,0.5,1.22,1.13,1.22c0.62,0,1.13-0.55,1.13-1.22
							c0-0.67-0.5-1.22-1.13-1.22C417.09,194.79,416.59,195.33,416.59,196.01z"/>
						<path id="XMLID_1100_" class="st6" d="M418.39,191.15l2.41,1.38c0.36-0.72,0.1-1.62-0.56-2
							C419.58,190.15,418.75,190.43,418.39,191.15z"/>
						<path id="XMLID_1099_" class="st20" d="M415.74,204.11l-2.57,1c0.25,0.77,1.04,1.16,1.75,0.89
							C415.63,205.73,416,204.88,415.74,204.11z"/>
						<path id="XMLID_1098_" class="st6" d="M406.25,192.18l2.2-1.76c-0.45-0.66-1.3-0.79-1.91-0.31
							C405.93,190.6,405.81,191.53,406.25,192.18z"/>
						<path id="XMLID_1097_" class="st6" d="M407.22,195.67c0,0.67,0.5,1.22,1.13,1.22c0.62,0,1.13-0.55,1.13-1.22
							c0-0.67-0.5-1.22-1.13-1.22C407.72,194.45,407.22,195,407.22,195.67z"/>
						<polygon id="XMLID_1096_" class="st20" points="413.25,194.73 413.12,201.84 409.08,200.92 						"/>
					</g>
				</g>
			</g>
		</g>
		<g id="XMLID_931_">
			<g id="XMLID_975_">
				<polyline id="XMLID_861_" class="st21" points="317.31,254.28 323.58,250.66 326.06,247.65 319.8,251.27 317.31,254.28 				"/>
				<polyline id="XMLID_934_" class="st9" points="317.31,254.28 323.58,250.66 326.06,247.65 319.8,251.27 317.31,254.28 				"/>
			</g>
			<g id="XMLID_936_">
				<polyline id="XMLID_974_" class="st21" points="334.36,264.12 340.63,260.5 345.86,255.87 339.6,259.48 334.36,264.12 				"/>
				<polyline id="XMLID_935_" class="st9" points="334.36,264.12 340.63,260.5 345.86,255.87 339.6,259.48 334.36,264.12 				"/>
			</g>
			<path id="XMLID_971_" class="st2" d="M387.62,276.61c1.37,1.75,2.37,4.31,2.59,6.82C388.84,281.68,387.84,279.12,387.62,276.61z
				 M402.19,276.8c-2.11-14.35-9.82-28.55-19.01-33.85c-4.41-2.55-8.49-2.64-11.76-0.73c-0.96,0.56-4.5,2.6-5.9,3.4
				c-0.11,0.06-0.23,0.12-0.33,0.2c-0.26,0.14-0.51,0.31-0.76,0.48c-0.47,0.33-0.93,0.7-1.36,1.12c-0.06,0.05-0.12,0.12-0.2,0.18
				c-0.19,0.19-0.37,0.39-0.54,0.6c-0.22,0.25-0.43,0.5-0.63,0.77c-0.41,0.54-0.8,1.13-1.15,1.77c-0.17,0.31-0.35,0.64-0.51,0.98
				l-51.52-29.74l-6.26,3.61v3.99l0.53,0.31l0.49,0.29v0.84l-1.03,0.6v2.32l7.57,16.02l7.48,4.33l2.49-3.01l6.6,3.95l3.79,6.5
				l4.17,2.41l5.23-4.64l6.43,3.71l2.16,8.9l10.76,6.21c0.54,2.28,1.23,4.51,2.04,6.69c0.07,0.23,0.15,0.45,0.25,0.7
				c3.58,9.41,9.27,17.46,15.69,21.17c0.82,0.47,1.62,0.86,2.42,1.16c0.45,0.19,0.9,0.33,1.35,0.45c0.4,0.11,0.8,0.21,1.2,0.27
				c1.33,0.24,2.61,0.23,3.81-0.01c0.17-0.04,0.35-0.08,0.52-0.12c0.25-0.05,0.49-0.12,0.73-0.22c0.18-0.07,0.37-0.14,0.56-0.22
				c0.2-0.07,0.39-0.16,0.58-0.27c0.18-0.08,0.36-0.17,0.53-0.28c0.09-0.05,0.18-0.1,0.27-0.15c0.04-0.01,0.08-0.04,0.12-0.07
				c1.43-0.82,4.96-2.86,5.91-3.4c4.76-2.76,7.84-9.74,7.84-19.6C402.76,281.89,402.57,279.34,402.19,276.8z"/>
			<path id="XMLID_1041_" class="st2" d="M385.79,288.72c-2.47-1.43-4.48-5.67-4.48-9.47s2-5.73,4.48-4.31
				c2.47,1.43,4.47,5.67,4.47,9.47C390.26,288.22,388.26,290.15,385.79,288.72z M395.92,280.41c-2.11-14.34-9.82-28.54-19.01-33.84
				c-4.26-2.46-8.19-2.64-11.4-0.95c-0.11,0.06-0.23,0.12-0.33,0.2c-0.26,0.14-0.51,0.31-0.76,0.48c-0.47,0.33-0.93,0.7-1.36,1.12
				c-0.06,0.05-0.12,0.12-0.2,0.18c-0.19,0.19-0.37,0.39-0.54,0.6c-0.22,0.25-0.43,0.5-0.63,0.77c-0.41,0.54-0.8,1.13-1.15,1.77
				c-0.17,0.31-0.35,0.64-0.51,0.98c-0.85,1.75-1.53,3.78-1.98,6.09l-55.79-32.22v3.99l0.53,0.31l0.49,0.29v0.84l-1.03,0.6v2.32
				l7.57,16.02l7.48,4.33l2.49-3.01l6.6,3.95l3.79,6.5l4.17,2.41l5.23-4.64l6.43,3.71l2.16,8.9l10.76,6.21
				c0.54,2.28,1.23,4.51,2.04,6.69c0.07,0.23,0.15,0.45,0.25,0.7c3.58,9.41,9.27,17.46,15.69,21.17c0.82,0.47,1.62,0.86,2.42,1.16
				c0.45,0.19,0.9,0.33,1.35,0.45c0.4,0.11,0.8,0.21,1.2,0.27c1.33,0.24,2.61,0.23,3.81-0.01c0.17-0.04,0.35-0.08,0.52-0.12
				c0.25-0.05,0.49-0.12,0.73-0.22c0.18-0.07,0.37-0.14,0.56-0.22c0.2-0.07,0.39-0.16,0.58-0.27c0.18-0.08,0.36-0.17,0.53-0.28
				c0.09-0.05,0.18-0.1,0.27-0.15c0.04-0.01,0.08-0.04,0.12-0.07c4.56-2.88,7.49-9.76,7.49-19.39
				C396.5,285.51,396.29,282.96,395.92,280.41z"/>
			<path id="XMLID_1044_" class="st9" d="M390.26,284.41c0,3.8-2,5.74-4.47,4.31c-2.48-1.43-4.48-5.66-4.48-9.47s2-5.74,4.48-4.31
				c0.66,0.38,1.29,0.96,1.83,1.68c0.22,2.5,1.22,5.07,2.59,6.82C390.25,283.76,390.26,284.09,390.26,284.41z"/>
			<path id="XMLID_1047_" class="st15" d="M402.76,284.4c0,9.87-3.08,16.85-7.84,19.6c-0.96,0.54-4.48,2.58-5.91,3.4
				c4.56-2.88,7.49-9.76,7.49-19.39c0-2.51-0.21-5.06-0.58-7.61c-2.11-14.34-9.82-28.54-19.01-33.84c-4.26-2.46-8.19-2.64-11.4-0.95
				c1.4-0.8,4.94-2.85,5.9-3.4c3.27-1.91,7.35-1.82,11.76,0.73c9.19,5.3,16.9,19.5,19.01,33.85
				C402.57,279.34,402.76,281.89,402.76,284.4z"/>
			<g id="XMLID_722_">
				<path id="XMLID_727_" class="st2" d="M396.5,288.02c0,9.63-2.93,16.51-7.49,19.39c1.43-0.82,4.96-2.86,5.91-3.4
					c4.76-2.76,7.84-9.74,7.84-19.6c0-0.36-0.01-0.73-0.02-1.1c-2.15,1.24-4.33,2.5-6.26,3.61
					C396.49,287.29,396.5,287.65,396.5,288.02z"/>
				<path id="XMLID_653_" class="st17" d="M396.5,288.02c0,9.63-2.93,16.51-7.49,19.39c1.43-0.82,4.96-2.86,5.91-3.4
					c4.76-2.76,7.84-9.74,7.84-19.6c0-0.36-0.01-0.73-0.02-1.1c-2.15,1.24-4.33,2.5-6.26,3.61
					C396.49,287.29,396.5,287.65,396.5,288.02z"/>
			</g>
			<g id="XMLID_724_">
				<polygon id="XMLID_1050_" class="st11" points="358.28,261.92 358.28,263.95 302.26,231.61 303.29,231.02 303.29,230.17 				"/>
				<polygon id="XMLID_1046_" class="st11" points="358.28,262.76 358.28,263.95 302.26,231.61 303.29,231.02 303.29,231 				"/>
			</g>
			
				<ellipse id="XMLID_1030_" transform="matrix(0.956 -0.2934 0.2934 0.956 -64.6042 122.7807)" class="st22" cx="376.92" cy="276.71" rx="14.79" ry="27.68"/>
			<path id="XMLID_1045_" class="st15" d="M360.04,251.72c-0.85,1.75-1.53,3.78-1.98,6.09l-55.79-32.22l6.26-3.61L360.04,251.72z"/>
		</g>
		<g id="XMLID_867_">
			<path id="XMLID_1093_" class="st19" d="M432.51,254.85c2.93-5.53,6.26-17.95,7.92-24.22c2.36-8.9-1.46-14.5-5.79-14.73
				c-2.72,0.41-11.64,32.89-11.64,32.89c-0.99,0.79-14.57,7.67-18.94,9.4c-0.77,0.31-1.63,0.29-2.42,0.01
				c-2.1-0.76-3.52-0.62-5.57-0.83c-1.61-0.16-2.42-0.73-2.62-0.39c-0.26,0.44-0.38,1.55,0.79,2.37c0.59,0.41,1.56,0.78,2.8,1.22
				c0,0-2.32,0.8-5.41,0.74c-4.19-0.09-5.7,1.73-2.45,5.98c2.04,2.66,5.32,3.5,12.7,0.95c2.13-0.74,5.01-2.17,7.69-3.14
				c5.55-2.02,6.97-2.23,11.23-3.67C426.93,259.37,431.21,257.31,432.51,254.85z"/>
			<path id="XMLID_335_" class="st13" d="M432.99,215.06c2.55,0.35,5.03,0.93,6.51,2.99c1.48,2.06,2.72,4.97,1.24,12.96
				c-1.48,7.99-4.54,16.47-4.54,16.47s-5.94,2.54-12.25-3.9l4.34-16.78C428.29,226.8,429.03,215.9,432.99,215.06z"/>
		</g>
	</g>
</g>
</svg>
