<?xml version="1.0" encoding="utf-8"?>
<!-- Generator: Adobe Illustrator 23.0.1, SVG Export Plug-In . SVG Version: 6.00 Build 0)  -->
<svg version="1.1" id="_x3C_Layer_x3E_" xmlns="http://www.w3.org/2000/svg" xmlns:xlink="http://www.w3.org/1999/xlink" x="0px"
	 y="0px" viewBox="0 0 1142.81 1378.72" style="enable-background:new 0 0 1142.81 1378.72;" xml:space="preserve">
<style type="text/css">
	.st0{fill:#FFFFFF;}
	.st1{fill:url(#SVGID_1_);}
	.st2{fill:url(#SVGID_2_);}
	.st3{fill:url(#SVGID_3_);}
	.st4{fill:#2265B2;}
	.st5{fill:url(#SVGID_4_);}
	.st6{fill:#E0E8EE;}
	.st7{fill:url(#SVGID_5_);}
	.st8{fill:url(#SVGID_6_);}
	.st9{display:none;}
	.st10{display:inline;}
	.st11{fill:#DBA585;}
	.st12{fill:#1A232F;}
	.st13{fill:#5A5C5A;}
	.st14{fill:#414D99;}
	.st15{display:inline;fill:#E6D8D1;}
	.st16{display:inline;fill:#DBA585;}
	.st17{display:inline;fill:#2C3D54;}
	.st18{fill:#E6D8D1;}
	.st19{fill:#CFC3BC;}
	.st20{fill:#2C323D;}
	.st21{fill:#F3E4DC;}
	.st22{fill:#997761;}
	.st23{display:inline;fill:#2F386C;}
	.st24{fill:#C99A7D;}
	.st25{display:inline;fill:#363957;}
	.st26{fill:#525368;}
	.st27{fill:#6A6B87;}
	.st28{display:inline;fill:#26283A;}
	.st29{fill:#2E3048;}
	.st30{fill:#EECAA2;}
	.st31{display:inline;fill:#70A9ED;}
	.st32{display:inline;fill:#5E5E5B;}
	.st33{display:inline;fill:#C59661;}
	.st34{display:inline;fill:#7B6F66;}
	.st35{display:inline;fill:#997761;}
	.st36{display:inline;fill:#CEAF8A;}
	.st37{fill:#70A9ED;}
	.st38{display:inline;fill:#46688D;}
	.st39{display:inline;fill:#414D99;}
	.st40{display:inline;fill:#2E4254;}
	.st41{display:inline;fill:#343D77;}
	.st42{fill:#E7B96B;}
	.st43{fill:#E09637;}
	.st44{fill:#EAC483;}
	.st45{fill:#F7F7F7;}
	.st46{fill:#2D374B;}
	.st47{fill:#26283A;}
	.st48{fill:#807F7D;}
	.st49{fill:#D8D6E1;}
	.st50{display:inline;fill:#232536;}
	.st51{fill:#DBA686;}
	.st52{display:inline;fill:#2E3048;}
	.st53{display:inline;fill:#DBA686;}
	.st54{display:inline;fill:#C1BFC9;}
	.st55{display:inline;fill:#3E4265;}
	.st56{display:inline;fill:#DCA787;}
	.st57{fill:#1F2531;}
</style>
<path class="st0" d="M1046.44,99.1c2.44-2.98,3.77-6.7,3.77-10.57c0-9.21-7.49-16.7-16.7-16.7c-9.21,0-16.7,7.49-16.7,16.7
	s7.49,16.7,16.7,16.7c3.87,0,7.59-1.33,10.57-3.77l12.47,12.47l2.36-2.36L1046.44,99.1z M1033.51,75.17
	c7.37,0,13.36,5.99,13.36,13.36c0,7.37-5.99,13.36-13.36,13.36c-7.37,0-13.36-5.99-13.36-13.36
	C1020.15,81.16,1026.15,75.17,1033.51,75.17z"/>
<g>
	<g>
		<g>
			<g>
				<g>
					<linearGradient id="SVGID_1_" gradientUnits="userSpaceOnUse" x1="191.3712" y1="400.3378" x2="478.7676" y2="400.3378">
						<stop  offset="0" style="stop-color:#0D2168"/>
						<stop  offset="1" style="stop-color:#2265B2"/>
					</linearGradient>
					<path class="st1" d="M455.05,369.25c-2.92-11.29-7.39-21.95-13.17-31.76l13.41-20.17l-18.6-18.6l-18.6-18.6l-20.17,13.41
						c-9.8-5.78-20.46-10.25-31.76-13.17l-4.78-23.72h-26.31h-26.31l-4.78,23.72c-11.29,2.92-21.95,7.39-31.76,13.17l-20.17-13.41
						l-18.6,18.6l-18.6,18.6l13.41,20.17c-5.78,9.8-10.25,20.47-13.17,31.76l-23.72,4.78v26.31v26.31l23.72,4.77
						c2.92,11.29,7.39,21.95,13.17,31.76l-13.41,20.17l18.6,18.6l18.6,18.6l20.17-13.41c9.8,5.78,20.47,10.25,31.76,13.17
						l4.78,23.72h26.31h26.31l4.78-23.72c11.29-2.92,21.95-7.39,31.76-13.17l20.17,13.41l18.6-18.6l18.6-18.6l-13.41-20.17
						c5.78-9.8,10.25-20.47,13.17-31.76l23.72-4.77v-26.31v-26.31L455.05,369.25z M335.07,492.53c-50.92,0-92.19-41.27-92.19-92.19
						c0-50.91,41.27-92.19,92.19-92.19c50.91,0,92.19,41.27,92.19,92.19C427.25,451.25,385.98,492.53,335.07,492.53z"/>
				</g>
			</g>
			<g>
				<g>
					<linearGradient id="SVGID_2_" gradientUnits="userSpaceOnUse" x1="79.0977" y1="214.2714" x2="264.0099" y2="214.2714">
						<stop  offset="0" style="stop-color:#0D2168"/>
						<stop  offset="1" style="stop-color:#2265B2"/>
					</linearGradient>
					<path class="st2" d="M248.75,194.27c-1.88-7.27-4.76-14.12-8.48-20.43l8.63-12.98l-11.97-11.97l-11.97-11.97l-12.98,8.63
						c-6.3-3.72-13.17-6.6-20.43-8.47l-3.07-15.26h-16.92h-16.92l-3.08,15.26c-7.26,1.88-14.12,4.76-20.43,8.47l-12.98-8.63
						l-11.97,11.97l-11.97,11.97l8.63,12.98c-3.72,6.31-6.6,13.17-8.47,20.43l-15.26,3.07v16.93v16.93l15.26,3.07
						c1.88,7.26,4.76,14.13,8.47,20.43l-8.63,12.98l11.97,11.97l11.97,11.97l12.98-8.63c6.3,3.72,13.16,6.6,20.43,8.48l3.08,15.26
						h16.92h16.92l3.07-15.26c7.26-1.88,14.13-4.76,20.43-8.48l12.98,8.63l11.97-11.97l11.97-11.97l-8.63-12.98
						c3.72-6.31,6.6-13.17,8.48-20.43l15.26-3.07v-16.93v-16.93L248.75,194.27z M171.55,273.58c-32.76,0-59.31-26.56-59.31-59.31
						c0-32.76,26.56-59.31,59.31-59.31c32.76,0,59.31,26.56,59.31,59.31C230.87,247.03,204.31,273.58,171.55,273.58z"/>
				</g>
			</g>
			<g>
				<linearGradient id="SVGID_3_" gradientUnits="userSpaceOnUse" x1="299.1779" y1="857.6364" x2="1008.5226" y2="857.6364">
					<stop  offset="0" style="stop-color:#0D2168"/>
					<stop  offset="1" style="stop-color:#2265B2"/>
				</linearGradient>
				<path class="st3" d="M503.2,1326.89h301.3c112.68,0,204.02-91.35,204.02-204.03V592.41c0-112.68-91.34-204.02-204.02-204.02
					H503.2c-112.68,0-204.02,91.34-204.02,204.02v530.46C299.18,1235.54,390.52,1326.89,503.2,1326.89z"/>
			</g>
			<g>
				<polygon class="st4" points="533.88,197.27 503.27,179.6 503.27,191.25 457.75,191.25 457.75,203.3 503.27,203.3 503.27,214.95 
									"/>
				<polygon class="st4" points="457.75,158.5 488.36,176.18 488.36,164.52 533.88,164.52 533.88,152.48 488.36,152.48 
					488.36,140.82 				"/>
			</g>
			<g>
				<g>
					<path class="st4" d="M908.88,195.85c-3.73-0.28-7.2-1.67-9.87-3.97c-3.04-2.61-4.7-6.08-4.69-9.78
						c-0.52-7.28-2.78-14.8-4.65-19.96c-8.91-7.11-13.71-18.09-12.85-29.45c1.43-18.88,17.95-33.07,36.83-31.64
						c18.88,1.43,33.07,17.95,31.64,36.83c-0.78,10.28-6.04,19.54-14.47,25.47c-2.56,6.97-4.1,13.34-4.57,18.96
						c-0.09,7.56-7.28,13.65-16.06,13.59C909.75,195.9,909.31,195.88,908.88,195.85z M913.43,103.85
						c-17.33-1.31-32.5,11.72-33.82,29.05c-0.8,10.56,3.72,20.76,12.09,27.27l0.32,0.25l0.14,0.38c1.96,5.34,4.41,13.35,4.96,21.15
						l0,0.11c-0.02,2.88,1.3,5.61,3.72,7.69c2.48,2.14,5.81,3.33,9.36,3.35c7.25,0.05,13.19-4.82,13.23-10.86l0-0.05v-0.05
						c0.5-5.99,2.15-12.78,4.9-20.17l0.16-0.42l0.37-0.25c7.94-5.44,12.91-14.05,13.63-23.62
						C943.79,120.34,930.76,105.16,913.43,103.85z"/>
				</g>
				<g>
					<polygon class="st4" points="902.51,184.14 898.02,146.73 905.82,153.18 910.66,147.81 914.84,152.85 922.13,146.67 
						917.69,184.15 914.91,183.82 918.5,153.43 914.49,156.82 910.57,152.1 906.1,157.06 901.65,153.37 905.3,183.81 					"/>
				</g>
				<g>
					
						<rect x="897.97" y="192.48" transform="matrix(1 6.779408e-03 -6.779408e-03 1 1.3591 -6.1657)" class="st4" width="24.35" height="9.81"/>
				</g>
				<g>
					
						<rect x="894.1" y="182.45" transform="matrix(1 6.735908e-03 -6.735908e-03 1 1.3029 -6.1267)" class="st4" width="32.18" height="15.8"/>
				</g>
			</g>
			<g>
				<path class="st4" d="M770.7,73.86c-0.24-0.72-0.69-1.57-1.34-2.56c-0.65-0.98-1.46-2.01-2.41-3.06
					c-0.96-1.06-2.06-2.08-3.32-3.09c-1.25-1-2.61-1.88-4.07-2.63l-6.92,16.07l1.34,0.95c2.5,1.88,4.7,3.71,6.6,5.51
					c1.9,1.8,3.36,3.63,4.4,5.48c1.04,1.86,1.61,3.84,1.72,5.94c0.11,2.1-0.38,4.39-1.44,6.88c-1.18,2.74-2.68,4.87-4.5,6.39
					c-1.82,1.52-3.88,2.55-6.16,3.1c-2.29,0.55-4.73,0.65-7.31,0.3c-2.58-0.34-5.2-1.06-7.86-2.14l-3.51,8.15l-4.04-1.74l3.58-8.31
					c-3.62-1.86-6.85-4.13-9.68-6.79c-2.84-2.66-5.19-5.68-7.05-9.06l7.17-5.75c0.3,0.87,0.84,1.9,1.61,3.09
					c0.77,1.19,1.74,2.44,2.9,3.73c1.16,1.3,2.49,2.58,4.01,3.84c1.51,1.26,3.15,2.4,4.92,3.41l6.92-16.07
					c-0.26-0.24-0.55-0.47-0.85-0.69c-0.3-0.22-0.59-0.45-0.85-0.69c-2.43-1.9-4.5-3.7-6.19-5.38c-1.7-1.68-2.97-3.38-3.83-5.1
					c-0.85-1.72-1.3-3.49-1.34-5.32c-0.04-1.83,0.41-3.83,1.34-6c1.09-2.53,2.5-4.6,4.23-6.19c1.72-1.59,3.7-2.75,5.91-3.48
					c2.21-0.73,4.57-1.04,7.07-0.92c2.49,0.12,5.08,0.64,7.75,1.54l3.38-7.84l4.03,1.74l-3.37,7.84c3.27,1.66,6.09,3.67,8.44,6.03
					c2.36,2.36,4.28,4.82,5.76,7.36L770.7,73.86z M744.22,64.85c-0.94,2.17-0.88,4.13,0.18,5.88c1.06,1.74,2.96,3.7,5.71,5.86
					l6.58-15.29c-3.22-1.2-5.87-1.47-7.94-0.8C746.69,61.17,745.17,62.62,744.22,64.85z M755.55,100.28
					c0.98-2.28,0.82-4.39-0.49-6.33c-1.31-1.94-3.4-4.08-6.26-6.42l-6.62,15.37c3.33,1.38,6.15,1.85,8.45,1.43
					C752.93,103.9,754.58,102.55,755.55,100.28z"/>
			</g>
			<linearGradient id="SVGID_4_" gradientUnits="userSpaceOnUse" x1="732.6661" y1="32.147" x2="732.6661" y2="367.9982">
				<stop  offset="0" style="stop-color:#E0E8EE"/>
				<stop  offset="1" style="stop-color:#FCF8F4"/>
			</linearGradient>
			<path class="st5" d="M1122.04,256.12c-154.69,10-157.63,185.86-157.63,185.86v837.57H343.29V441.99c0,0-0.7-175.28,158.41-185.86
				H1122.04z"/>
			<rect x="424.85" y="474.93" class="st6" width="426.63" height="37.64"/>
			<rect x="424.85" y="561.98" class="st6" width="364.28" height="26.66"/>
			<rect x="424.85" y="632.36" class="st6" width="183.12" height="39.6"/>
			<rect x="662.09" y="632.36" class="st6" width="189.39" height="39.6"/>
			<rect x="424.85" y="708.63" class="st6" width="291.74" height="28.23"/>
			<rect x="424.85" y="779.21" class="st6" width="328.69" height="15.69"/>
			<rect x="424.85" y="849.79" class="st6" width="395.26" height="15.68"/>
			<g>
				<path class="st6" d="M609.23,1007.89H423.6v-88.77h185.63V1007.89z M426.1,1005.39h180.62v-83.76H426.1V1005.39z"/>
			</g>
			<rect x="653.85" y="920.37" class="st6" width="166.26" height="20.39"/>
			<rect x="653.85" y="963.51" class="st6" width="117.84" height="20.39"/>
			<rect x="424.85" y="1061.54" class="st6" width="325.76" height="15.68"/>
			<rect x="424.85" y="1132.12" class="st6" width="187.24" height="15.69"/>
			<g>
				<linearGradient id="SVGID_5_" gradientUnits="userSpaceOnUse" x1="784.1105" y1="1115.0472" x2="901.1534" y2="1115.0472">
					<stop  offset="0" style="stop-color:#0D2168"/>
					<stop  offset="1" style="stop-color:#2265B2"/>
				</linearGradient>
				<path class="st7" d="M901.15,1173.57H784.11v-117.04h117.04V1173.57z M795.09,1162.6h95.09v-95.1h-95.09V1162.6z"/>
			</g>
			<g>
				<linearGradient id="SVGID_6_" gradientUnits="userSpaceOnUse" x1="803.3214" y1="1100.932" x2="921.2726" y2="1100.932">
					<stop  offset="0" style="stop-color:#0D2168"/>
					<stop  offset="1" style="stop-color:#2265B2"/>
				</linearGradient>
				<polygon class="st8" points="844.47,1139.55 803.32,1100.76 815.87,1087.45 845.3,1115.2 909.66,1062.31 921.27,1076.44 				"/>
			</g>
			<g class="st9">
				<g class="st10">
					<g>
						<g>
							<path class="st11" d="M431.06,1148.49c0,0,2.54,2.43,3.42,4.7c0.7,1.8,3.02,4.17,4.12,5.53c1.1,1.36,5.21,7.72,5.8,9.49
								c0.24,0.72-0.08,5.72,0.57,7.14c0.65,1.42,2.32,4.14,1.06,4.64c-1.27,0.51-3.45-1.52-3.45-1.52s0.51,1.33-0.46,2.11
								c-1.89,1.52-3.29,0.91-3.29,0.91s-0.38,1.68-1.32,2.13c-2.09,0.97-3.44,0.34-3.44,0.34s-0.74,1.07-2.28,1.41
								c-1.97,0.43-3.28-1.07-3.28-1.07s-2.34,1.1-3.39,0.11c-1.05-0.99-1.28-2.26-1.88-3.24c-0.6-0.98-3.08-10.53-1.8-18.14
								c1.28-7.61-4.67-13.31-4.67-13.31L431.06,1148.49z"/>
						</g>
					</g>
				</g>
				<g class="st10">
					<path class="st12" d="M452.05,1206.98h-32.85c-3.34,0-6.05-2.71-6.05-6.05v-20.71c0-3.34,2.71-6.05,6.05-6.05h32.85
						c3.34,0,6.05,2.71,6.05,6.05v20.71C458.11,1204.27,455.39,1206.98,452.05,1206.98z M419.21,1178.23c-1.1,0-1.99,0.89-1.99,1.99
						v20.71c0,1.1,0.9,1.99,1.99,1.99h32.85c1.1,0,1.99-0.89,1.99-1.99v-20.71c0-1.1-0.89-1.99-1.99-1.99H419.21z"/>
				</g>
				<g class="st10">
					<rect x="374.01" y="1198.09" class="st13" width="123.25" height="88.3"/>
				</g>
				<g class="st10">
					<path class="st11" d="M383.28,961.8c0,0-6.31,0.09-9,18.97c-2.69,18.88,2.41,26.77,3.02,34.62
						c0.61,7.86,9.82,58.59,10.08,60.83c0.25,2.24,1.48,29.25,5.08,36.41c3.59,7.17,30,47.78,30.36,49.81
						c0.36,2.03,12.83-7.08,12.83-7.08s-20.75-43.44-21.96-48.39c-1.2-4.96-9.55-30.26-8.23-37.99c1.32-7.73-3.7-50.34-3.21-55.08
						C402.71,1009.14,395.38,964.68,383.28,961.8z"/>
				</g>
				<g class="st10">
					<path class="st14" d="M383.28,961.8c0,0-6.31,0.09-9,18.97c-2.69,18.88-0.26,25.68,1.37,33.86c1.54,7.73,6.77,55,7.03,57.24
						c0.25,2.24,6.52,30.74,9.78,40.76c2.48,7.63,26.03,47.54,26.38,49.56c0.36,2.03,18.31-9.33,18.31-9.33
						s-23.03-44.93-24.23-49.88c-1.2-4.96-5.1-22.11-5.23-29.95c-0.14-9.21-5.94-54.4-5.45-59.14
						C402.71,1009.14,400.9,968.26,383.28,961.8z"/>
				</g>
				<path class="st15" d="M330.46,1402.05c0,0,11,16.33,15.42,20.26c0,0,10.2,3.57,10.83,10.5c0.41,4.53,0.02,11.82-11.63,12.15
					c-11.65,0.33-19.13-3.74-21.26-10.8c-2.13-7.05-6.16-10.21-6.16-10.21v14.77h-2.63c0,0-0.66-14.27-0.82-16.9
					c-0.17-2.63-1.89-12.72,3.65-17.19C323.41,1400.16,330.46,1402.05,330.46,1402.05z"/>
				<path class="st15" d="M405.04,1389c0,0,1.91,4.5,5.5,9.19c2.64,3.44,10.83,17.55,14.44,18.54c3.61,0.99,14.77,2.96,15.75,9.19
					c0.99,6.24,1.48,10.67-9.52,11.16c-10.99,0.5-18.21,1.15-23.46-6.56c-5.25-7.71-13.62-13.29-13.62-13.29v20.12h-4.27
					c0,0-1.97-20.94-3.12-22.42c-1.15-1.48-4.1-17.55,6.07-25.93C402.99,1380.64,405.04,1389,405.04,1389z"/>
				<path class="st16" d="M323.08,1086.92c0,0-13.88,18.05-17.65,39.46c-3.76,21.41,2.22,93.28,2.06,103.86
					c-0.16,10.58-10.01,36.92-8.04,56.85c1.97,19.94,18.42,117.53,18.42,117.53l12.59-2.58c0,0-1.23-101.16,0-109.53
					c1.23-8.37,3.7-38.87,4.19-42.32c0.49-3.45,31.25-93.93,31.25-109.37C365.91,1125.4,356.56,1061.74,323.08,1086.92z"/>
				<path class="st16" d="M392.82,1093.98c0,0,22.81,87.05,25.52,99.11c2.7,12.06,6.63,22.01,6.63,27.13
					c0,11.88-4.41,30.96-4.41,30.96L405.04,1389h-12.22c0,0-7.71-80.48-8.94-96.73c-1.23-16.24,8.86-41.35,6.4-48.24
					c-2.46-6.89-39.63-86.39-39.63-86.39S322.51,1068.71,392.82,1093.98z"/>
				<path class="st16" d="M347.78,1423.15c0,0-9.58,4.92-18.27-1.58c-8.7-6.5-11.63-16.94-11.63-16.94l12.59-2.58L347.78,1423.15z"
					/>
				<path class="st16" d="M424.98,1416.73c0,0-9.84,2.46-13.62,0c-3.77-2.46-16.61-24.15-20.86-25.44c0,0,4.12-8.36,14.54-2.29
					C405.04,1389,422.19,1413.13,424.98,1416.73z"/>
				<path class="st17" d="M422.01,1206.97c0,0-41.91,24.67-120.45,24.67c0,0-4.45-91.1,6.97-116.73
					c11.42-25.63,87.23-9.69,87.23-9.69S419.31,1188.13,422.01,1206.97z"/>
				<g class="st10">
					<path class="st18" d="M364.75,955c0,0,12.18,5.75,16.41,6.6c4.23,0.84,20.64,22.16,23.52,29.94c2.87,7.78,0,19.46-5.92,33.16
						c-5.92,13.7-0.34,18.27-3.04,31.97c-2.71,13.71-5.08,42.72-4.57,50.33c0.51,7.61-68.42,9.05-84.16-4.82
						c0,0,15.81-23.68,17.84-27.07c2.03-3.39,0.34-21.82-1.52-26.56c-1.86-4.74-14.25-45.02-14.25-45.02s-10.13-30.94-0.98-38.04
						c7.95-6.18,29.62-8.38,33.51-9.73C345.48,954.4,356.81,953.81,364.75,955z"/>
				</g>
				<g class="st10">
					<path class="st19" d="M368.65,982.15l7.4-8.66l-6.42-22.82C369.62,950.67,367.46,963.37,368.65,982.15z"/>
				</g>
				<g class="st10">
					<path class="st11" d="M349.38,868.55c7.24-2.55,33.83-8.8,40.09,25.21c6.26,34-12.52,58.2-29.77,51.77
						c-17.26-6.43-27.92-29.95-28.93-47.88C329.76,879.72,340.25,871.77,349.38,868.55z"/>
				</g>
				<g class="st10">
					<path class="st20" d="M389.48,893.76c0,0,1.3-29.1-27.63-30.12c-28.92-1.01-36.71,22.81-34.34,40.16
						c2.37,17.36,14.34,26.51,14.34,26.51s-1.04-14.04,4.57-17.69c5.61-3.65,28.11-10.92,37.92-27.84
						C384.35,884.79,388.9,890.13,389.48,893.76z"/>
				</g>
				<g class="st10">
					<path class="st20" d="M353.41,890.67c-3.81,11.59-15.11,18.28-25.24,14.95c-10.13-3.33-15.25-15.43-11.44-27.01
						c3.81-11.59,15.11-18.28,25.24-14.95C352.1,867,357.22,879.09,353.41,890.67z"/>
				</g>
				<g class="st10">
					<path class="st11" d="M370.57,940.94c0,0-2.43,22.34-1.92,29.62c0,0-12.66,12.68-27.05-14.8c0,0,6.06-11.33,1.5-26.77
						C338.54,913.55,370.57,940.94,370.57,940.94z"/>
				</g>
				<g class="st10">
					<polygon class="st11" points="368.65,970.56 368.65,982.15 354.08,971.26 					"/>
				</g>
				<g class="st10">
					<polygon class="st19" points="368.65,982.15 362.6,974.67 342.23,954.36 335.64,960.71 					"/>
				</g>
				<g class="st10">
					<path class="st14" d="M339.4,956.3c0,0,17.09,25.94,17.91,37.37c0.82,11.42-6.35,96.83-12.09,124.29
						c-5.74,27.46-47.23-3.1-47.23-3.1s27.88-45.13,17.18-81.26c-10.7-36.13-14.59-50.58-14.59-50.58s3.68-20.12,16.73-22.95
						C328.74,957.59,339.4,956.3,339.4,956.3z"/>
				</g>
				<g class="st10">
					<path class="st14" d="M405.81,995.01c0,0,3.08,10.91-8.93,35.03c0,0,0.19,30.87,0.53,40.51c0.34,9.64,2.63,46.1,2.63,46.1
						l-11.88,6.96c-2.39,1.4-5.36-0.54-5.03-3.29c3.37-27.75,14.31-133.01-9.33-161.3l9.49,2.79
						C383.28,961.8,400.13,975.59,405.81,995.01z"/>
				</g>
				<g class="st10">
					<path class="st11" d="M349.34,906.48c-1.06-2.67-4.57-3.42-6.6-1.9c-2.03,1.52-3.22,6.09,0,12.01
						C345.95,922.52,357.29,926.64,349.34,906.48z"/>
				</g>
				<g class="st10">
					<polygon class="st21" points="376.05,973.48 385.37,976.06 369.62,950.67 					"/>
				</g>
				<g class="st10">
					<polygon class="st21" points="362.6,974.67 354.08,985.83 336.59,956.68 342.23,954.36 					"/>
				</g>
				<g class="st10">
					<path class="st22" d="M370.07,945.86l-0.42,4.48c0,0-10.06,1.88-23.22-14.17C346.43,936.17,355.75,947.55,370.07,945.86z"/>
				</g>
				<g class="st10">
					<g>
						<g>
							<path class="st11" d="M421.83,1082.65c0,0,5.92,3.81,9.32,1.68c2.89-1.81,7.94-2.06,9.49-2.14c2.08-0.11,8.34-2.81,8.5-0.2
								c0.16,2.62-10.1,4.96-12.16,5.88c-2.05,0.92,6.99,5.34,8.01,7.45c1.02,2.11-7.15,16.68-13,12.93
								c-5.86-3.75-9.64-11.63-10.8-12.08c-1.16-0.46-4.37-2.56-4.37-2.56L421.83,1082.65z"/>
						</g>
					</g>
				</g>
				<g class="st10">
					<path class="st11" d="M309.47,964.14c0,0,8.21-2.04,15.31,5.58c7.11,7.61,10.66,20.13,12.52,24.19
						c1.86,4.06,25.37,41.62,26.73,42.46c1.36,0.84,25.25,20.13,36.08,30.45c10.83,10.32,31.93,21.82,31.93,21.82l-7.95,11.17
						c0,0-64.12-34.17-72.24-46.69c-8.12-12.52-40.54-47.2-40.54-47.2S291.97,976.75,309.47,964.14z"/>
				</g>
				<g class="st10">
					<g>
						<g>
							<path class="st11" d="M443.84,1094.13c0,0,17.17,12.67,17.61,14.47c0.44,1.8-0.3,2.69-1.96,1.58
								c-1.66-1.12-16.95-11.76-16.95-11.76s17.8,18.41,18.48,19.81c0.4,0.82-0.93,2.63-1.88,2.11
								c-0.94-0.52-19.63-17.76-19.63-17.76s16.59,17.22,16.81,18.56c0.19,1.17-1.45,2.52-2.77,1.33
								c-1.32-1.19-17.62-16.31-17.62-16.31s11.29,13.29,10.81,14.53c-0.29,0.76-1.37,2.38-4.18-1.14
								c-2.81-3.52-10.3-11.14-10.3-11.14L443.84,1094.13z"/>
						</g>
					</g>
				</g>
				<path class="st23" d="M399.7,1023.98c0,0,0.57,38.53-1.78,57.11l-1.04-51.06L399.7,1023.98z"/>
				<g class="st10">
					<path class="st14" d="M313.71,961.32c0,0,4.68,0.79,11.78,8.4c7.1,7.61,10.66,20.13,12.52,24.19
						c1.86,4.06,25.38,41.62,26.73,42.46c1.35,0.84,20.93,14.29,31.76,24.61c10.83,10.32,30.98,22.65,30.98,22.65l-10.34,15.35
						c0,0-56.54-31.32-65.51-43.24c-9.58-12.74-43.73-50.14-43.73-50.14S285.75,971.53,313.71,961.32z"/>
				</g>
				<g class="st10">
					<g>
						<path class="st24" d="M442.67,1177.49c0,0-2.21-8.58-4.96-9.85c-2.76-1.28-2.14,1.86-2.14,1.86s-0.56-3.12-3.13-2.94
							c-2.56,0.17-1.64,3.81-1.64,3.81s-1.07-2.25-3.5-1.16c-2.44,1.1-0.97,3.94-0.97,3.94s-3.29-2.35-4.08,0.85
							c-1.34,5.4,2.71,10.49,2.71,10.49s1.26,1.15,3.53-0.07c0,0,2.63,2.92,5.62-0.32c0,0,4.38,1.16,4.8-2.48
							C438.92,1181.63,443.96,1182.42,442.67,1177.49z"/>
					</g>
				</g>
				<path class="st23" d="M352.28,1064.76l-19.36-31.23c0,0,16.5,19.48,18.22,21.58c1.72,2.09,1.87,2.24,1.87,2.24
					S352.51,1063.69,352.28,1064.76z"/>
			</g>
			<polygon class="st4" points="913.14,668.72 735.76,668.72 735.76,801.87 735.76,829.91 762.84,801.87 913.14,801.87 			"/>
			<polygon class="st4" points="101.99,679.96 279.37,679.96 279.37,813.11 279.37,841.16 252.29,813.11 101.99,813.11 			"/>
			<g>
				<g>
					<path class="st0" d="M822.34,779.29c-3.63-0.28-6.99-1.62-9.6-3.86c-2.95-2.54-4.57-5.91-4.56-9.51
						c-0.5-7.07-2.7-14.39-4.52-19.4c-8.66-6.91-13.32-17.58-12.49-28.62c1.39-18.35,17.45-32.14,35.8-30.75
						c18.35,1.39,32.14,17.45,30.75,35.8c-0.76,9.99-5.88,18.99-14.07,24.76c-2.49,6.77-3.98,12.97-4.44,18.43
						c-0.09,7.35-7.07,13.27-15.6,13.21C823.19,779.34,822.76,779.32,822.34,779.29z M826.77,689.88
						c-16.85-1.28-31.59,11.39-32.87,28.23c-0.78,10.26,3.61,20.17,11.75,26.51l0.31,0.24l0.14,0.37
						c1.91,5.19,4.29,12.98,4.82,20.56l0,0.1c-0.02,2.8,1.26,5.45,3.61,7.47c2.41,2.07,5.64,3.23,9.1,3.25
						c7.05,0.05,12.82-4.69,12.85-10.55v-0.05l0-0.05c0.49-5.83,2.09-12.42,4.76-19.6l0.15-0.41l0.35-0.25
						c7.72-5.29,12.54-13.65,13.25-22.96C856.28,705.9,843.61,691.15,826.77,689.88z"/>
				</g>
				<g>
					<polygon class="st0" points="816.16,767.91 811.79,731.55 819.37,737.82 824.07,732.6 828.14,737.5 835.22,731.49 
						830.91,767.92 828.2,767.59 831.7,738.06 827.79,741.36 823.99,736.77 819.65,741.59 815.31,738.01 818.87,767.59 					"/>
				</g>
				<g>
					
						<rect x="811.74" y="776.01" transform="matrix(1 6.743414e-03 -6.743414e-03 1 5.2839 -5.536)" class="st0" width="23.67" height="9.54"/>
				</g>
				<g>
					
						<rect x="807.98" y="766.27" transform="matrix(1 6.729538e-03 -6.729538e-03 1 5.227 -5.5251)" class="st0" width="31.28" height="15.35"/>
				</g>
			</g>
			<g>
				<path class="st0" d="M212.56,728.31c-0.66-0.73-1.63-1.53-2.91-2.37c-1.28-0.85-2.77-1.66-4.45-2.44
					c-1.69-0.77-3.54-1.44-5.55-2c-2.02-0.56-4.09-0.91-6.21-1.07l-0.08,22.78l2.09,0.45c3.96,0.97,7.53,2.04,10.72,3.23
					c3.19,1.18,5.88,2.62,8.08,4.32c2.2,1.7,3.89,3.77,5.09,6.23c1.2,2.46,1.8,5.45,1.79,8.98c-0.01,3.89-0.72,7.21-2.12,9.95
					c-1.4,2.75-3.34,5.03-5.8,6.86c-2.47,1.83-5.33,3.19-8.6,4.1c-3.27,0.91-6.77,1.39-10.51,1.45l-0.04,11.56l-5.72-0.02
					l0.04-11.77c-5.28-0.39-10.3-1.45-15.07-3.19c-4.76-1.74-9.12-4.16-13.07-7.25l5.64-10.55c0.81,0.88,1.98,1.84,3.52,2.87
					c1.53,1.03,3.33,2.03,5.38,2.99c2.05,0.96,4.31,1.81,6.76,2.55c2.45,0.74,5,1.26,7.64,1.56l0.08-22.78
					c-0.44-0.15-0.9-0.28-1.37-0.39c-0.48-0.11-0.93-0.24-1.38-0.39c-3.88-1.04-7.27-2.13-10.17-3.28c-2.9-1.15-5.29-2.53-7.2-4.15
					c-1.9-1.62-3.35-3.51-4.33-5.68c-0.98-2.17-1.47-4.79-1.46-7.87c0.01-3.59,0.64-6.78,1.9-9.57c1.26-2.78,3.03-5.18,5.31-7.19
					c2.28-2.01,4.95-3.58,7.99-4.71c3.05-1.13,6.41-1.83,10.08-2.11l0.04-11.12l5.72,0.02l-0.04,11.11
					c4.77,0.31,9.17,1.28,13.19,2.9c4.03,1.63,7.58,3.58,10.66,5.87L212.56,728.31z M176.23,731.05c-0.01,3.08,1.06,5.4,3.23,6.94
					c2.16,1.55,5.44,2.92,9.83,4.1l0.07-21.68c-4.48,0.21-7.78,1.24-9.92,3.1C177.31,725.39,176.24,727.9,176.23,731.05z
					 M207.92,767.69c0.01-3.23-1.27-5.67-3.83-7.33c-2.56-1.66-6.16-3.16-10.77-4.49l-0.07,21.79c4.69-0.06,8.31-0.92,10.84-2.61
					C206.63,773.38,207.9,770.92,207.92,767.69z"/>
			</g>
			<g class="st9">
				<path class="st16" d="M1045.32,1179.08c0,0-6.26,1.26-9.25,1.36c-2.99,0.09-16.84-6.19-21.27-5.59
					c-4.43,0.6-33.32,12.87-34.63,13.77c-1.31,0.89,0.62,2.87,0.62,2.87l66.33,0.78L1045.32,1179.08z"/>
				
					<rect x="957.38" y="1191.33" transform="matrix(-1 -7.559055e-03 7.559055e-03 -1 2016.0186 2400.3884)" class="st25" width="110.33" height="10.11"/>
				
					<rect x="890.84" y="1141.74" transform="matrix(-0.2925 -0.9563 0.9563 -0.2925 126.0533 2386.8386)" class="st25" width="110.33" height="10.1"/>
				<g class="st10">
					<path class="st26" d="M1158.81,1405.17l4.25,9.21c0,0,17.92-6.68,18.01-6.91c0.09-0.22-4.93-12.79-4.93-12.79L1158.81,1405.17z
						"/>
				</g>
				<g class="st10">
					<path class="st27" d="M1005.32,1404.97l-4.96,14.49c0,0,19.67,4.33,22.53,4.11c0.25-0.02,3.72-16.42,3.72-16.42
						L1005.32,1404.97z"/>
				</g>
				<path class="st28" d="M1025.09,1419.34c0,0-13.75-3.73-14.15-4.33c-0.41-0.59-5.45-4-8.05-3.56c-2.6,0.43-2.83,3.54-5.43,4.18
					c-2.6,0.64-22.68,7.06-25.46,8.7c-2.78,1.64-16.07-3.19-18.63,0.25c-2.56,3.44-5.04,12.49,15.84,15.61
					c20.88,3.13,43.22,12.45,48.22,11.18C1022.42,1450.1,1025.85,1424.91,1025.09,1419.34z"/>
				<path class="st28" d="M1182.49,1405.02c0,0-12.74,5.44-13.41,5.23s-6.57,0.23-8.29,2.13c-1.72,1.9-0.03,4.41-1.62,6.46
					c-1.6,2.05-10.68,14.07-13.34,16.85c-2.17,2.27-14.09,4.39-17.92,8.38c-2.88,3.01,0.51,15.06,20.79,9.3
					c19.75-5.6,44.21-15.31,47.26-19.3S1186.43,1408.8,1182.49,1405.02z"/>
				<g class="st10">
					<path class="st29" d="M1169.43,1224.39c0,0-56.03,24.91-67.9,33.43c-11.87,8.52-37.87,24.21-38.73,28.04
						c-0.86,3.84-6.01,0.1,3.21,19.28c9.22,19.18,52.8,65.34,56.89,70.36c4.26,5.24,34.5,36.58,34.5,36.58l22.74-17.13
						c0,0-43.72-64.29-50.05-73.75c-6.33-9.45-9.18-10.85-5.43-15.03c3.74-4.17,18.69-4.11,95.64-35.99
						c7.69-3.19,29.14-10.56,31.97-20.89c5.11-18.66,0.73-42.3-19.95-52.7C1211.62,1186.2,1169.43,1224.39,1169.43,1224.39z"/>
				</g>
				<g class="st10">
					<path class="st11" d="M1142.78,1044.04c0.49,0.43,1.03,1.39,1.58,2.7c0.81,1.87,1.66,4.48,2.48,7.36
						c2.54,8.89,4.85,20.29,4.85,20.29s32.07-26.72,27.54-28.4c-4.53-1.68-7.89-9.49-7.89-9.49S1139.4,1041.04,1142.78,1044.04z"/>
				</g>
				<g class="st10">
					<path class="st29" d="M1170.31,1214.31c0,0-57.88,13.62-72.2,18.19c-14.31,4.57-38.94,12.63-45.55,16.4
						c-3.52,2.01-8.88,5.01-15.31,25.92c-7.29,23.71-23.92,90.4-27.7,100.78c-2.38,6.52-9.19,32.18-9.19,32.18l29.58,5.13
						c0,0,35.23-70.92,38.08-89.82c4.81-31.82,17.15-31.99,22.13-34.89c4.98-2.9,28.98,2.54,114.35-4.27
						c8.53-0.68,31.85-1.1,37.89-10.31c10.91-16.63,21.92-35.53,4.98-52.25C1230.43,1204.66,1170.31,1214.31,1170.31,1214.31z"/>
				</g>
				<g class="st10">
					<path class="st11" d="M1131.48,977.05c0,0-10.02,17.3-7.73,22.01c2.28,4.71-10.46,16.12-8.37,18.53
						c2.09,2.42,6.41,5.35,6.33,6.05c-0.07,0.7,3.71,23.25,8.62,23.75c4.92,0.5,38.52-1.24,41.31-11.75
						c2.79-10.51,10.99-33.54,12.91-37.82C1186.48,993.56,1167.11,960.53,1131.48,977.05z"/>
				</g>
				<g class="st10">
					<path class="st30" d="M1172.91,973.71c2.8,2.07,5.06,4.28,6.87,6.52c2.21,1.03,15.2,7.49,12.5,14.47
						c-3.64,9.39-18.33,34.54-19.57,37.17c-0.17,0.35-0.17-0.31-0.04-1.72c-0.91-8.88-11.84-18.83-11.84-18.83l-5.83-2.63
						c3.04-5.66,1.84-10.95,1.84-10.95c-6.61-7.07-28.54-14.7-28.54-14.7C1131.42,951.74,1158.21,962.8,1172.91,973.71z"/>
				</g>
				<g class="st10">
					<path class="st11" d="M1162.99,1003.95c1.55-2.37,9.73-1.98,8.54,5c-1.19,6.98-11.23,12.58-13.42,9.47
						C1155.92,1015.31,1161.33,1006.47,1162.99,1003.95z"/>
				</g>
				<path class="st31" d="M1179.23,1045.99c0,0,40.62,23.66,49.78,64.99s25.74,113.9,26.03,122.5c0,0-54.96-26.45-84.74-19.17
					c0,0-18.75-67.35-28.61-83.26c-9.86-15.91,4.8-53.3,4.8-53.3S1160.51,1055.32,1179.23,1045.99z"/>
				<path class="st32" d="M1327.33,1064.49l-32.73,95.98c-0.25,0.73-0.4,1.49-0.45,2.26l-7.85,126.21l-136.84,3.05l-39.88,145.15
					c-1.2,4.39-0.43,9.1,2.21,12.84c1.74,2.46,4.22,4.63,7.68,5.06c8.68,1.06,184.36,0,184.36,0v-7.26c0-3.62-3-6.55-6.69-6.55
					h-164.24c-2.71,0-5.31-1.17-6.97-3.27c-0.98-1.23-1.67-2.76-1.4-4.5c0.72-4.63,35.78-122.89,35.78-122.89l132.32-2.34
					c6.02-0.11,10.92-4.79,11.17-10.69l5.75-135.8c0.04-0.86,0.18-1.72,0.42-2.55l26.75-91.76c0,0,2.8-6.4-2.35-7.02
					C1329.22,1059.79,1327.9,1062.81,1327.33,1064.49z"/>
				<path class="st33" d="M1148.73,1294.65c0,0-0.1-10.48,14.26-11.21c16.49-0.84,123.75-1.58,123.75-1.58l-0.71,11.15
					L1148.73,1294.65z"/>
				<path class="st33" d="M1082.48,1209.22v4.89H849.37v-4.89c0-4.56,3.06-8.25,6.84-8.25h219.42
					C1079.41,1200.97,1082.48,1204.67,1082.48,1209.22z"/>
				<path class="st34" d="M933.02,1452.57h-70.44v-11.26h59.17C927.98,1441.31,933.02,1446.35,933.02,1452.57L933.02,1452.57z"/>
				<rect x="867.05" y="1214.11" class="st34" width="9.31" height="238.46"/>
				<rect x="885.75" y="1214.11" class="st34" width="9.31" height="238.46"/>
				<path class="st35" d="M1144.37,1046.73c0.81,1.87,1.66,4.48,2.48,7.36c4.8-2,13.96-10.44,14.24-10.71
					C1157.26,1044.87,1144.37,1046.73,1144.37,1046.73z"/>
				<path class="st36" d="M983.57,1214.11H817.04v-4.89c0-4.56,3.91-8.25,8.74-8.25h131.71L983.57,1214.11z"/>
				<g class="st10">
					<path class="st37" d="M1161.4,1077.99c0,0-9.67,13.71-15.65,24.09c-6.78,11.76-13.44,23.38-14.91,26
						c-2.99,5.31-13.63,8.15-18.34,10.17c-4.33,1.86-76.47,40.47-77.38,40.39c-0.92-0.08,7.77,14.39,7.77,14.39
						s100.16-28.73,104.67-32.84c4.5-4.11,17.86-22.84,23.33-30.56c5.21-7.35,13.19-19.4,17.43-24.6
						c4.74-5.81,14.67-25.68,2.04-35.59C1174.21,1056.77,1165.29,1072.18,1161.4,1077.99z"/>
				</g>
				<path class="st38" d="M1188.86,1104.33c0,0-11.59,31.42-18.55,42.13c-6.97,10.71-14.66,19.62-14.66,19.62l-3.71-10.84
					C1151.94,1155.24,1181.92,1114,1188.86,1104.33z"/>
			</g>
			<g class="st9">
				<path class="st15" d="M100.91,1401.69c0,0-8.56,22.03-13.24,25.88c-4.68,3.85-15.39,10.71-12.71,14.05
					c2.68,3.35,21.58,3.85,26.1,1.84c4.52-2.01,5.25-9.31,11.27-11.65c6.02-2.34,1.46-14.79,0.83-19.26
					c-0.81-5.83-2.37-6.66-2.37-9.67C110.78,1399.86,100.91,1401.69,100.91,1401.69z"/>
				<path class="st15" d="M182.84,1395.98c0,0,2.15,8.85,3.15,11.19c1,2.34,8.03,14.38,9.37,15.89c1.34,1.51,20.58,9.87,18.07,12.55
					c-2.51,2.67-5.69,5.85-18.91,2.84c-13.21-3.01-17.26-13.22-27.62-14.22c-10.36-1-7.26-12.37-3.25-17.38
					c4.01-5.02,8.22-13.87,8.22-13.87L182.84,1395.98z"/>
				<path class="st39" d="M232.92,1266.39c-1.76,11.79-36.99,76.73-48.41,133.15c-0.09,0.45-0.21,0.87-0.33,1.25
					c-6.54-0.74-12.5-2.66-16.17-4.05c0.27-8.32,7.99-75.09,11.98-87.54c4.18-13.05,16.82-40.66,16.32-49.52
					c-0.5-8.87-6.2-14.79-10.05-19.13c-2.21-2.5-16.02-22.64-27.35-39.89v0c-6.5-9.9-12.18-18.86-14.38-22.97
					c-0.62-1.17-0.97-1.95-0.97-2.25c0-3.18-49.93-89.56,38.94-75.39c0,0,2.26,14.55,2.76,17.31c0.33,1.78,7.79,19.42,14.17,36.2
					c3.49,9.17,6.65,18.08,8.16,24.02c1.79,7.03,4.89,17.71,8.06,28.1c0,0.01,0,0.01,0,0.01c4.41,14.45,8.94,28.33,10.26,31.1
					C228.15,1241.55,234.68,1254.59,232.92,1266.39z"/>
				<path class="st39" d="M145.61,1173.05c0,0-6.82,29.39-10.59,41.18c-3.76,11.8-11.36,37.56-11.71,44.33
					c-0.35,6.77-0.34,21.58-0.83,27.6c-0.5,6.02,0.13,30.2-1.47,42.5c-1.6,12.29-7.93,71.84-8.43,75.6
					c-0.01,0.08-0.03,0.17-0.05,0.26c-5.94,0.96-10.95,0.84-14.55,0.47c-0.02-0.06-0.03-0.13-0.05-0.2
					c-3.51-16.4-7.26-77.19-7.51-86.97c-0.25-9.79,2.51-32.12,1.51-38.89c-1-6.77-10.29-76.28-7.28-104.38
					c3.01-28.1,12.64-74.51,12.64-74.51S197.04,1064.15,145.61,1173.05z"/>
				<path class="st16" d="M190.37,1126.52c-0.25-2.51-2.86-20.06-5.12-31.38c-2.26-11.31-4.14-21.67-5.39-26.18
					c-0.08-0.3-0.21-0.82-0.38-1.51c-0.82-3.34-2.59-10.79-4.48-17.78c-0.14-0.49-0.27-0.98-0.4-1.46v-2.59
					c-1.34-4.84,0.74-7.34,1.16-11.04c0.12-1.11,0.1-2.33-0.21-3.76c-0.01-0.06-0.02-0.1-0.04-0.16
					c-1.49-6.47-2.54-12.09-2.54-15.18c0-10.29-4.76-59.87-4.76-59.87s15.84,7.42,18.1,18.46c2.26,11.04,2.9,35.41,3.15,40.43
					c0.25,5.02,8.1,42.66,8.85,51.19c0.75,8.53,1.88,15.81,3.63,21.58c1.76,5.77,0.25,35.1,0.75,39.62
					C203.18,1131.4,190.62,1129.03,190.37,1126.52z"/>
				<path class="st40" d="M158.01,911.1c0,0,12.39-36.33-11.25-47.59c-23.64-11.26-43.72,5.02-47.51,13.83
					c-3.79,8.81-2.79,24.83,0.45,36c3.23,11.17,2.76,28.18-4.26,33.86c-7.03,5.69-13.23,18.07-18.93,28.55
					c-5.7,10.48,50.57-24.7,50.57-24.7L158.01,911.1z"/>
				<path class="st16" d="M136.93,869.7c0,0,24.59,7.28,21.08,41.4c-3.51,34.13-19.57,32.37-21.08,32.62
					c-1.51,0.25-20.57,1.51-26.6-39.89C104.31,862.43,136.93,869.7,136.93,869.7z"/>
				<path class="st15" d="M148.56,949.36c0,0,23.89,6.15,26.15,10.17c2.26,4.01,2.51,21.58,4.01,27.35
					c1.51,5.77,4.77,18.04,2.52,23.06c-2.26,5.02-4.77,9.81-4.02,13.32c0.75,3.51,2.76,13.3,1,20.83
					c-1.75,7.52-2.76,23.08-0.5,33.87c2.26,10.79,4.52,20.32,4.77,22.08c0.25,1.76-85.22,0.01-85.22,0.01s6.94-24.1,9.44-29.62
					c2.51-5.52-2.26-26.85-4.52-31.87c-2.26-5.02-12.04-25.34-12.04-27.6c0,0-10.35-35.38-9.44-36.63
					c0.91-1.26,0.36-6.47,10.21-12.58c7.55-4.69,29.94-10.27,36.21-11.28C133.4,949.47,148.56,949.36,148.56,949.36z"/>
				<path class="st16" d="M148.65,937.44c0,0-1.06,12.16,1.12,19.18c2.18,7.03-24.59,6.69-26.77,1.34
					c-2.18-5.35,1.05-12.8-1.9-24.05C118.15,922.67,148.65,937.44,148.65,937.44z"/>
				<path class="st15" d="M172.96,979.41c0,0,6.8,8.78,9.39,18.36c2.33,8.62,0.28,17.39-5.16,24.08c0,0-22.77-1.15-30.8-0.98
					c-8.03,0.17-33.36,2.95-47.46,10.67c0,0-10.61-19.35-10.3-22.05c0.31-2.7,6.84-20.77,17.08-22.75
					c19.13-3.68,31.81,20.24,37.84,19.57C149.57,1005.64,153.72,982,172.96,979.41z"/>
				<path class="st40" d="M130.58,884.92c0,0,13.36,21.25,27.42,26.18c0,0,7.68-35.66-24.04-43.13
					c-31.71-7.47-26.75,36.02-24.38,47.62C109.59,915.59,116.2,898.52,130.58,884.92z"/>
				<path class="st35" d="M124.75,938.89c0,0,9.73,10.14,22.17,1.06c0,0-1.03,6.48-9.98,7.31
					C127.99,948.09,124.75,938.89,124.75,938.89z"/>
				<path class="st41" d="M158.91,1200.65C158.91,1200.65,158.9,1200.65,158.91,1200.65L158.91,1200.65
					c-6.51-9.91-12.19-18.86-14.39-22.98c0,0,0,0,0-0.01c0,0,8.76-22.17,9.69-30.82C155.13,1138.2,158.91,1200.65,158.91,1200.65z"
					/>
				<path class="st16" d="M118.67,952.29c0,0,11.05,19.09,23.29,22.15c12.24,3.06,11.89-15.57,8.31-24.63c0,0-0.38-0.97-12.39-1.15
					C125.37,948.48,118.67,952.29,118.67,952.29z"/>
				<g class="st10">
					<path class="st42" d="M92.53,1092.03c-6.2-35.35,17.43-69.03,52.77-75.23c35.34-6.2,69.03,17.42,75.23,52.77
						c6.2,35.35-17.43,69.03-52.77,75.23C132.41,1151,98.73,1127.38,92.53,1092.03z"/>
					<path class="st42" d="M171.55,1144.02l-22.42-127.78c33.92-3.92,65.42,19.26,71.4,53.33
						C226.51,1103.63,204.78,1136.15,171.55,1144.02z"/>
					<path class="st42" d="M92.53,1092.03c-5.26-29.96,10.92-58.72,37.49-70.57l21.79,124.17
						C122.78,1143.53,97.78,1121.99,92.53,1092.03z"/>
					<path class="st43" d="M107.16,1079.51c0.71-27.27,23.39-48.8,50.66-48.08c27.26,0.71,48.79,23.39,48.08,50.65
						c-0.71,27.27-23.39,48.79-50.66,48.08C127.98,1129.46,106.45,1106.78,107.16,1079.51z"/>
					<g>
						<path class="st44" d="M174.79,1074.31c-0.27-0.58-0.74-1.26-1.38-2.04c-0.65-0.77-1.43-1.56-2.34-2.36
							c-0.91-0.8-1.95-1.57-3.12-2.29c-1.16-0.72-2.4-1.33-3.71-1.83l-4.3,14.3l1.23,0.67c2.31,1.35,4.35,2.69,6.13,4.03
							c1.78,1.34,3.21,2.75,4.27,4.22c1.06,1.47,1.74,3.09,2.04,4.87c0.29,1.77,0.11,3.76-0.55,5.97c-0.73,2.44-1.8,4.39-3.19,5.85
							c-1.39,1.46-3.04,2.54-4.92,3.23c-1.89,0.69-3.94,1.01-6.17,0.97c-2.22-0.04-4.51-0.39-6.88-1.05l-2.18,7.25l-3.59-1.08
							l2.22-7.39c-3.25-1.23-6.2-2.83-8.87-4.81c-2.67-1.98-4.96-4.32-6.86-7l5.52-5.57c0.34,0.7,0.9,1.52,1.67,2.46
							c0.77,0.94,1.71,1.9,2.83,2.88c1.11,0.99,2.36,1.94,3.77,2.87c1.4,0.92,2.91,1.73,4.51,2.41l4.3-14.3
							c-0.25-0.18-0.51-0.35-0.79-0.5c-0.28-0.16-0.54-0.33-0.79-0.5c-2.25-1.38-4.17-2.7-5.78-3.96c-1.6-1.26-2.85-2.58-3.75-3.95
							c-0.89-1.37-1.44-2.83-1.66-4.38c-0.21-1.54-0.03-3.29,0.55-5.22c0.68-2.26,1.67-4.14,2.98-5.66
							c1.31-1.51,2.87-2.69,4.68-3.53c1.81-0.83,3.77-1.32,5.9-1.46c2.13-0.14,4.37,0.05,6.73,0.55l2.1-6.98l3.59,1.08l-2.1,6.97
							c2.94,1.09,5.52,2.52,7.75,4.29c2.23,1.78,4.09,3.67,5.6,5.68L174.79,1074.31z M151.46,1069.25
							c-0.58,1.93-0.34,3.59,0.73,4.96c1.07,1.37,2.87,2.84,5.42,4.41l4.09-13.61c-2.85-0.71-5.12-0.67-6.81,0.1
							C153.2,1065.89,152.05,1067.27,151.46,1069.25z M164.52,1098.18c0.61-2.03,0.26-3.8-1.04-5.32c-1.3-1.52-3.28-3.13-5.93-4.83
							l-4.12,13.68c2.96,0.84,5.4,0.97,7.3,0.39C162.66,1101.51,163.91,1100.21,164.52,1098.18z"/>
					</g>
					<path class="st45" d="M181.74,1140.7c27.35-11.47,44.13-40.69,38.79-71.13c-5.34-30.45-31.07-52.19-60.69-53.68L181.74,1140.7z
						"/>
					<path class="st45" d="M151.8,1145.62l-21.79-124.17c4.78-2.13,9.89-3.71,15.28-4.66c1.28-0.22,2.56-0.41,3.83-0.56
						l22.42,127.78c-1.25,0.3-2.51,0.56-3.8,0.78C162.37,1145.75,157.02,1146,151.8,1145.62z"/>
				</g>
				<path class="st16" d="M87.04,964.22c0,0-8.93,6.85-15.7,19.4c-6.77,12.54-22.33,34.63-25.34,41.9
					c-3.01,7.28-13.05,19.55-14.49,29c-1.41,9.24,2.35,12.63,8.37,16.64c6.02,4.02,48.76,17.15,48.76,17.15s7.57-12.11,3.73-12.93
					c-6.98-1.49-23.61-11.83-26.43-13.49c-3.06-1.81-10.62-8.25-6.86-11.26c3.76-3.01,29.33-40.42,34.6-47.69
					c5.27-7.27,14.8-25.09,11.29-34.12C101.44,959.78,93.25,960.81,87.04,964.22z"/>
				<path class="st16" d="M83.7,1073.05c0,0,2.01,1.08,3.86,0.76c3.19-0.54,6.23-4.39,10.13-1.99c3.9,2.4-0.78,16.11-3.04,17.99
					c-2.26,1.89-8.52,0.19-16-5.77C71.17,1078.1,83.7,1073.05,83.7,1073.05z"/>
				<path class="st16" d="M96.24,1071.2c0,0,6.86,1.02,14.35,3.03c6.57,1.77,13.85,4.99,14,6.37c0.18,1.54-6.85-0.84-13.49-2.18
					c-6.11-1.23-5.13-0.02-5.13-0.02s-0.26-0.36,6.12,2.21c6.86,2.77,13.59,6.25,13.58,7.9c0,0.8-0.45,1.12-3.12,0.5
					c1.45,0.67,1.46,1.14,1.22,1.73c-1.24,3.09-12,0.52-16.27-0.5c3.28,0.81,5.59,1.73,3.52,3.16c-2.37,1.64-17.4-2.65-22.94-3.7
					C82.05,1088.56,96.24,1071.2,96.24,1071.2z"/>
				<g class="st10">
					<path class="st11" d="M210,1056.25c0,0,9.92-2.31,13.11,2.47c3.19,4.78,3.3,10.93,2.51,13.77c-0.8,2.84-3.37,10.16-6.72,8.66
						C208.13,1076.33,210,1056.25,210,1056.25z"/>
				</g>
				<g class="st10">
					<path class="st11" d="M219.81,1056.36c0,0-1.39-6.7-4.07-5.56c-2.68,1.15-0.26,5.56-0.26,5.56L219.81,1056.36z"/>
				</g>
				<g class="st10">
					<path class="st46" d="M91.12,1090.48c-1.83,7.42-2.9,7.48-3.39,7.5c-0.02,0-0.03,0-0.05,0c-0.83,0-1.25-1.16-1.49-2.05
						c-0.6-2.19-0.8-4.79-0.79-7.43c0.03-6.63,1.47-13.51,1.71-14.64c0.01-0.07,0.05-0.29,0.06-0.32l0.42,0.11l0,0l0.41,0.06
						c-0.03,0.1-1.77,8.03-1.75,15.2c0,2.44,0.21,4.81,0.75,6.8c0.37,1.36,0.68,1.43,0.69,1.43c0.06,0,0.38-0.09,0.95-1.41
						c0.42-0.98,0.97-2.62,1.66-5.4C90.58,1090.4,90.86,1090.45,91.12,1090.48z"/>
				</g>
			</g>
			<g class="st9">
				<path class="st28" d="M730.4,1417.43c0,0,4.47,8.35,7.39,11.66c2.92,3.31,14.12,9.23,14.18,19.07
					c0.06,10.67-18.87,7.71-26.27,7.32c-7.4-0.39-7.96-6.09-11.08-12.13c-3.11-6.04-6.26-5.02-6.84-9.89
					c-0.59-4.87,3.02-16.03,3.02-16.03H730.4z"/>
				<g class="st10">
					<path class="st47" d="M617.7,1416.46c0,0-9.12,10.19-18.39,12.32c-9.26,2.13-15.74,4.86-15.81,10.7
						c-0.07,5.84,26.65,9.69,37.25,3.8c15.82-8.8,17.43-6.14,19.18-10.54c1.75-4.4-2.11-16.15-1.99-17.55
						C638.08,1413.47,617.7,1416.46,617.7,1416.46z"/>
				</g>
				<g class="st10">
					<path class="st48" d="M618.72,1411.59c0,0-1.2,4.77-1.02,4.87c0.18,0.1,20.87,2.57,20.25-1.26c-0.5-3.11-1.23-6.48-1.23-6.48
						L618.72,1411.59z"/>
				</g>
				<g class="st10">
					<path class="st48" d="M711.05,1414.21c0,0-0.87,4.55-0.7,4.66c0.17,0.11,20.98,3.83,20.87,0.05c-0.09-3-1.92-6.5-1.92-6.5
						L711.05,1414.21z"/>
				</g>
				<g class="st10">
					<path class="st29" d="M637.54,1125.93c0,0-7.52,73.08-11.44,98.1c-4.58,29.25-6.13,53.42-7.4,68.56
						c-1.6,19.04-1.91,112.72-3.04,118.29c-1.12,5.57,24.93,1.54,24.93,1.54s12.82-122.4,17.6-142.68
						c4.45-18.88,20.97-100.19,25.03-95.03s9.1,94.88,12.11,109.77c3.01,14.89,12.16,131.49,12.16,131.49s20.73,4.13,26.25-0.54
						c0,0,2.51-100.49,0.59-128.41c-0.73-10.64,12.47-127.59-4.46-174.67C720.92,1087.47,637.54,1125.93,637.54,1125.93z"/>
				</g>
				<g class="st10">
					<path class="st49" d="M705.09,1109.73c0,0-5.02-7.59-10.34-8.57c-5.32-0.98,73.24-38.96,73.03-52.52
						c-0.16-11-27.51-31.3-27.51-31.3s0.01-0.03,0,0c-0.01,0.01,0-0.2,0-0.19c0,0.02,0-0.02,0,0c-0.6,2.18-9.53,34.68-9.81,49.17
						c-0.3,15.03,0.89,66.75,0.89,66.75l-20.13,5.39l-64.32,0.6l-14.68-5.99c0,0,1.61-16.63,2.21-28.31
						c0.37-7.43,1.81-20.72,1.44-33.67c0,0,0.23-13.65-1.12-19.52c-0.15-25.94-1.72-51.64-1.72-51.64
						c-0.87-11.76-1.48-22.76-1.82-33.02c2.83-1.5,6.25-3.25,8.98-4.55c8.45-4.02,20.22-9.44,27.77-12.91
						c4.42-2.03,8.75-3.52,8.75-3.52s30.19-2.89,32.64-2.74c0.77,0.05,4.55,1.36,9.5,3.25c10.71,4.06,31.34,12.34,34.63,14.7
						c4.82,3.45,36.38,86.93,36.84,92.67C791.16,1064.17,705.09,1109.73,705.09,1109.73z"/>
				</g>
				<path class="st50" d="M634.17,1127.59c0,0,44.18,3.76,82.88,0v12.7c0,0-57.63,5.5-84.82-2.42L634.17,1127.59z"/>
				<g class="st10">
					<path class="st37" d="M630.51,966.74c0.34,10.43,0.84,21.62,1.73,33.6c0,0,0.84,29.26,2.52,57.01
						c0.57,3.97,0.86,8.04,0.54,12.2c-0.42,5.43-1,11.35-1.72,17.54c-0.01,0.08-0.02,0.16-0.03,0.23c-0.17,1.46-0.35,2.94-0.52,4.43
						c0,0.02-0.01,0.04-0.01,0.06c-3.76,30.92-10.12,66.39-13.44,77.12c-0.7,2.24,1.72,4.31,3.44,5.91l12.09,7.62
						c0,0,4.98-45.86,6.63-61.43c1.59-15.03,6.62-35.17,8.82-54.8v-0.01c2.79-24.9,6.63-49.3,8.71-63.8
						c5.39-37.74,12.58-54.62,12.58-54.62C668.41,948.82,630.51,966.74,630.51,966.74z"/>
				</g>
				<g class="st10">
					<path class="st37" d="M758.77,1044.81c5.24,11.48-48.09,31.96-46.89,34.8c2.88,6.8,14.65,20.65,14.65,20.65
						s70.21-34.73,69.43-42.6c-0.57-5.73-33.46-92.41-38.28-95.86c-2.79-2-23.41-9.31-33.53-13.29c-1.85-0.73-8.16-3.1-9.81-3.73
						c-2.15,2.39-16.95,18.71-22.17,80.4c-0.88,10.39,1.9,32.41,3.76,50.38c1.98,19.17,4.17,34.13,5.78,50.17
						c3.17,31.59,5.39,56.72,5.39,56.72l31.44-13.99c5.09-2.55,13.89-9.19,11.97-14.54c-7.27-20.36-18.17-58.94-18.18-76.8
						c0,0,5.14-49.29,7.92-58.9C740.24,1018.21,752.91,1031.96,758.77,1044.81z"/>
				</g>
				<g class="st10">
					<path class="st51" d="M706.57,946.42c0,0,0.21-10.37,4.2-31.33c1.07-5.61-32.59,14.77-32.59,14.77s0.1,1.96,0.17,4.62
						c0.04,1.4,0.06,2.99,0.05,4.59c-0.01,0.56-0.01,1.12-0.03,1.68c-0.03,1.48-0.1,2.91-0.23,4.11c-0.12,1.25-0.86,3.44-1.12,4.04
						C675.65,952.1,695.24,954.53,706.57,946.42z"/>
				</g>
				<path class="st52" d="M685.57,957.28l-5.58,7.5c0,0,3.27,4.37,9.07,1.15L685.57,957.28z"/>
				<path class="st52" d="M681.48,965.08c0,0-21.16,81.46-16.79,144.87l7.12,12.55l6.66-13.14c0,0,1.82-113.42,7.63-144.47
					L681.48,965.08z"/>
				<path class="st53" d="M679.59,950.29l5.98,6.99c0,0,9.59-1.86,12.4-6.86C700.78,945.41,679.59,950.29,679.59,950.29z"/>
				<path class="st54" d="M678.22,944.18c0,0,0.69,5.32,7.34,13.1l-7.26,9.75l-3.93-20.23L678.22,944.18z"/>
				<path class="st54" d="M707.21,938.25c0,0-11.95,15.2-21.65,19.03l4.51,11.15l20.6-24.9L707.21,938.25z"/>
				<g class="st10">
					<path class="st11" d="M507.52,1050.93c0,0-22.16,2.59-23.41,4c-1.25,1.42-0.95,2.62,1.13,2.47c2.09-0.16,21.53-1.88,21.53-1.88
						s-25.41,7.5-26.7,8.43c-0.76,0.54-0.32,2.89,0.81,2.91c1.13,0.02,26.84-5.95,26.84-5.95s-23.71,7.05-24.54,8.16
						c-0.72,0.97,0.21,3.07,2.02,2.67c1.8-0.4,24.26-5.68,24.26-5.68s-16.85,6.24-16.97,7.63c-0.07,0.85,0.21,2.89,4.5,1.14
						c4.29-1.75,14.92-4.78,14.92-4.78L507.52,1050.93z"/>
				</g>
				<g class="st10">
					<g>
						<path class="st11" d="M533.73,1051.98c0,0-7.38,0.38-9.63-3.35c-1.92-3.17-6.6-6.05-8.04-6.94c-1.93-1.19-6.63-6.95-7.99-4.63
							c-1.36,2.31,7.32,9.83,8.85,11.75c1.53,1.92-9.1,1.22-11.04,2.61c-1.94,1.39-0.88,19,6.41,18.64
							c7.3-0.36,14.52-5.57,15.83-5.38c1.31,0.19,5.33-0.05,5.33-0.05L533.73,1051.98z"/>
					</g>
				</g>
				<g class="st10">
					<path class="st37" d="M530.65,1069.38c0,0,54.37-7.61,66.44-10.58c5.58-1.37,12.93-9.07,19.91-18.13
						c2.3-2.98,4.56-6.11,6.71-9.21c0.01,0,0.01-0.01,0.01-0.01c8.57-12.37,15.28-24.22,15.28-24.22s25.32-29.67,5-42.9
						c0,0-8.71-0.19-13.49,2.41c-4.91,2.66-15.39,24.53-17.16,28.4c-1.77,3.87-21.02,39.83-22.31,40.63
						c-1.29,0.81-20.49,4.98-29.05,6.76c-12.4,2.59-35.69,7.42-35.69,7.42L530.65,1069.38z"/>
				</g>
				
					<rect x="666.74" y="1128.27" transform="matrix(-1 -1.224647e-16 1.224647e-16 -1 1354.1536 2272.2097)" class="st55" width="20.67" height="15.68"/>
				<path class="st56" d="M701.26,1110.67c0,0,2.57-0.1,3.67-0.69c0,0,1.92-1.23,3.34-2.03c0.45-0.25,0.85-0.46,1.12-0.56
					c1.13-0.45,3.76-1.1,6.18-2.95c2.42-1.84,10.3-9.22,10.3-9.22l-5.09-7.84l-2.35-7.76c0,0-18.39,1.83-20.85,3.29
					c-0.24,0.14-0.47,0.29-0.67,0.45c-1.96,1.44-2.81,3.33-3.75,4.2c-0.35,0.32-3.55,3.75-3.37,5.14c0.25,1.93,1.2,3.17,2.4,3.75
					c0,0,0.65,3.76,2.59,5.44c0,0,0.49,3.48,3.5,4.89C698.28,1106.77,699.17,1110.25,701.26,1110.67z"/>
				<path class="st31" d="M726.53,1100.27c0,0-10.22-8.39-15.76-20.65l31.38-17.18l11.64,23.71L726.53,1100.27z"/>
				<g class="st10">
					<path class="st11" d="M660.47,878.26c0,0-7.39,13.71-3.73,15.84c3.02,1.76-3.55,15.21-4.41,17.41c-0.86,2.2,5.48,3.8,6.83,5.21
						c1.35,1.41,5.34,18.82,10.57,19.35c5.23,0.52,28.77-7.67,35.19-14.33c6.41-6.67,11.67-36.78,7.39-49.48
						C708.03,859.55,673.51,854.31,660.47,878.26z"/>
				</g>
				<g class="st10">
					<path class="st57" d="M658.99,881.23c0,0-7.55-14.8,6.16-25.78c13.71-10.98,38.99,8.29,41.84,9.02
						c2.85,0.73,19.01,1.85,10.85,30.23c-7.01,24.37-7.99,25.4-7.99,25.4s-5.23-14.12-8.19-16.27c-4.63-3.36-14.78-2.55-14.78-2.55
						s4.83-12.84-2.72-14.66C676.6,884.8,666.64,878.39,658.99,881.23z"/>
				</g>
				<g class="st10">
					<path class="st11" d="M694.93,893.92c0.66-1.76,2.82-9.33,9.32-4.89c6.49,4.45-4.05,18.71-5.18,18.9
						C697.94,908.11,689.32,908.74,694.93,893.92z"/>
				</g>
				<path class="st35" d="M678.41,939.06c-0.01,0.56-0.01,1.12-0.03,1.68c19.25-6.46,22.98-16.18,22.98-16.18
					c-6.01,4.25-23.01,9.92-23.01,9.92C678.39,935.88,678.42,937.47,678.41,939.06z"/>
			</g>
		</g>
	</g>
</g>
</svg>
