<?xml version="1.0" encoding="utf-8"?>
<!-- Generator: Adobe Illustrator 23.0.1, SVG Export Plug-In . SVG Version: 6.00 Build 0)  -->
<svg version="1.1" id="_x3C_Layer_x3E_" xmlns="http://www.w3.org/2000/svg" xmlns:xlink="http://www.w3.org/1999/xlink" x="0px"
	 y="0px" viewBox="0 0 2148.77 2114.46" style="enable-background:new 0 0 2148.77 2114.46;" xml:space="preserve">
<style type="text/css">
	.st0{fill:url(#SVGID_1_);}
	.st1{fill:url(#SVGID_2_);}
	.st2{fill:url(#SVGID_3_);}
	.st3{fill:url(#SVGID_4_);}
	.st4{fill:#F4F4F4;}
	.st5{fill:#FFFFFF;}
	.st6{fill:url(#SVGID_5_);}
	.st7{fill:url(#SVGID_6_);}
	.st8{fill:url(#SVGID_7_);}
	.st9{fill:#90C1FC;}
	.st10{fill:#4372BD;}
	.st11{fill:#4E85DE;}
	.st12{fill:#72ACFB;}
	.st13{fill:url(#SVGID_8_);}
	.st14{fill:url(#SVGID_9_);}
	.st15{fill:url(#SVGID_10_);}
	.st16{fill:url(#SVGID_11_);}
	.st17{fill:url(#SVGID_12_);}
	.st18{fill:url(#SVGID_13_);}
	.st19{fill:#BFD4FC;}
	.st20{fill:#DCD0C8;}
	.st21{fill:#6D6865;}
	.st22{fill:#C6BBB5;}
	.st23{fill:#948C87;}
	.st24{fill:#A98E75;}
	.st25{fill:#EBB35C;}
	.st26{fill:#454971;}
	.st27{fill:#2E3048;}
	.st28{fill:#DBA585;}
	.st29{fill:#3E4148;}
	.st30{fill:#363957;}
	.st31{fill:#8C8581;}
	.st32{fill:#5D5955;}
	.st33{fill:#B9AFAA;}
	.st34{fill:#B2A8A3;}
	.st35{fill:#F4F6FF;}
	.st36{fill:#8C8480;}
	.st37{fill:#DEDFE6;}
	.st38{fill:#385988;}
	.st39{fill:#4772B0;}
	.st40{fill:#5886C7;}
	.st41{fill:#DEDEDE;}
	.st42{fill:#DF655A;}
	.st43{fill:url(#SVGID_14_);}
	.st44{fill:url(#SVGID_15_);}
	.st45{fill:url(#SVGID_16_);}
	.st46{fill:url(#SVGID_17_);}
	.st47{fill:url(#SVGID_18_);}
	.st48{fill:url(#SVGID_19_);}
	.st49{fill:url(#SVGID_20_);}
	.st50{fill:#558AD8;}
	.st51{fill:#3A3D5D;}
	.st52{fill:#42466C;}
	.st53{fill:#E6D8D1;}
	.st54{fill:#CD7250;}
	.st55{fill:#997761;}
	.st56{fill:#C8BCB6;}
	.st57{fill:#CFC3BC;}
	.st58{fill:#4C507D;}
	.st59{fill:#6D76BA;}
	.st60{fill:#F3E4DC;}
	.st61{fill:#2A2B41;}
	.st62{fill:#414469;}
</style>
<g>
	<g>
		
			<linearGradient id="SVGID_1_" gradientUnits="userSpaceOnUse" x1="-11328.4092" y1="491.1625" x2="-10827.1846" y2="491.1625" gradientTransform="matrix(-0.9986 -0.0538 -0.0538 0.9986 -10604.7881 -271.1881)">
			<stop  offset="5.181350e-03" style="stop-color:#4A612F"/>
			<stop  offset="1" style="stop-color:#769A42"/>
		</linearGradient>
		<path class="st0" d="M635.76,841.83c32.49,70.9,50.75,137.99,26.82,167.92c-1.41,1.77-2.96,3.4-4.62,4.88
			c-18.43,16.23-54.68,16.6-115.86-7.57C379.25,942.71,371.52,831.7,338.59,723.3c-32.48-107.05-145.89-88.96-148.78-88.48
			C454.08,542.76,580.64,721.62,635.76,841.83z"/>
		<g>
			
				<linearGradient id="SVGID_2_" gradientUnits="userSpaceOnUse" x1="-3418.9568" y1="3820.7258" x2="-3418.9568" y2="3468.2793" gradientTransform="matrix(0.7495 -0.662 0.662 0.7495 729.6918 -4074.2781)">
				<stop  offset="5.181350e-03" style="stop-color:#4A612F"/>
				<stop  offset="1" style="stop-color:#769A42"/>
			</linearGradient>
			<path class="st1" d="M662.58,1009.74c-1.41,1.77-2.96,3.4-4.62,4.88c-30.59-18.43-89.16-57.5-116.78-101.36
				c-13.03-20.7-23.97-43.98-35.59-68.59c-21.91-46.58-44.61-94.73-84.22-131.67l4.42-4.76c40.51,37.82,63.46,86.54,85.65,133.67
				c11.51,24.46,22.37,47.54,35.21,67.89C573.59,952.59,632.77,991.8,662.58,1009.74z"/>
		</g>
	</g>
	<g>
		
			<linearGradient id="SVGID_3_" gradientUnits="userSpaceOnUse" x1="-11280.4424" y1="339.8679" x2="-11043.1797" y2="339.8679" gradientTransform="matrix(-0.9986 -0.0538 -0.0538 0.9986 -10604.7881 -271.1881)">
			<stop  offset="5.181350e-03" style="stop-color:#4A612F"/>
			<stop  offset="1" style="stop-color:#769A42"/>
		</linearGradient>
		<path class="st2" d="M607.46,870.8c-1.91,4.72-3.15,7.39-3.29,7.69c-0.5-2.61-0.99-5.19-1.48-7.69
			c-21.72-111.31-50.78-122.94-137.88-220.31c-89.08-99.58-37.85-192.37-37.85-192.37C725.39,544.35,627.75,821.04,607.46,870.8z"/>
		<g>
			
				<linearGradient id="SVGID_4_" gradientUnits="userSpaceOnUse" x1="-1792.7615" y1="3217.9375" x2="-1792.7615" y2="2871.8677" gradientTransform="matrix(0.8707 -0.4917 0.4917 0.8707 609.6858 -2822.7646)">
				<stop  offset="5.181350e-03" style="stop-color:#4A612F"/>
				<stop  offset="1" style="stop-color:#769A42"/>
			</linearGradient>
			<path class="st3" d="M607.46,870.8c-1.91,4.72-3.15,7.39-3.29,7.69c-0.5-2.61-0.99-5.19-1.48-7.69
				c9.67-96.23-48.38-209.14-66.63-229.41c-18.88-20.98-30.51-49.84-34.89-60.71c-0.75-1.8-1.43-3.52-1.66-3.92l4.21-2.38
				c0.37,0.65,0.85,1.85,1.93,4.49c4.3,10.65,15.71,38.93,34.02,59.26C562.78,663.83,616.34,777.3,607.46,870.8z"/>
		</g>
	</g>
	<path class="st4" d="M1954.45,830.85H608.11c-27.35,0-49.51-22.17-49.51-49.51V343.72c0-27.35,22.17-49.52,49.52-49.52h1346.34
		c27.34,0,49.51,22.17,49.51,49.51v437.61C2003.96,808.68,1981.8,830.85,1954.45,830.85z"/>
	<rect x="634.29" y="1458.17" class="st5" width="541.91" height="18.12"/>
	<linearGradient id="SVGID_5_" gradientUnits="userSpaceOnUse" x1="1234.5435" y1="1382.6333" x2="460.8609" y2="1382.6333">
		<stop  offset="0" style="stop-color:#EEBE63"/>
		<stop  offset="1" style="stop-color:#DC3B57"/>
	</linearGradient>
	<rect x="634.29" y="1373.57" class="st6" width="402.46" height="18.12"/>
	<linearGradient id="SVGID_6_" gradientUnits="userSpaceOnUse" x1="1234.5369" y1="1424.9301" x2="460.8644" y2="1424.9301">
		<stop  offset="0" style="stop-color:#EEBE63"/>
		<stop  offset="1" style="stop-color:#DC3B57"/>
	</linearGradient>
	<rect x="634.29" y="1415.86" class="st7" width="434.86" height="18.13"/>
	<linearGradient id="SVGID_7_" gradientUnits="userSpaceOnUse" x1="1234.5366" y1="1467.2303" x2="460.8642" y2="1467.2303">
		<stop  offset="0" style="stop-color:#EEBE63"/>
		<stop  offset="1" style="stop-color:#DC3B57"/>
	</linearGradient>
	<rect x="634.29" y="1458.17" class="st8" width="282.17" height="18.12"/>
	<g>
		<path class="st4" d="M1174.27,1691.64H339.45c-20.29,0-36.74-16.45-36.74-36.74V896.66c0-20.29,16.45-36.73,36.73-36.73h834.82
			c20.29,0,36.73,16.45,36.73,36.73v758.25C1211,1675.19,1194.56,1691.64,1174.27,1691.64z"/>
		<g>
			<g>
				<path class="st9" d="M639.33,1111.85c18.41-51.46,1.79-106.93-37.51-140.37c-9.37-7.98-20.02-14.69-31.81-19.8
					c-2.59-1.13-5.25-2.17-7.96-3.14c-27.2-9.73-55.51-9.67-81.1-1.67c-36.93,11.56-68.18,39.7-82.23,78.94
					c-4.63,12.95-7.04,26.16-7.43,39.21c-1.62,53.88,31.23,104.99,84.72,124.12C542.44,1212.9,615.57,1178.3,639.33,1111.85z
					 M486.77,1159.03c-40.1-14.34-64.73-52.67-63.52-93.06c0.3-9.78,2.11-19.68,5.58-29.39c10.52-29.43,33.96-50.52,61.65-59.19
					c19.18-5.99,40.42-6.04,60.8,1.25c2.04,0.73,4.03,1.52,5.97,2.36c8.84,3.83,16.83,8.87,23.86,14.85
					c29.46,25.07,41.91,66.65,28.12,105.24C591.41,1150.91,536.58,1176.85,486.77,1159.03z"/>
			</g>
			<g>
				<path class="st10" d="M490.47,977.39l-9.53-30.52c-36.93,11.56-68.18,39.7-82.23,78.94c-4.63,12.95-7.04,26.16-7.43,39.21
					l31.97,0.96c0.3-9.78,2.11-19.68,5.58-29.39C439.35,1007.15,462.78,986.06,490.47,977.39z"/>
			</g>
			<g>
				<path class="st11" d="M557.25,981l12.76-29.32c-2.59-1.13-5.25-2.17-7.96-3.14c-27.2-9.73-55.51-9.67-81.1-1.67l9.53,30.52
					c19.18-5.99,40.42-6.04,60.8,1.25C553.31,979.37,555.31,980.16,557.25,981z"/>
			</g>
			<g>
				<path class="st12" d="M601.82,971.48c-9.37-7.98-20.02-14.69-31.81-19.8L557.25,981c8.84,3.83,16.83,8.87,23.86,14.85
					L601.82,971.48z"/>
			</g>
		</g>
		<g>
			<rect x="1001.64" y="1371.24" class="st12" width="44.35" height="151.87"/>
		</g>
		<g>
			<rect x="935.73" y="1413.83" class="st12" width="44.34" height="109.27"/>
		</g>
		<g>
			<rect x="1065.6" y="1300.84" class="st12" width="44.34" height="222.26"/>
		</g>
		<g>
			<polygon class="st12" points="1102.79,1189.81 1102,1185.02 984.99,1204.18 947.05,1285.02 820.9,1293.6 780.02,1353.87 
				683.57,1351.49 683.45,1356.34 782.56,1358.8 823.58,1298.28 950.23,1289.68 988.3,1208.56 			"/>
		</g>
		<path class="st11" d="M959.78,987.43h126.09c7.96,0,14.42-6.46,14.42-14.41l0,0c0-7.97-6.45-14.42-14.42-14.42H959.78
			c-7.96,0-14.42,6.45-14.42,14.42l0,0C945.37,980.97,951.83,987.43,959.78,987.43z"/>
		<path class="st12" d="M959.78,1037.72h126.09c7.96,0,14.42-6.45,14.42-14.41l0,0c0-7.96-6.45-14.42-14.42-14.42H959.78
			c-7.96,0-14.42,6.46-14.42,14.42l0,0C945.37,1031.27,951.83,1037.72,959.78,1037.72z"/>
		<path class="st12" d="M959.78,1088.01h126.09c7.96,0,14.42-6.46,14.42-14.41l0,0c0-7.97-6.45-14.42-14.42-14.42H959.78
			c-7.96,0-14.42,6.45-14.42,14.42l0,0C945.37,1081.55,951.83,1088.01,959.78,1088.01z"/>
		<g>
			<polygon class="st12" points="731.53,1012.35 659.42,1012.35 659.42,1009.59 730.39,1009.59 768.36,971.62 814.86,971.62 
				814.86,974.39 769.51,974.39 			"/>
		</g>
		<g>
			<polygon class="st12" points="799.88,1138.34 707.07,1138.34 677,1108.26 678.95,1106.3 708.22,1135.57 799.88,1135.57 			"/>
		</g>
		<rect x="775.22" y="989.94" class="st11" width="96.2" height="11.8"/>
		<rect x="745.88" y="1110.31" class="st11" width="77.44" height="11.81"/>
	</g>
	<g>
		<linearGradient id="SVGID_8_" gradientUnits="userSpaceOnUse" x1="74.7958" y1="1538.2803" x2="355.8719" y2="1538.2803">
			<stop  offset="0" style="stop-color:#81D3E4"/>
			<stop  offset="1" style="stop-color:#6076FA"/>
		</linearGradient>
		<path class="st13" d="M99.35,1166.87c24.23-11.59,48.36,65.56,48.36,65.56c41.2,54.44,98.76-17.99,93.14,63.39
			c-9.85,142.38,163.89,44.78,83.74,193.43c-80.16,148.65,70.77,84.06,20.97,203.93c-49.82,119.87,14.75,262.83-60.2,204.08
			c0,0-65.99-144.72-134.06-189.49c-68.06-44.77,40.78-97.9,19.49-158.72c-30.93-88.33-105.45-84.86-51.73-179.79
			C172.79,1274.33,16.97,1206.27,99.35,1166.87z"/>
		<g>
			<path class="st5" d="M309.08,1842.79c-32.49-22.85-70.51-182.08-72.78-276.91c-1.17-48.58-15.53-68.82-28.2-86.67
				c-12.11-17.08-22.57-31.81-16.48-65.65c11.64-64.69-18.97-92.61-19.27-92.88l3.54-4.04c1.36,1.19,33.24,30,21.02,97.87
				c-5.69,31.63,3.7,44.85,15.57,61.59c12.47,17.58,27.98,39.44,29.18,89.66c2.43,101.77,41.31,252.11,70.5,272.63L309.08,1842.79z"
				/>
		</g>
		<g>
			<linearGradient id="SVGID_9_" gradientUnits="userSpaceOnUse" x1="280.9842" y1="1695.1261" x2="535.1666" y2="1695.1261">
				<stop  offset="0" style="stop-color:#81D3E4"/>
				<stop  offset="1" style="stop-color:#6076FA"/>
			</linearGradient>
			<path class="st14" d="M321.23,1854.6c-4.19,0-8.75-0.49-13.74-1.49c-12.52-2.54-20.73-9.14-24.4-19.64
				c-8.76-25.05,11.53-65.73,28-85.35c0.28-0.33,27.84-34.02,24.9-80.72c-0.49-7.83-1.3-15.07-2.02-21.46
				c-2.07-18.49-3.57-31.84,4.37-40.75c6.99-7.86,20.5-11.27,45.15-11.38c43.24-0.2,60.33-18.1,74.07-32.48
				c5.83-6.12,11.35-11.88,18.04-15.54l0,0c21.54-11.76,44.37-13.49,54.27-4.11c4.71,4.46,8.67,13.18,0.88,29.46
				c-7.12,14.88-16.35,24.31-23.77,31.87c-9.98,10.18-16.57,16.91-13.14,30.32c0.81,3.14,1.73,6.32,2.67,9.52
				c6.66,22.8,14.22,48.63-24.8,66.17c-8.28,3.72-15.82,6.68-22.48,9.29c-27.24,10.69-43.68,17.14-62.24,56.32
				c-3.59,7.58-6.76,14.77-9.83,21.72C362.55,1829.51,351.47,1854.59,321.23,1854.6z M478.18,1550.51
				c-5.97,3.25-10.96,8.48-16.73,14.53c-14.44,15.12-32.41,33.94-77.93,34.15c-22.67,0.11-35.36,3.06-41.16,9.58
				c-6.35,7.13-4.97,19.49-3.05,36.58c0.72,6.46,1.54,13.77,2.04,21.72c3.08,48.9-24.95,83.07-26.14,84.5
				c-16.31,19.41-34.77,58.05-27.06,80.12c3,8.58,9.87,14.01,20.4,16.14c36.74,7.42,46.89-15.56,63.69-53.66
				c3.08-6.98,6.27-14.21,9.9-21.85c19.47-41.1,37.63-48.23,65.13-59.02c6.6-2.59,14.08-5.52,22.24-9.19
				c34.75-15.62,28.48-37.07,21.84-59.77c-0.95-3.24-1.89-6.48-2.71-9.68c-4.18-16.35,4.06-24.76,14.51-35.42
				c7.51-7.66,16.02-16.35,22.75-30.42c3.53-7.37,6.44-17.4,0.27-23.24C518.06,1537.89,497.42,1540,478.18,1550.51L478.18,1550.51z"
				/>
		</g>
		<g>
			<linearGradient id="SVGID_10_" gradientUnits="userSpaceOnUse" x1="302.7129" y1="1732.0847" x2="493.4908" y2="1732.0847">
				<stop  offset="0" style="stop-color:#81D3E4"/>
				<stop  offset="1" style="stop-color:#6076FA"/>
			</linearGradient>
			<path class="st15" d="M308.08,1885.61l-5.36-0.28c0.27-5.05,7.03-123.87,54.74-158.65c52.34-38.15,68.85-79.15,76.7-106.67
				c9.26-32.43,56.4-41.1,58.41-41.45l0.93,5.29c-0.46,0.08-45.83,8.44-54.16,37.63c-8.08,28.29-25.03,70.42-78.71,109.54
				C314.96,1764.31,308.14,1884.4,308.08,1885.61z"/>
		</g>
		<linearGradient id="SVGID_11_" gradientUnits="userSpaceOnUse" x1="233.8219" y1="1578.5612" x2="456.0039" y2="1578.5612">
			<stop  offset="0" style="stop-color:#81D3E4"/>
			<stop  offset="1" style="stop-color:#6076FA"/>
		</linearGradient>
		<path class="st16" d="M417.16,1286.78c-33.92-11.62-26.87,53.74-41.2,102.1c-14.33,48.36-159.4,21.09-98.51,142.18
			c60.89,121.1-77.01,40.5-35.81,146.17c41.19,105.67,3.58,218.68,48.35,189.93c44.77-28.75,25.16-161.81,71.72-177.63
			c46.56-15.81,54.16-34.26,8.05-77.24c-46.1-42.98,120.82-85.65,79.63-172.45C408.21,1353.05,456.34,1300.22,417.16,1286.78z"/>
		<g>
			<path class="st5" d="M310.77,1862.1c-4.27-18.09-40.68-177.28-6.71-196.53c29.95-16.96,29.22-82.93,24.55-145.22
				c-4.14-55.14,66.68-80.92,69.69-81.99l1.8,5.07c-0.7,0.25-69.96,25.48-66.14,76.52c4.8,63.97,5.31,131.85-27.26,150.3
				c-25.8,14.62-2.05,142.56,9.29,190.62L310.77,1862.1z"/>
		</g>
		<linearGradient id="SVGID_12_" gradientUnits="userSpaceOnUse" x1="182.8334" y1="1897.2532" x2="387.8593" y2="1897.2532">
			<stop  offset="0" style="stop-color:#E59148"/>
			<stop  offset="1" style="stop-color:#F1CC52"/>
		</linearGradient>
		<polygon class="st17" points="387.86,1805.42 339.44,1989.09 231.25,1989.09 182.83,1805.42 		"/>
		<linearGradient id="SVGID_13_" gradientUnits="userSpaceOnUse" x1="182.8334" y1="1897.2532" x2="387.8593" y2="1897.2532">
			<stop  offset="0" style="stop-color:#B37239"/>
			<stop  offset="1" style="stop-color:#F1CC52"/>
		</linearGradient>
		<path class="st18" d="M387.86,1805.42c0,0-106.59,20-106.59,183.68h-50.02l-48.41-183.68H387.86z"/>
	</g>
	<g>
		<polygon class="st19" points="680.58,221.16 680.58,236.74 528.74,236.74 528.74,388.59 513.14,388.59 513.14,221.16 		"/>
	</g>
	<rect x="1931.37" y="175.77" class="st19" width="123.59" height="8.66"/>
	<rect x="1931.37" y="192.1" class="st19" width="123.59" height="36.43"/>
	<rect x="1846.61" y="205.95" class="st19" width="72.92" height="5.45"/>
	<rect x="1846.61" y="213.79" class="st19" width="72.92" height="14.74"/>
	<rect x="2052.25" y="175.77" class="st19" width="5.44" height="102.06"/>
	<g>
		<g>
			<rect x="538.11" y="1566.81" class="st20" width="152.54" height="9.05"/>
		</g>
		<g>
			
				<rect x="558.55" y="1599.43" transform="matrix(-1 -1.224647e-16 1.224647e-16 -1 1130.4703 3610.6255)" class="st21" width="13.37" height="411.77"/>
		</g>
		<g>
			<rect x="666.77" y="1564.23" class="st22" width="106.02" height="12.94"/>
		</g>
		<g>
			<rect x="699.7" y="1453.92" class="st23" width="40.15" height="121.94"/>
		</g>
		<g>
			<rect x="483.4" y="1576.02" class="st24" width="587.43" height="23.41"/>
		</g>
		<g>
			<path class="st25" d="M370.66,1434.3c0,0-6.43,90.09,11.18,100.88c11.03,6.75,55,29.54,53.69,33.81
				c-1.31,4.27-24.82,38.02-24.82,38.02s-84.46-55.63-87.19-73.15c-2.66-17.12,4.16-131.92,15.76-137.21
				c8.69-3.96,13.29-0.69,24.25,7.45C378.9,1415.53,370.66,1434.3,370.66,1434.3z"/>
		</g>
		<g>
			<g>
				<g>
					<path class="st26" d="M474.57,1954.97c0,0-2.63,18.23-2.96,20.97c-0.33,2.74-29.22-1.61-29.22-1.61l-2.33-21.71
						C440.06,1952.62,470.96,1952.41,474.57,1954.97z"/>
				</g>
			</g>
		</g>
		<g>
			<g>
				<g>
					<path class="st27" d="M471.92,1973.62c0,0,9.16,10.99,18,15.78c8.86,4.79,22.77,6.69,28,11.64
						c3.77,3.58,13.76,18.98-23.01,18.67c-36.77-0.31-54.5,2.17-58.43-3.73c-3.94-5.91,5.69-43.59,5.69-43.59
						S450.9,1975.53,471.92,1973.62z"/>
				</g>
			</g>
		</g>
		<g>
			<g>
				<g>
					<path class="st26" d="M659.66,1955.15c0,0-2.63,18.23-2.96,20.97c-0.33,2.74-29.22-1.62-29.22-1.62l-2.34-21.7
						C625.14,1952.8,656.05,1952.58,659.66,1955.15z"/>
				</g>
			</g>
		</g>
		<g>
			<g>
				<g>
					<path class="st27" d="M657.01,1973.8c0,0,9.16,10.99,18,15.77c8.86,4.79,41.43,8.73,46.67,13.68
						c3.78,3.58,10.06,17.98-41.67,16.63c-36.76-0.95-54.49,2.18-58.44-3.73c-3.94-5.91,5.7-43.58,5.7-43.58
						S635.48,1975.91,657.01,1973.8z"/>
				</g>
			</g>
		</g>
		<g>
			<g>
				<g>
					<path class="st27" d="M381.39,1640.06c0,0,105.03,17.77,128.75,21.5c23.72,3.73,152.34,35.74,168.43,45.48
						c12.8,7.77-6.72,194.22-11.27,265.35h-50.66l-3.68-213.38c-60.79,1.52-104.17-14.22-148.44-7.5
						c-44.27,6.72-81.18,16.28-109.31-21.45C355.21,1730.06,354.16,1648.32,381.39,1640.06z"/>
				</g>
			</g>
		</g>
		<g>
			<g>
				<g>
					<path class="st27" d="M484.91,1972.57l-49.37-3.06l-4.82-210.5c-26.17,0.65-35.14-1.01-56.32-3.58l-39.86-92.66
						c34.93,6.99,146.87,35.22,161.79,44.27C509.14,1714.81,489.48,1901.43,484.91,1972.57z"/>
				</g>
			</g>
		</g>
		<g>
			<g>
				<g>
					<path class="st28" d="M429.74,1246.38c0,0,38.51-10.65,53.19,19.25c14.69,29.88,8.03,86.54-11.38,91.88
						c-19.4,5.33-47.31-0.81-55.36-19.41c-8.06-18.6-14.48-45.04-12.56-62.15C405.57,1258.83,419.52,1250.47,429.74,1246.38z"/>
				</g>
			</g>
		</g>
		<g>
			<g>
				<g>
					<path class="st28" d="M461.49,1351.53c0,0-0.42,22.73,2.09,27.59c2.51,4.84-53.61,3.63-53.61,3.63s8.84-27.3,3.82-50.55
						C408.83,1309.18,461.49,1351.53,461.49,1351.53z"/>
				</g>
			</g>
		</g>
		<g>
			<g>
				<g>
					<path class="st29" d="M410.77,1323.58c0,0,3,6.1,17.52,5.12c14.53-0.98,33.69-18.5,39.86-20.08c6.16-1.56,6.53-5.07,6.53-5.07
						l3.26,5.8l6.32,0.96c0,0-4.29-17.56,5.06-23.75c9.36-6.18-4.21-55.99-51.58-43.97c0,0-36.15,6.61-36.63,26.8
						C400.63,1289.57,403.75,1312.89,410.77,1323.58z"/>
				</g>
			</g>
		</g>
		<g>
			<g>
				<g>
					<path class="st20" d="M466.53,1378.54c0,0-0.16-9.26-4.35-10.15c-4.2-0.88-44.12-6.37-49.26-4.35l-2.21,12.22
						C410.7,1376.26,420.63,1382.37,466.53,1378.54z"/>
				</g>
			</g>
		</g>
		<g>
			<g>
				<g>
					<path class="st28" d="M478.08,1299.42c-1.08-7.59-9.7-16.31-14.65-4.48c-4.94,11.82,3.33,29.03,8.88,28.11
						C477.86,1322.12,479.54,1309.71,478.08,1299.42z"/>
				</g>
			</g>
		</g>
		<g>
			<g>
				<g>
					<path class="st30" d="M633.72,1487.93c-0.02-0.01-0.05-0.01-0.07-0.01C633.94,1488.04,633.98,1488.06,633.72,1487.93z"/>
				</g>
			</g>
		</g>
		<g>
			<g>
				<g>
					<path class="st29" d="M418.51,1251.8c0,0-46.95-2.2-8.2,71.07L418.51,1251.8z"/>
				</g>
			</g>
		</g>
		<g>
			<g>
				<polygon class="st31" points="313.92,1997.53 317.41,2007.36 464.96,1961.64 457.89,1941.74 				"/>
			</g>
		</g>
		<g>
			<g>
				<rect x="453.25" y="1794.22" class="st31" width="16.77" height="160.42"/>
			</g>
		</g>
		<g>
			<g>
				<rect x="412.18" y="1785.7" class="st32" width="98.91" height="9.46"/>
			</g>
		</g>
		<g>
			<g>
				<polygon class="st31" points="610.65,1997.53 607.16,2007.36 459.61,1961.64 466.1,1940.49 				"/>
			</g>
		</g>
		<g>
			<g>
				<polygon class="st31" points="506.69,2006.31 506.69,2017.73 459.61,1961.64 466.1,1940.49 				"/>
			</g>
		</g>
		<g>
			<g>
				<path class="st33" d="M624.44,2011.2c0,7.61-6.18,13.79-13.79,13.79c-7.61,0-13.79-6.18-13.79-13.79
					c0-7.62,6.18-13.8,13.79-13.8C618.26,1997.4,624.44,2003.58,624.44,2011.2z"/>
			</g>
		</g>
		<g>
			<g>
				<path class="st33" d="M507.87,2011.2c0,7.61-6.18,13.79-13.79,13.79c-7.62,0-13.79-6.18-13.79-13.79
					c0-7.62,6.18-13.8,13.79-13.8C501.69,1997.4,507.87,2003.58,507.87,2011.2z"/>
			</g>
		</g>
		<g>
			<g>
				<path class="st33" d="M327.71,2011.2c0,7.61-6.18,13.79-13.79,13.79c-7.61,0-13.79-6.18-13.79-13.79
					c0-7.62,6.17-13.8,13.79-13.8C321.53,1997.4,327.71,2003.58,327.71,2011.2z"/>
			</g>
		</g>
		<g>
			<path class="st20" d="M561.55,1785.7H363.02c-9.88,0-17.9-8.01-17.9-17.9v-0.01c0-9.88,8.01-17.9,17.9-17.9h198.54
				c9.88,0,17.9,8.02,17.9,17.9l0,0C579.46,1777.68,571.44,1785.7,561.55,1785.7z"/>
		</g>
		<g>
			<rect x="982.3" y="1599.43" class="st21" width="13.36" height="411.77"/>
		</g>
		<g>
			<path class="st34" d="M881.41,1512.66H558.15c-6.47,0-11.71-5.24-11.71-11.71V1279.8c0-6.46,5.24-11.71,11.71-11.71h323.27
				c6.47,0,11.71,5.24,11.71,11.71v221.15C893.12,1507.42,887.88,1512.66,881.41,1512.66z"/>
		</g>
		<g>
			<rect x="560.02" y="1281.31" class="st35" width="319.53" height="193.02"/>
		</g>
		<g>
			<path class="st36" d="M865.34,1492.54c0,5.49-5.77,9.93-12.88,9.93c-7.11,0-12.88-4.44-12.88-9.93c0-5.49,5.77-9.94,12.88-9.94
				C859.58,1482.6,865.34,1487.05,865.34,1492.54z"/>
		</g>
		<g>
			<path class="st23" d="M791.55,1576.33v-4.35c0,0-6.12-27.08-49.4-27.08c-43.28,0-42.4,31.43-42.4,31.43H791.55z"/>
		</g>
		<g>
			<g>
				<path class="st28" d="M699.23,1548.92c0,0,9.4-0.73,12.85-2.81c3.44-2.08,24.05-15.93,28.89-13.72
					c4.84,2.22,37.05,12.09,35.93,16.79c-1.11,4.72-4.1,4.26-6.37,3.43c-2.27-0.84-25.66-5.74-27.73-4.92
					c0,0,22.98,8.38,23.07,14.49c0.09,6.12-4.81,7.61-6.99,9.93c-2.18,2.31-4.79,8.06-10.72,8.49c-5.92,0.45-34.81-9.61-40.76-10.06
					c-5.95-0.46-16.96,0.37-17.7-0.6C688.95,1568.97,699.23,1548.92,699.23,1548.92z"/>
			</g>
		</g>
		<g>
			<g>
				<g>
					<path class="st25" d="M528.06,1391.37c-29.98-5.27-61.53-12.83-61.53-12.83l-55.83-2.28c0,0-51.24,11.28-71.42,20.4
						c-1.91,0.87-1.92,45.71-7.17,57.48l16.73,35.29c0,0,9.66,69.91,11.67,101.01c0.92,14.28-2.6,137.96-2.6,137.96
						s5.01,2.47,43.12,6.67c38.1,4.2,133.3-1.51,133.9-6.01c0.6-4.5-18.44-167.58-19.28-176.02c-1.29-12.97,3.74-72.86,3.74-72.86
						c7.18,9.64,25.49,53.19,44.56,73.92c11.22,12.18,66.79,19.66,77.26,20c22.8,0.76,64.39,5.3,65.6,3.09
						c0.97-1.34,3.62-36.92,1.02-37.79c-2.28-0.76-79.51-5.2-99.3-15.7c-7.24-3.84-28.88-51.02-28.88-51.02
						S544.6,1398.79,528.06,1391.37z"/>
				</g>
			</g>
		</g>
		<g>
			<path class="st20" d="M429.44,1724.81H312.91c-12.44,0-22.53-10.09-22.53-22.53v-178.75c0-12.45,10.09-22.54,22.54-22.54h116.53
				c12.45,0,22.54,10.09,22.54,22.54v178.75C451.98,1714.72,441.89,1724.81,429.44,1724.81z"/>
		</g>
		<g>
			<path class="st20" d="M423.34,1776.79c-23.82,0-43.15-8-57.44-23.79c-32.31-35.67-26.5-98.37-26.24-101.01
				c0.49-4.95,4.9-8.56,9.84-8.07c4.94,0.49,8.55,4.89,8.06,9.83c-0.07,0.72-5.21,57.55,21.71,87.22
				c10.88,12,25.31,17.83,44.08,17.83c4.97,0,8.99,4.03,8.99,8.99C432.33,1772.75,428.3,1776.79,423.34,1776.79z"/>
		</g>
		<g>
			<g>
				<g>
					<path class="st37" d="M674.59,1306.89h-90.24c-0.93,0-1.68-0.75-1.68-1.68v-6.85c0-0.93,0.75-1.68,1.68-1.68h90.24
						c0.93,0,1.68,0.75,1.68,1.68v6.84C676.27,1306.13,675.52,1306.89,674.59,1306.89z"/>
				</g>
			</g>
		</g>
		<g>
			<g>
				<g>
					<path class="st37" d="M674.6,1328.75h-90.25c-0.93,0-1.68-0.75-1.68-1.68v-6.83c0-0.93,0.75-1.68,1.68-1.68h90.24
						c0.92,0,1.68,0.76,1.68,1.68v6.84C676.27,1328,675.52,1328.75,674.6,1328.75z"/>
				</g>
			</g>
		</g>
		<g>
			<g>
				<g>
					<path class="st37" d="M670.62,1458.96h-82.31c-3.12,0-5.64-2.53-5.64-5.64v-104.03c0-3.12,2.53-5.64,5.64-5.64h82.31
						c3.12,0,5.65,2.53,5.65,5.65v104.02C676.27,1456.43,673.74,1458.96,670.62,1458.96z"/>
				</g>
			</g>
		</g>
		<g>
			<g>
				<g>
					<path class="st37" d="M852.91,1458.96H704.1c-4.93,0-8.93-4-8.93-8.93v-144.41c0-4.94,4-8.94,8.94-8.94h148.81
						c4.93,0,8.93,4,8.93,8.93v144.41C861.84,1454.96,857.84,1458.96,852.91,1458.96z"/>
				</g>
			</g>
		</g>
	</g>
	<g>
		<g>
			<g>
				<path class="st12" d="M990.01,512.19c-28.1-78.59-103.21-126.86-182.36-124.48c-19.16,0.58-38.57,4.12-57.6,10.94
					c-57.66,20.62-99,66.55-115.99,120.8c-11.77,37.6-11.85,79.2,2.44,119.16c1.42,3.97,2.97,7.89,4.62,11.7
					c7.52,17.31,17.39,32.97,29.1,46.74c49.12,57.75,130.64,82.16,206.25,55.11C974.09,717.25,1024.92,609.81,990.01,512.19z
					 M860.65,707.93c-56.69,20.28-117.8,1.97-154.64-41.31c-8.78-10.32-16.18-22.06-21.81-35.04c-1.25-2.87-2.4-5.8-3.47-8.78
					c-10.71-29.96-10.65-61.15-1.83-89.34c12.74-40.68,43.73-75.11,86.96-90.57c14.27-5.1,28.82-7.75,43.18-8.2
					c59.34-1.78,115.65,34.41,136.73,93.32C971.95,601.2,933.84,681.75,860.65,707.93z"/>
			</g>
		</g>
		<g>
			<g>
				<path class="st38" d="M678.91,533.46l-44.85-14c16.98-54.25,58.33-100.18,115.99-120.8c19.03-6.81,38.44-10.35,57.6-10.94
					l1.4,46.96c-14.37,0.45-28.92,3.1-43.18,8.2C722.63,458.34,691.64,492.78,678.91,533.46z"/>
			</g>
		</g>
		<g>
			<g>
				<path class="st39" d="M684.21,631.58l-43.08,18.74c-1.65-3.82-3.2-7.73-4.62-11.7c-14.29-39.96-14.22-81.56-2.44-119.16
					l44.85,14c-8.82,28.19-8.88,59.38,1.83,89.34C681.81,625.77,682.96,628.71,684.21,631.58z"/>
			</g>
		</g>
		<g>
			<g>
				<path class="st40" d="M670.22,697.06c-11.71-13.77-21.58-29.42-29.1-46.74l43.08-18.74c5.63,12.98,13.03,24.72,21.81,35.04
					L670.22,697.06z"/>
			</g>
		</g>
	</g>
	<g>
		<g>
			<g>
				<rect x="1064.23" y="523.66" class="st41" width="33.24" height="236.77"/>
			</g>
			<g>
				<rect x="1146.77" y="571.77" class="st41" width="33.23" height="188.66"/>
			</g>
			<g>
				<rect x="1229.31" y="536.37" class="st41" width="33.24" height="224.05"/>
			</g>
			<g>
				<rect x="1311.84" y="606.27" class="st41" width="33.24" height="154.16"/>
			</g>
			<g>
				<rect x="1394.38" y="543.63" class="st41" width="33.24" height="216.79"/>
			</g>
			<g>
				<rect x="1476.91" y="510.96" class="st41" width="33.25" height="249.47"/>
			</g>
			<g>
				<rect x="1559.45" y="497.34" class="st41" width="33.24" height="263.09"/>
			</g>
			<g>
				<rect x="1064.23" y="611.89" class="st42" width="33.24" height="148.54"/>
			</g>
			<g>
				<rect x="1146.77" y="642.07" class="st42" width="33.23" height="118.36"/>
			</g>
			<g>
				<rect x="1229.31" y="619.86" class="st42" width="33.24" height="140.57"/>
			</g>
			<g>
				<rect x="1311.84" y="663.71" class="st42" width="33.24" height="96.72"/>
			</g>
			<g>
				<rect x="1394.38" y="624.42" class="st42" width="33.24" height="136.01"/>
			</g>
			<g>
				<rect x="1476.91" y="603.92" class="st42" width="33.25" height="156.51"/>
			</g>
			<g>
				<rect x="1559.45" y="595.37" class="st42" width="33.24" height="165.06"/>
			</g>
		</g>
		<g>
			<rect x="1650.51" y="523.66" class="st41" width="33.25" height="236.77"/>
		</g>
		<g>
			<rect x="1733.05" y="571.77" class="st41" width="33.24" height="188.66"/>
		</g>
		<g>
			<rect x="1815.59" y="536.37" class="st41" width="33.24" height="224.05"/>
		</g>
		<g>
			<rect x="1898.12" y="606.27" class="st41" width="33.25" height="154.16"/>
		</g>
		<g>
			<rect x="1650.51" y="611.89" class="st42" width="33.25" height="148.54"/>
		</g>
		<g>
			<rect x="1733.05" y="642.07" class="st42" width="33.24" height="118.36"/>
		</g>
		<g>
			<rect x="1815.59" y="619.86" class="st42" width="33.24" height="140.57"/>
		</g>
		<g>
			<rect x="1898.12" y="663.71" class="st42" width="33.25" height="96.72"/>
		</g>
	</g>
	<path class="st12" d="M1053.05,406.73h871.04c4.02,0,7.27-3.26,7.27-7.27v-19.27c0-4.01-3.25-7.27-7.27-7.27h-871.05
		c-4.01,0-7.27,3.25-7.27,7.27v19.28C1045.79,403.47,1049.04,406.73,1053.05,406.73z"/>
	<path class="st19" d="M1053.05,465.72h871.04c4.02,0,7.27-3.26,7.27-7.27v-19.29c0-4.01-3.25-7.27-7.27-7.27h-871.05
		c-4.01,0-7.27,3.25-7.27,7.27v19.29C1045.79,462.47,1049.04,465.72,1053.05,465.72z"/>
	<g>
		<path class="st4" d="M1609.43,1544.9h-357c-12.77,0-23.12-10.35-23.12-23.12V883.66c0-12.77,10.35-23.13,23.13-23.13h357
			c12.77,0,23.12,10.35,23.12,23.12v638.12C1632.56,1534.55,1622.21,1544.9,1609.43,1544.9z"/>
	</g>
	<g>
		<g>
			<rect x="1257.39" y="1268.74" class="st12" width="1.77" height="226.23"/>
		</g>
		<g>
			<rect x="1343.15" y="1268.74" class="st12" width="1.77" height="226.23"/>
		</g>
		<g>
			<rect x="1428.93" y="1268.74" class="st12" width="1.76" height="226.23"/>
		</g>
		<g>
			<rect x="1514.69" y="1268.74" class="st12" width="1.77" height="226.23"/>
		</g>
		<g>
			<rect x="1600.45" y="1268.74" class="st12" width="1.76" height="226.23"/>
		</g>
	</g>
	<linearGradient id="SVGID_14_" gradientUnits="userSpaceOnUse" x1="1258.2725" y1="1389.9443" x2="1601.3389" y2="1389.9443">
		<stop  offset="0" style="stop-color:#81D3E4"/>
		<stop  offset="1" style="stop-color:#6076FA"/>
	</linearGradient>
	<path class="st43" d="M1258.27,1403.25c0,0,34.95,29.43,68.73-5.43c33.78-34.86,72.73-46.51,107.17-17.15
		c34.44,29.35,47.84-10.93,82.29-43.95c34.43-33.02,33.88-51.8,84.88-51.8v210.06h-343.07V1403.25z"/>
	<rect x="1344.04" y="1249.9" class="st12" width="21.31" height="8.24"/>
	<rect x="1257.39" y="1249.9" class="st12" width="29" height="8.24"/>
	<rect x="1429.81" y="1249.9" class="st12" width="26.26" height="8.24"/>
	<rect x="1514.69" y="1249.9" class="st12" width="26.27" height="8.24"/>
	<rect x="1575.08" y="1249.9" class="st12" width="26.26" height="8.24"/>
	<linearGradient id="SVGID_15_" gradientUnits="userSpaceOnUse" x1="1471.6597" y1="1108.4" x2="1586.3442" y2="1108.4">
		<stop  offset="0" style="stop-color:#81D3E4"/>
		<stop  offset="1" style="stop-color:#6076FA"/>
	</linearGradient>
	<rect x="1471.66" y="1101.15" class="st44" width="114.68" height="14.5"/>
	<linearGradient id="SVGID_16_" gradientUnits="userSpaceOnUse" x1="1471.6597" y1="1169.2063" x2="1576.9358" y2="1169.2063">
		<stop  offset="0" style="stop-color:#81D3E4"/>
		<stop  offset="1" style="stop-color:#6076FA"/>
	</linearGradient>
	<rect x="1471.66" y="1161.95" class="st45" width="105.28" height="14.51"/>
	<linearGradient id="SVGID_17_" gradientUnits="userSpaceOnUse" x1="1471.6597" y1="1138.8049" x2="1562.7421" y2="1138.8049">
		<stop  offset="0" style="stop-color:#81D3E4"/>
		<stop  offset="1" style="stop-color:#6076FA"/>
	</linearGradient>
	<rect x="1471.66" y="1131.55" class="st46" width="91.08" height="14.51"/>
	<circle class="st12" cx="1348.78" cy="1080.44" r="20.05"/>
	<path class="st12" d="M1384.95,1145.82v38.13c-11.08,5.05-23.39,7.84-36.35,7.84c-12.96,0-25.28-2.8-36.35-7.84v-38.13
		c0-20.07,16.26-36.35,36.35-36.35C1368.69,1109.46,1384.95,1125.75,1384.95,1145.82z"/>
	<g>
		<linearGradient id="SVGID_18_" gradientUnits="userSpaceOnUse" x1="1258.2725" y1="1103.8374" x2="1438.943" y2="1103.8374">
			<stop  offset="0" style="stop-color:#D3D8DE"/>
			<stop  offset="1" style="stop-color:#FFFFFF"/>
		</linearGradient>
		<path class="st47" d="M1348.61,1194.17c-13.03,0-25.59-2.72-37.33-8.05c-32.2-14.64-53-46.94-53-82.29
			c0-49.81,40.52-90.33,90.33-90.33c49.81,0,90.34,40.52,90.34,90.33c0,35.35-20.8,67.65-53,82.29
			C1374.2,1191.45,1361.63,1194.17,1348.61,1194.17z M1348.61,1018.27c-47.18,0-85.57,38.38-85.57,85.56
			c0,33.49,19.71,64.08,50.2,77.95c11.12,5.06,23.02,7.62,35.36,7.62s24.23-2.56,35.36-7.62c30.5-13.86,50.2-44.45,50.2-77.95
			C1434.17,1056.65,1395.79,1018.27,1348.61,1018.27z"/>
	</g>
	<g>
		<path class="st12" d="M1527.82,1065.67c-30.09,0-54.57-24.49-54.57-54.57c0-30.1,24.48-54.57,54.57-54.57
			c30.09,0,54.57,24.48,54.57,54.57C1582.4,1041.18,1557.91,1065.67,1527.82,1065.67z M1527.82,967.45
			c-24.07,0-43.65,19.58-43.65,43.65c0,24.07,19.58,43.65,43.65,43.65s43.65-19.58,43.65-43.65
			C1571.47,987.03,1551.89,967.45,1527.82,967.45z"/>
	</g>
	<rect x="1344.51" y="902.32" class="st12" width="82.23" height="13.1"/>
	<rect x="1356.64" y="936.11" class="st12" width="70.1" height="13.12"/>
	<rect x="1314.03" y="969.91" class="st12" width="112.72" height="13.11"/>
	<g>
		<path class="st4" d="M1925.54,1053.94h-261.61c-3.22,0-5.83-2.61-5.83-5.83V864.94c0-3.22,2.61-5.83,5.83-5.83h261.61
			c3.22,0,5.83,2.61,5.83,5.83v183.17C1931.37,1051.33,1928.76,1053.94,1925.54,1053.94z"/>
	</g>
	<linearGradient id="SVGID_19_" gradientUnits="userSpaceOnUse" x1="1680.1664" y1="917.4381" x2="1775.5272" y2="917.4381">
		<stop  offset="0" style="stop-color:#72ACFB"/>
		<stop  offset="1" style="stop-color:#5286D4"/>
	</linearGradient>
	<path class="st48" d="M1772.27,924.38h-88.84c-1.8,0-3.26-1.46-3.26-3.26v-7.37c0-1.8,1.46-3.26,3.26-3.26h88.85
		c1.8,0,3.26,1.46,3.26,3.26v7.38C1775.53,922.93,1774.07,924.38,1772.27,924.38z"/>
	<linearGradient id="SVGID_20_" gradientUnits="userSpaceOnUse" x1="1680.1664" y1="886.0099" x2="1754.8975" y2="886.0099">
		<stop  offset="0" style="stop-color:#72ACFB"/>
		<stop  offset="1" style="stop-color:#5286D4"/>
	</linearGradient>
	<path class="st49" d="M1752.01,892.96h-68.96c-1.6,0-2.89-1.29-2.89-2.89v-8.11c0-1.6,1.29-2.89,2.89-2.89h68.96
		c1.59,0,2.88,1.29,2.88,2.88v8.13C1754.9,891.67,1753.61,892.96,1752.01,892.96z"/>
	<polygon class="st12" points="1680.17,1027.03 1735.44,971.77 1751.96,988.28 1812.6,927.63 1839.51,954.54 1909.94,884.12 
		1909.94,1027.03 	"/>
	<polygon class="st50" points="1909.29,1027.03 1909.29,917.44 1836.66,990.07 1810.66,964.06 1767.28,1007.43 1734.42,994.36 
		1680.17,1027.03 	"/>
	<g>
		<g>
			<path class="st51" d="M1744.35,1980.94c0,0-20.37,28.61-17.58,33.14c2.8,4.53,24.21,5.18,37.26,0
				c13.04-5.18,13.35-38.72,19.24-53.12c2.47-6.03-2.82-23.84-10.24-25.12c-7.43-1.29-15.51,2.5-15.51,2.5
				S1765.22,1958.63,1744.35,1980.94z"/>
		</g>
		<g>
			<g>
				<path class="st28" d="M1757.37,1938.1c0,0-4.28,12.18-5.85,23.81c-1.29,9.65-14.51,30.14-13.89,32.73
					c0.62,2.59,17.39,4.94,24.22-1.74c6.83-6.68,11.22-26.11,12.73-37.73c1.4-10.83,3.17-16.17,3.17-16.17
					S1763.89,1930.98,1757.37,1938.1z"/>
			</g>
		</g>
		<g>
			<path class="st51" d="M1921.63,1981.41c0,0-19.64,28.14-16.84,32.67c2.8,4.53,24.22,5.18,37.26,0
				c13.03-5.18,13.35-38.72,19.24-53.12c2.47-6.03-2.82-23.84-10.25-25.12c-7.43-1.29-16.14,2.77-16.14,2.77
				S1942.5,1959.11,1921.63,1981.41z"/>
		</g>
		<g>
			<g>
				<path class="st28" d="M1934.9,1938.61c0,0-1.56,13.28-4.04,22.67c-2.48,9.4-15.83,30.77-15.21,33.37
					c0.63,2.59,17.39,4.94,24.22-1.74c6.83-6.68,12.11-26.02,12.72-37.73c0.62-11.71-1.55-19.34-1.55-19.34
					S1941.42,1931.48,1934.9,1938.61z"/>
			</g>
		</g>
		<g>
			<g>
				<path class="st28" d="M1836.79,1472.77c0,0-17.48,84.85-21.49,106.22c-4.01,21.36-15.25,124.82-16.46,142.42
					c-1.21,17.59-18.24,83.88-17.43,90.15c0.8,6.29-25.26,132.5-25.26,132.5s8.9,7.48,18.28,0.68
					c4.82-3.5,57.17-118.16,57.17-149.58c0-43.42,30.77-100.11,34.75-109.82c36.88-90.25,29.62-117.84,34.44-123.7
					c4.82-5.87,5.24,3.62,8.04,16.6c2.81,12.98,8.83,125.25,12.44,139.49c3.62,14.25,0.81,62.4,2.82,86.71
					c2.01,24.29,10.82,134.19,10.82,134.19s6.83,11.16,16.4,0.29c2.06-2.34,16.53-122.41,16.93-151.32
					c0.4-28.9,0.82-68.76,1.6-81.25c7.44-119.78,25.72-136.87-3.08-221.63C1912.86,1325.98,1836.79,1472.77,1836.79,1472.77z"/>
			</g>
		</g>
		<g>
			<path class="st52" d="M1954.16,1449.07c0,0,49.79,72.72,28.35,227.41c0,0-118.1,16.76-181.37-19.39
				c0,0,26.17-159.49,35.65-184.32C1846.27,1447.96,1954.16,1449.07,1954.16,1449.07z"/>
		</g>
		<g>
			<polygon class="st51" points="1783.82,1958.44 1783.82,1988.4 1780.09,1988.4 1780.09,1965.25 			"/>
		</g>
		<g>
			<polygon class="st51" points="1961.83,1958.44 1961.83,1988.4 1958.11,1988.4 1958.11,1965.25 			"/>
		</g>
		<path class="st28" d="M1895.13,1126.62c0,0-33.34,33.59-21.99,76.84c11.35,43.26,29.6,43.5,49.72,24.9
			c20.11-18.61,31.95-38.18,34.61-59.93C1960.13,1146.68,1925.58,1096.65,1895.13,1126.62z"/>
		<path class="st28" d="M1888.61,1270.88c0,0,4.95-11.31,8.41-24.05c0.62-2.25,1.17-4.54,1.66-6.82c1.7-8.01,2.39-15.91,0.56-21.32
			c-5.32-15.7,33.35-4.83,33.35-4.83s-7.49,41.56,0,55.57C1940.08,1283.45,1888.61,1270.88,1888.61,1270.88z"/>
		<path class="st53" d="M1986.59,1290.68c-6.09-12.15-10.64-16.06-22.4-19.77c-6.58-2.07-35.98-9.74-35.98-9.74l-35.32-1.29
			c0,0-24.3,4.04-43.14,10.57c-18.85,6.52-43.55,42.23-43.55,42.23s34.07,79.99,40.6,102.94c6.52,22.96,2.17,58.48,2.17,58.48
			c40.84,22.23,106.32-2.17,106.32-2.17c-4.96-17.94-5.17-38.88-2.56-53.74c0.31-1.75,0.65-3.41,1.04-4.98
			c0.35-1.43,0.84-3.47,1.4-5.77c0.02-0.09,0.05-0.19,0.07-0.3c25.97,2.66,50.33,3.74,50.97-1.47
			C2009.07,1382.2,1994.96,1307.37,1986.59,1290.68z M1968.6,1381.88c-1.05-0.16-3.28-0.16-5.63-0.38c2.88-8.04,6.1-15.18,6.1-15.18
			C1970.91,1371.46,1977.91,1383.28,1968.6,1381.88z"/>
		<path class="st54" d="M1906.01,1150.79c0,0,15.94,28.99,25.85,39.39c9.91,10.39,8.75,18.64,8.75,18.64s38.62-47.64,11.07-76.39
			c-27.55-28.76-63.07-17.16-73.46,7.97c-10.39,25.13-6.59,55.83-6.59,55.83S1871.93,1166.73,1906.01,1150.79z"/>
		<path class="st54" d="M1916.53,1120.42c0,0-3.86-21.23,29.43-29.67c33.29-8.44,48.25,29.91,44.14,53.31
			c-4.1,23.4-32.56,82.73-17.13,90.46c15.44,7.71,21.47-8.93,21.47-8.93s-4.83,29.19-26.29,22.43
			c-21.47-6.75-18.58-54.19-15.34-73.09C1956.06,1156.04,1916.53,1120.42,1916.53,1120.42z"/>
		<path class="st55" d="M1927.25,1224.14c-0.13,0.31-8.55,19.68-30.24,22.69c0.62-2.25,1.17-4.54,1.66-6.82
			C1898.68,1240.01,1910.56,1242.41,1927.25,1224.14z"/>
		<path class="st56" d="M1968.6,1366.6c0,0-1.59,3.36-5.95,16.56c-4.43-37.08-2.12-56.38-2.12-56.38
			C1961.02,1346.6,1968.6,1366.6,1968.6,1366.6z"/>
		<path class="st53" d="M1921.71,1115.97c0,0,23.63,4.54,35.41,23.78c0,0-2.4-17.42-14.15-22.45
			C1931.22,1112.28,1921.71,1115.97,1921.71,1115.97z"/>
		<path class="st56" d="M1955.17,1407.43c-0.56,2.3-1.05,4.35-1.4,5.77c-0.39,1.57-0.73,3.24-1.04,4.98
			c-14.63-7.95-25.14-14.18-25.14-14.18C1931.53,1404.89,1955.17,1407.43,1955.17,1407.43z"/>
		<path class="st28" d="M1930.18,1261.69l-41.58,33.9l4.28-35.71C1892.89,1259.88,1917.13,1254.65,1930.18,1261.69z"/>
		<polygon class="st57" points="1900.62,1289.83 1888.61,1295.59 1929.44,1255.1 		"/>
		<path class="st58" d="M1957.62,1404.51c-5.72,23.72,15.45,77.09,15.45,77.09l-41.97,13.12c-6.04,1.88-12.4-1.81-13.73-8
			c-5.61-26.12-18.79-90.4-20.36-126.14c-2.01-45.6,31.19-99.41,31.19-99.41c59.02,10.13,42.83,99.41,42.83,99.41
			s-2.14,5.62-5.01,14.41c0,0,0,0,0,0.01c-0.72,2.2-1.48,4.61-2.28,7.18C1961.74,1388.78,1959.56,1396.45,1957.62,1404.51z"/>
		<path class="st58" d="M1888.71,1261.82l0.73-1.94c0,0-30.23,4.59-45.58,12.27c-15.36,7.68-44.76,47.3-44.76,47.3l38.45,50.77
			c0.05,39.02-6.28,108.39-6.28,108.39l17.58,10.13c4.73,2.73,10.64-0.61,10.74-6.07c0.5-26.38,1.68-89.03,2.31-119.37
			c0.79-39.02,28.64-102.13,28.64-102.13C1889.92,1261.38,1889.31,1261.61,1888.71,1261.82z"/>
		<path class="st28" d="M1833.91,1444.78c0,0,29,1.13,33.51,0c4.51-1.13,34.59-14.18,36.41-27.07
			c1.81-12.88-69.92,11.56-69.92,11.56V1444.78z"/>
		<polygon class="st59" points="1923.89,1404.51 1806.2,1390.73 1859.37,1433.99 		"/>
		<polygon class="st30" points="1859.37,1433.99 1923.89,1411.99 1923.89,1404.51 1857.19,1425.89 		"/>
		<g>
			<path class="st28" d="M1889.7,1382.9c0,0-9.73,0.01-15.19-1.11c-4.22-0.86-14.7,0.32-17.37,2.7
				c-2.67,2.37-11.17,18.86-12.77,19.86c-1.61,1.01,0.82,3.34,3.65,2.17c0,0,2.59,7.22,8.98,4.51c6.39-2.7,10.73-8.61,14.09-9.64
				c3.34-1.04,22.84-6.28,22.84-6.28S1894.72,1381.14,1889.7,1382.9z"/>
		</g>
		<polygon class="st60" points="1895.11,1253.29 1872.71,1288.77 1861.9,1295.59 1887.09,1260.26 		"/>
		<polygon class="st57" points="1872.71,1288.77 1888.61,1295.59 1892.89,1259.88 1895.11,1253.29 		"/>
		<path class="st58" d="M1837.46,1428.19c0,0-1.2,14.98,0,18.12c0,0-72.57-7.25-79.34-17.4c-6.76-10.14-6.52-22.47-6.52-22.47
			L1837.46,1428.19z"/>
		<polygon class="st61" points="1859.37,1433.99 1825.06,1306.4 1694.56,1292.63 1730.33,1410.07 		"/>
		<polygon class="st60" points="1929.44,1255.1 1900.62,1289.83 1916.39,1303.9 1933.41,1262.32 		"/>
		<path class="st62" d="M1967,1372.05c0,0-0.97,2.94-0.97,2.95c-0.72,2.2-1.48,4.61-2.28,7.18c-5.57,1.75-53.77-1.79-53.77-1.79
			S1950.34,1370.92,1967,1372.05z"/>
		<path class="st58" d="M1964.22,1381.23c-7.77-0.58-20.48-1.41-30.9-1.46c-16.19-0.07-43.89,1.73-43.89,1.73l3.3,17.31
			c0,0,49.06,7.97,75.86,9.85l0,0c0,0,35.36,4.06,37.99-1.22c2.63-5.27-0.87-39.15-6.62-69.68c-5.75-30.52-11.67-48.1-18.7-57.52
			c-7.03-9.43-44.18-16.78-44.18-16.78l31.51,103.14c0,0,4.52,9.2,4.29,13.18c-0.06,1.21-0.91,1.78-2.03,1.99
			c-0.79-0.06-2.53-0.21-4.94-0.4L1964.22,1381.23z"/>
	</g>
</g>
</svg>
